<?xml version="1.0" standalone="no"?>
<!DOCTYPE svg PUBLIC "-//W3C//DTD SVG 1.1//EN" "http://www.w3.org/Graphics/SVG/1.1/DTD/svg11.dtd" >
<svg xmlns="http://www.w3.org/2000/svg" xmlns:xlink="http://www.w3.org/1999/xlink" version="1.1">
<metadata>
Created by FontForge 20190801 at Tue Oct  1 17:56:18 2013
 By Jimmy Wärting
Copyright (c) 2009 by Eduardo Manso. All rights reserved.
</metadata>
<defs>
<font id="ArchyEDT-Thin" horiz-adv-x="510" >
  <font-face 
    font-family="Archy EDT"
    font-weight="250"
    font-stretch="normal"
    units-per-em="1000"
    panose-1="2 0 0 0 0 0 0 0 0 0"
    ascent="750"
    descent="-250"
    x-height="490"
    cap-height="680"
    bbox="-44 -218 932 964"
    underline-thickness="50"
    underline-position="-100"
    stemh="15"
    stemv="16"
    unicode-range="U+0020-FB04"
  />
<missing-glyph horiz-adv-x="869" 
d="M750 94c-60 -67 -145 -102 -237 -102c-89 0 -183 35 -258 102c-76 67 -122 157 -133 247c-11 89 13 179 72 247c59 67 145 102 234 102c90 0 186 -35 261 -102s123 -158 134 -247c11 -91 -14 -180 -73 -247zM736 106c57 65 81 150 71 235c-11 85 -55 170 -128 235
s-163 98 -249 98c-85 0 -165 -33 -222 -98c-58 -66 -81 -150 -70 -235c10 -85 53 -170 127 -235c73 -65 161 -98 246 -98c87 0 168 33 225 98zM623 197l-149 133l-116 -132c-2 -2 -6 -2 -8 0l-3 3c-4 3 -3 6 -1 8l116 132l-148 132c-3 3 -4 6 -2 9l2 2c3 3 5 4 9 1l148 -133
l117 132c3 3 5 4 9 1l2 -2c3 -3 5 -6 2 -9l-117 -133l149 -133c3 -3 4 -6 1 -9l-2 -2c-3 -2 -5 -3 -9 0z" />
    <glyph glyph-name="ff" unicode="ff" horiz-adv-x="581" 
d="M135 489h13v102c0 65 33 112 163 112h3c4 0 6 -2 6 -6v-3c1 -5 -2 -6 -6 -6h-3c-117 0 -147 -42 -147 -97v-102h267v102c0 65 33 112 163 112h3c4 0 6 -2 6 -6v-3c1 -5 -2 -6 -6 -6h-3c-117 0 -147 -42 -147 -97v-102h131c4 0 6 -2 6 -6l1 -3c0 -4 -2 -6 -6 -6h-131
l-1 -679c0 -4 -2 -6 -6 -6h-4c-4 0 -6 2 -6 6l1 679h-267l-1 -679c0 -4 -2 -6 -6 -6h-4c-4 0 -6 2 -6 6l1 679h-70c-4 0 -7 2 -7 6v1c-1 4 2 6 6 6z" />
    <glyph glyph-name="fi" unicode="fi" horiz-adv-x="488" 
d="M447 482v-476c0 -3 -2 -6 -6 -6h-4c-4 0 -6 2 -6 6v468h-267v-679c0 -4 -2 -6 -6 -6h-4c-4 0 -6 2 -6 6v679h-70c-4 0 -5 2 -5 6l-1 1c0 4 2 6 6 6l57 2h13v98c0 65 33 112 163 112h99c4 0 5 -2 5 -6l1 -3c0 -4 -2 -6 -6 -6h-99c-117 0 -146 -42 -147 -97v-98h276
c5 0 8 -2 7 -7z" />
    <glyph glyph-name="ffi" unicode="ffi" horiz-adv-x="771" 
d="M135 489h13v102c0 65 33 112 163 112h3c4 0 6 -2 6 -6v-3c1 -5 -2 -6 -6 -6h-3c-117 0 -147 -42 -147 -97v-102h268v98c0 65 32 112 162 112h99c4 0 5 -2 6 -6v-3c0 -4 -1 -6 -5 -6h-99c-117 0 -147 -42 -147 -97v-98h276c5 0 7 -2 7 -7l-1 -476c0 -3 -1 -6 -5 -6h-4
c-4 0 -7 2 -7 6l1 468h-267l-1 -679c0 -4 -1 -6 -5 -6h-4c-4 0 -7 2 -7 6l1 679h-267l-1 -679c0 -4 -2 -6 -6 -6h-4c-4 0 -6 2 -6 6l1 679h-70c-4 0 -7 2 -7 6v1c-1 4 2 6 6 6z" />
    <glyph glyph-name="fl" unicode="fl" horiz-adv-x="515" 
d="M447 693v-687c0 -4 -2 -6 -6 -6h-4c-4 0 -6 2 -6 6v678h-120c-117 0 -146 -42 -147 -97v-98h130c4 0 6 -2 6 -6l1 -3c0 -4 -2 -6 -6 -6h-131v-679c0 -4 -2 -6 -6 -6h-4c-4 0 -6 2 -6 6v679h-70c-4 0 -5 2 -5 6l-1 1c0 4 2 6 6 6l57 2h13v98c0 65 32 112 163 112h129
c5 0 7 -2 7 -6z" />
    <glyph glyph-name="ffl" unicode="ffl" horiz-adv-x="798" 
d="M731 693l-1 -687c0 -4 -1 -6 -5 -6h-4c-4 0 -7 2 -7 6l1 678h-120c-117 0 -147 -42 -147 -97v-98h130c4 0 5 -2 5 -6l1 -3c0 -4 -1 -6 -5 -6h-131l-1 -679c0 -4 -1 -6 -5 -6h-4c-4 0 -7 2 -7 6l1 679h-267l-1 -679c0 -4 -2 -6 -6 -6h-4c-4 0 -6 2 -6 6l1 679h-70
c-4 0 -7 2 -7 6v1c-1 4 2 6 6 6l57 2h13v102c0 65 33 112 163 112h3c4 0 6 -2 6 -6v-3c1 -5 -2 -6 -6 -6h-3c-117 0 -147 -42 -147 -97v-102h268v98c0 65 31 112 162 112h129c5 0 7 -2 8 -6z" />
    <glyph glyph-name=".notdef" horiz-adv-x="869" 
d="M750 94c-60 -67 -145 -102 -237 -102c-89 0 -183 35 -258 102c-76 67 -122 157 -133 247c-11 89 13 179 72 247c59 67 145 102 234 102c90 0 186 -35 261 -102s123 -158 134 -247c11 -91 -14 -180 -73 -247zM736 106c57 65 81 150 71 235c-11 85 -55 170 -128 235
s-163 98 -249 98c-85 0 -165 -33 -222 -98c-58 -66 -81 -150 -70 -235c10 -85 53 -170 127 -235c73 -65 161 -98 246 -98c87 0 168 33 225 98zM623 197l-149 133l-116 -132c-2 -2 -6 -2 -8 0l-3 3c-4 3 -3 6 -1 8l116 132l-148 132c-3 3 -4 6 -2 9l2 2c3 3 5 4 9 1l148 -133
l117 132c3 3 5 4 9 1l2 -2c3 -3 5 -6 2 -9l-117 -133l149 -133c3 -3 4 -6 1 -9l-2 -2c-3 -2 -5 -3 -9 0z" />
    <glyph glyph-name=".null" horiz-adv-x="0" 
 />
    <glyph glyph-name="CR" horiz-adv-x="0" 
 />
    <glyph glyph-name="space" unicode=" " horiz-adv-x="250" 
 />
    <glyph glyph-name="A" unicode="A" horiz-adv-x="503" 
d="M290 680h5c4 0 6 -2 7 -6l211 -668c1 -4 -1 -6 -4 -6h-5c-4 0 -6 2 -7 6l-72 226h-266l-71 -226c-2 -4 -3 -6 -7 -6h-4c-6 0 -6 3 -5 6l209 668c2 4 5 6 9 6zM421 247l-107 339c-2 7 -23 72 -23 72c-4 -20 -14 -53 -19 -69l-108 -342h257z" />
    <glyph glyph-name="B" unicode="B" horiz-adv-x="573" 
d="M342 0h-187c-4 0 -6 2 -6 6l-1 668c1 4 3 6 7 6h163c136 0 185 -47 192 -111c1 -6 2 -13 2 -20v-72c-1 -60 -26 -104 -104 -122c83 -13 120 -52 127 -106c0 -6 1 -13 1 -19v-99c0 -76 -41 -131 -194 -131zM342 346h-177l-1 -331h177c140 0 179 50 179 116v99
c0 6 0 12 -1 18c-7 57 -50 98 -177 98zM318 665h-153v-304h168c126 0 163 51 163 116v72c0 6 -1 12 -1 18c-7 57 -50 98 -177 98z" />
    <glyph glyph-name="C" unicode="C" horiz-adv-x="537" 
d="M518 188v-65c0 -76 -38 -131 -191 -131c-134 0 -181 44 -189 108c-1 7 -1 15 -1 23v434c0 76 37 131 190 131c135 0 181 -45 189 -110c1 -7 2 -14 2 -21l-1 -54c1 -4 -1 -6 -5 -6h-4c-4 0 -6 2 -7 6l1 54c0 6 -1 13 -1 19c-7 56 -48 97 -174 97
c-139 0 -174 -50 -174 -116v-434c0 -7 1 -13 2 -20c6 -56 46 -96 171 -96c140 0 176 50 176 116v65c0 4 1 6 5 6h4c4 0 7 -2 7 -6z" />
    <glyph glyph-name="D" unicode="D" horiz-adv-x="591" 
d="M342 0h-187c-4 0 -6 2 -6 6l-1 668c1 4 3 6 6 6h188c135 0 184 -46 192 -111c1 -7 2 -13 2 -20v-418c0 -76 -41 -131 -194 -131zM342 665h-177l-1 -650h177c140 0 179 50 179 116v418c0 6 -1 12 -1 18c-7 57 -50 98 -177 98z" />
    <glyph glyph-name="E" unicode="E" horiz-adv-x="534" 
d="M509 0h-355c-3 0 -5 2 -5 6l-1 668c1 4 3 6 7 6h341c4 0 5 -2 5 -6l1 -3c0 -4 -2 -6 -6 -6h-331v-297h312c4 0 5 -2 6 -6v-3c1 -4 -2 -6 -6 -6h-312l-1 -338h344c4 0 6 -2 6 -6l1 -3c0 -4 -2 -6 -6 -6z" />
    <glyph glyph-name="F" unicode="F" horiz-adv-x="536" 
d="M155 680h368c4 0 5 -2 5 -6l1 -3c0 -4 -2 -6 -6 -6h-358l-1 -300h339c4 0 6 -2 6 -6l1 -3c0 -4 -2 -6 -6 -6h-339v-344c0 -4 -2 -6 -6 -6h-4c-4 0 -6 2 -6 6l-1 668c1 4 3 6 7 6z" />
    <glyph glyph-name="G" unicode="G" horiz-adv-x="555" 
d="M338 301h174c4 0 6 -2 6 -6v-172c0 -76 -38 -131 -191 -131c-134 0 -181 44 -189 108c-1 7 -1 15 -1 23v434c0 76 37 131 190 131c135 0 181 -45 189 -110c1 -7 2 -14 2 -21l-1 -54c1 -4 -1 -6 -5 -6h-4c-4 0 -6 2 -7 6l1 54c0 6 -1 13 -1 19c-7 56 -48 97 -174 97
c-139 0 -174 -50 -174 -116v-434c0 -7 1 -13 2 -20c6 -56 46 -96 171 -96c139 0 175 49 175 114l1 165h-163c-4 0 -6 2 -7 6v3c0 4 2 6 6 6z" />
    <glyph glyph-name="H" unicode="H" horiz-adv-x="603" 
d="M164 674l1 -297h355l-1 297c0 4 3 6 7 6h4c4 0 6 -2 5 -6l1 -668c0 -4 -2 -6 -6 -6h-4c-4 0 -6 2 -6 6v356h-355v-356c0 -4 -2 -6 -6 -6h-4c-4 0 -6 2 -6 6l-1 668c1 4 3 6 7 6h4c4 0 5 -2 5 -6z" />
    <glyph glyph-name="I" unicode="I" horiz-adv-x="232" 
d="M164 674l1 -668c0 -4 -2 -6 -6 -6h-4c-4 0 -6 2 -6 6l-1 668c1 4 3 6 7 6h4c4 0 6 -2 5 -6z" />
    <glyph glyph-name="J" unicode="J" horiz-adv-x="481" 
d="M99 155v-32c0 -8 0 -16 1 -24c6 -54 40 -92 151 -92c126 0 153 50 153 116v551c0 4 1 6 5 6h4c4 0 7 -2 7 -6v-551c0 -76 -30 -131 -169 -131c-119 0 -160 43 -167 106c-1 8 -1 16 -1 25v32c-1 4 2 6 6 6h4c4 0 5 -2 6 -6z" />
    <glyph glyph-name="K" unicode="K" horiz-adv-x="519" 
d="M222 344l313 -338c2 -3 0 -6 -3 -6h-5c-5 0 -8 2 -12 6l-306 329h-44v-329c0 -4 -2 -6 -6 -6h-4c-4 0 -6 2 -6 6l-1 668c1 4 3 6 7 6h4c4 0 6 -2 5 -6l1 -324h41l278 325c3 3 7 5 11 5h7c4 0 6 -2 2 -6z" />
    <glyph glyph-name="L" unicode="L" horiz-adv-x="501" 
d="M164 674v-659h329c4 0 6 -2 6 -6l1 -3c0 -4 -2 -6 -6 -6h-340c-3 0 -5 2 -5 6l-1 668c1 4 3 6 7 6h4c4 0 6 -2 5 -6z" />
    <glyph glyph-name="M" unicode="M" horiz-adv-x="708" 
d="M640 674l1 -668c0 -4 -2 -6 -6 -6h-4c-4 0 -6 2 -6 6v632c-1 -1 -7 -23 -13 -35l-205 -493c-2 -4 -5 -6 -9 -6h-8c-4 0 -6 2 -7 6l-208 496c-2 3 -7 18 -11 32v-632c0 -4 -2 -6 -6 -6h-3c-4 0 -6 2 -6 6l-1 668c0 2 2 6 6 6h2c3 0 5 -1 6 -4l219 -521c4 -9 12 -28 14 -36
c0 1 8 24 12 36l217 521c1 3 4 4 6 4h5c4 0 6 -2 5 -6z" />
    <glyph glyph-name="N" unicode="N" horiz-adv-x="602" 
d="M533 674l1 -668c0 -4 -2 -6 -6 -6h-2c-3 0 -5 1 -6 3l-329 590c-7 13 -19 37 -27 52v-639c0 -4 -2 -6 -6 -6h-3c-4 0 -6 2 -6 6l-1 668c1 4 3 6 7 6h1c3 0 4 -1 5 -3l330 -590c6 -11 28 -51 28 -51l-1 638c1 4 3 6 7 6h3c4 0 6 -2 5 -6z" />
    <glyph glyph-name="O" unicode="O" horiz-adv-x="579" 
d="M137 123v434c0 76 40 131 193 131c135 0 184 -46 192 -111c1 -7 2 -13 2 -20v-434c0 -76 -41 -131 -194 -131c-135 0 -184 45 -192 109c-1 7 -1 14 -1 22zM508 123v434c0 6 -1 12 -1 18c-7 57 -50 98 -177 98c-139 0 -177 -50 -177 -116v-434c0 -6 1 -12 1 -18
c7 -57 49 -98 175 -98c140 0 179 50 179 116z" />
    <glyph glyph-name="P" unicode="P" horiz-adv-x="555" 
d="M342 282h-177v-276c0 -4 -2 -6 -6 -6h-4c-4 0 -6 2 -6 6l-1 668c1 4 3 6 6 6h188c135 0 185 -49 193 -114c1 -7 1 -13 1 -20v-136c-1 -76 -41 -128 -194 -128zM342 665h-177v-368h177c140 0 178 47 178 113v136c0 6 0 12 -1 18c-7 57 -50 101 -177 101z" />
    <glyph glyph-name="Q" unicode="Q" horiz-adv-x="578" 
d="M127 123v434c0 76 40 131 193 131c135 0 184 -46 192 -111c1 -7 2 -13 2 -20v-434c0 -70 -35 -123 -161 -130l161 -149c4 -3 4 -5 0 -8l-2 -3c-2 -2 -5 -3 -8 0l-171 159h-13c-135 0 -184 45 -192 109c-1 7 -1 14 -1 22zM498 123v434c0 6 -1 12 -1 18
c-7 57 -50 98 -177 98c-139 0 -177 -50 -177 -116v-434c0 -6 1 -12 1 -18c7 -57 49 -98 175 -98c140 0 179 50 179 116z" />
    <glyph glyph-name="R" unicode="R" horiz-adv-x="582" 
d="M341 292h-177l1 -286c0 -4 -2 -6 -6 -6h-4c-4 0 -6 2 -6 6l-1 668c1 4 3 6 6 6h188c135 0 185 -49 193 -114c1 -7 1 -13 1 -20l1 -126c0 -66 -31 -113 -138 -125l151 -289c1 -3 1 -6 -5 -6h-4c-6 0 -9 3 -10 6l-149 287c-13 -1 -27 -1 -41 -1zM342 665h-177v-358h177
c139 0 179 47 179 113l-1 126c0 6 0 12 -1 18c-7 57 -50 101 -177 101z" />
    <glyph glyph-name="S" unicode="S" horiz-adv-x="559" 
d="M495 504v53c0 7 -1 13 -2 20c-6 56 -45 96 -170 96c-140 0 -173 -50 -173 -116v-51c0 -5 0 -10 1 -14c6 -48 43 -73 73 -85l200 -77c39 -15 84 -47 91 -102c1 -4 1 -9 1 -14v-91c0 -76 -41 -131 -194 -131c-134 0 -184 45 -192 109c-1 7 -1 14 -1 22v47c0 4 2 6 6 6h4
c4 0 6 -2 6 -6v-47c0 -6 1 -13 1 -19c7 -56 48 -97 175 -97c140 0 179 50 179 116v91c-1 4 0 9 -1 13c-6 49 -46 75 -82 89l-199 77c-34 13 -76 43 -83 98c-1 5 -1 10 -1 15v51c0 76 35 131 189 131c133 0 178 -45 186 -109c1 -7 2 -15 2 -22v-53c1 -4 -2 -6 -6 -6h-4
c-3 0 -6 1 -6 6z" />
    <glyph glyph-name="T" unicode="T" horiz-adv-x="474" 
d="M70 680h413c4 0 6 -2 6 -6l1 -3c0 -4 -2 -6 -6 -6h-199v-659c0 -4 -2 -6 -6 -6h-4c-4 0 -6 2 -6 6v659h-198c-4 0 -7 2 -7 6l-1 3c0 4 3 6 7 6z" />
    <glyph glyph-name="U" unicode="U" horiz-adv-x="591" 
d="M158 674v-551c-1 -6 0 -12 1 -18c7 -57 50 -98 176 -98c140 0 178 50 178 116v551c0 4 1 6 5 6h4c4 0 7 -2 7 -6v-551c0 -76 -40 -131 -194 -131c-135 0 -184 45 -192 111c-1 6 -1 13 -1 20v551c0 4 1 6 5 6h4c4 0 7 -2 7 -6z" />
    <glyph glyph-name="V" unicode="V" horiz-adv-x="503" 
d="M295 0h-5c-4 0 -7 2 -8 6l-211 668c-1 5 2 6 6 6h4c4 0 5 -2 6 -6l184 -580l21 -72s15 52 20 69l183 583c2 4 4 6 8 6h5c4 0 6 -1 4 -6l-209 -668c-2 -4 -4 -6 -8 -6z" />
    <glyph glyph-name="W" unicode="W" horiz-adv-x="770" 
d="M434 674l150 -582c6 -23 13 -59 15 -62c0 4 9 40 15 62l148 582c2 4 4 6 8 6h5c4 0 6 -1 4 -6l-169 -668c-1 -4 -4 -6 -8 -6h-5c-4 0 -7 2 -8 6l-150 589c-4 17 -13 53 -13 53s-9 -37 -13 -53l-150 -589c-1 -4 -4 -6 -8 -6h-5c-4 0 -7 2 -8 6l-171 668c-1 5 2 6 6 6h4
c4 0 5 -2 6 -6l150 -582c4 -16 15 -64 15 -64s12 47 16 64l148 582c2 4 4 6 8 6h4c4 0 5 -2 6 -6z" />
    <glyph glyph-name="X" unicode="X" horiz-adv-x="533" 
d="M316 342l202 -336c2 -3 1 -6 -4 -6h-5c-5 0 -8 3 -10 6l-193 321l-191 -321c-2 -3 -4 -6 -9 -6h-6c-4 0 -7 2 -4 6l200 337l-199 331c-1 3 0 6 4 6h6c4 0 7 -3 8 -6l191 -317l182 317c3 4 6 6 10 6h7c4 0 5 -2 2 -6z" />
    <glyph glyph-name="Y" unicode="Y" horiz-adv-x="493" 
d="M83 674l192 -344c3 -6 10 -18 13 -25c0 0 7 16 12 25l189 344c2 4 5 6 9 6h6c4 0 7 -1 3 -6l-212 -382l1 -286c0 -4 -2 -6 -6 -6h-4c-4 0 -6 2 -6 6v285l-214 383c-2 5 1 6 5 6h5c4 0 5 -2 7 -6z" />
    <glyph glyph-name="Z" unicode="Z" horiz-adv-x="508" 
d="M131 680h343c4 0 5 -2 5 -6l1 -3c0 -2 -1 -4 -1 -6l-352 -650h361c4 0 6 -2 6 -6l1 -3c0 -4 -2 -6 -6 -6h-376c-4 0 -6 2 -6 5l-1 2c0 4 3 7 3 9l350 649h-328c-3 0 -6 2 -6 6l-1 3c0 4 3 6 7 6z" />
    <glyph glyph-name="Agrave" unicode="&#xc0;" horiz-adv-x="503" 
d="M302 680h5c4 0 6 -2 8 -6l210 -668c1 -4 -1 -6 -4 -6h-5c-4 0 -6 2 -7 6l-72 226h-266l-71 -226c-2 -4 -3 -6 -7 -6h-4c-6 0 -6 3 -5 6l210 668c1 4 4 6 8 6zM433 247l-107 339c-1 7 -22 72 -22 72c-5 -20 -15 -53 -20 -69l-108 -342h257zM277 747l-85 125c-1 2 -1 6 4 6
h6c4 0 6 -2 7 -4l81 -125c3 -3 2 -5 -1 -5h-5c-4 0 -6 1 -7 3z" />
    <glyph glyph-name="Aacute" unicode="&#xc1;" horiz-adv-x="503" 
d="M302 680h5c4 0 6 -2 8 -6l210 -668c1 -4 -1 -6 -4 -6h-5c-4 0 -6 2 -7 6l-72 226h-266l-71 -226c-2 -4 -3 -6 -7 -6h-4c-6 0 -6 3 -5 6l210 668c1 4 4 6 8 6zM433 247l-107 339c-1 7 -22 72 -22 72c-5 -20 -15 -53 -20 -69l-108 -342h257zM387 872l-83 -125
c-1 -1 -2 -3 -6 -3h-7c-3 0 -4 2 -3 5l83 125c2 2 3 4 7 4h7c5 0 5 -3 2 -6z" />
    <glyph glyph-name="Acircumflex" unicode="&#xc2;" horiz-adv-x="503" 
d="M302 680h5c4 0 6 -2 8 -6l210 -668c1 -4 -1 -6 -4 -6h-5c-4 0 -6 2 -7 6l-72 226h-266l-71 -226c-2 -4 -3 -6 -7 -6h-4c-6 0 -6 3 -5 6l210 668c1 4 4 6 8 6zM433 247l-107 339c-1 7 -22 72 -22 72c-5 -20 -15 -53 -20 -69l-108 -342h257zM297 864l-77 -114
c-2 -4 -4 -6 -7 -6h-6c-4 0 -5 3 -4 6l80 122c2 3 6 6 10 6h7c4 0 6 -2 8 -5l81 -123c3 -3 2 -6 -2 -6h-4c-3 0 -6 1 -10 6z" />
    <glyph glyph-name="Atilde" unicode="&#xc3;" horiz-adv-x="503" 
d="M301 680h5c4 0 6 -2 8 -6l210 -668c1 -4 -1 -6 -4 -6h-5c-4 0 -6 2 -7 6l-72 226h-266l-71 -226c-2 -4 -3 -6 -7 -6h-4c-6 0 -6 3 -5 6l210 668c1 4 4 6 8 6zM432 247l-106 339c-2 7 -23 72 -23 72c-5 -20 -15 -53 -20 -69l-108 -342h257zM226 848c-30 0 -40 -15 -38 -68
v-10c0 -4 -2 -6 -6 -6h-4c-4 0 -6 2 -6 6v10c0 65 17 83 53 83c14 0 33 -8 48 -24l44 -43c9 -9 22 -17 34 -17c30 0 38 13 38 68v10c0 4 3 6 7 6h4c4 0 5 -2 5 -6v-10c0 -65 -17 -83 -52 -83c-14 0 -32 8 -49 24l-43 42c-11 9 -23 18 -35 18z" />
    <glyph glyph-name="Adieresis" unicode="&#xc4;" horiz-adv-x="503" 
d="M301 680h5c4 0 6 -2 8 -6l210 -668c1 -4 0 -6 -3 -6h-5c-4 0 -7 2 -8 6l-72 226h-266l-71 -226c-2 -4 -2 -6 -6 -6h-4c-6 0 -7 3 -6 6l210 668c1 4 4 6 8 6zM432 247l-106 339c-2 7 -23 72 -23 72c-5 -20 -15 -53 -20 -69l-108 -342h257zM265 860v-100c0 -4 -2 -6 -6 -6
h-4c-4 0 -5 2 -6 6v100c1 4 2 6 6 6h4c4 0 6 -2 6 -6zM344 860v-100c0 -4 -2 -6 -6 -6h-4c-4 0 -5 2 -6 6v100c1 4 2 6 6 6h4c4 0 6 -2 6 -6z" />
    <glyph glyph-name="Amacron" unicode="&#x100;" horiz-adv-x="503" 
d="M298 680h5c4 0 6 -2 7 -6l210 -668c2 -4 0 -6 -3 -6h-5c-4 0 -6 2 -8 6l-71 226h-266l-72 -226c-1 -4 -2 -6 -6 -6h-4c-6 0 -6 3 -6 6l210 668c2 4 5 6 9 6zM429 247l-107 339c-2 7 -23 72 -23 72c-4 -20 -14 -53 -19 -69l-108 -342h257zM148 807h268c4 0 6 -2 7 -5v-4
c1 -4 -2 -6 -6 -6h-268c-4 0 -6 2 -7 6v3c-1 4 2 6 6 6z" />
    <glyph glyph-name="Abreve" unicode="&#x102;" horiz-adv-x="503" 
d="M302 680h5c4 0 6 -2 8 -6l210 -668c1 -4 -1 -6 -4 -6h-5c-4 0 -6 2 -7 6l-72 226h-266l-71 -226c-2 -4 -3 -6 -7 -6h-4c-6 0 -6 3 -5 6l210 668c1 4 4 6 8 6zM433 247l-107 339c-1 7 -22 72 -22 72c-5 -20 -15 -53 -20 -69l-108 -342h257zM204 872l2 -26
c0 -10 0 -14 1 -18c5 -41 24 -62 86 -62c77 0 85 39 84 94l-1 12c0 5 2 6 7 6h4c4 0 5 -3 5 -6l1 -12c1 -65 -10 -109 -100 -109c-70 0 -96 26 -102 77c-1 6 -1 7 -1 18l-2 26c0 4 3 6 7 6h4c3 0 5 -1 5 -6z" />
    <glyph glyph-name="Aring" unicode="&#xc5;" horiz-adv-x="503" 
d="M302 680h5c4 0 6 -2 8 -6l210 -668c1 -4 -1 -6 -4 -6h-5c-4 0 -6 2 -7 6l-72 226h-266l-71 -226c-2 -4 -3 -6 -7 -6h-4c-6 0 -6 3 -5 6l210 668c1 4 4 6 8 6zM433 247l-106 339c-2 7 -23 72 -23 72c-5 -20 -15 -53 -20 -69l-108 -342h257zM382 798l1 -11
c-1 -35 -24 -59 -87 -59c-54 0 -79 27 -83 57c0 4 -2 13 -2 21v12c0 35 22 61 87 61c53 0 79 -28 83 -60c1 -6 1 -12 1 -21zM367 787l-1 11c0 10 0 14 -1 20c-3 25 -22 46 -68 46c-52 0 -70 -20 -70 -46v-12c0 -8 2 -17 2 -20c3 -22 20 -43 67 -43c50 0 70 18 71 44z" />
    <glyph glyph-name="Aringacute" unicode="&#x1fa;" horiz-adv-x="503" 
d="M307 680h5c4 0 6 -2 8 -6l210 -668c1 -4 0 -6 -3 -6h-5c-4 0 -7 2 -8 6l-72 226h-266l-71 -226c-2 -4 -2 -6 -6 -6h-4c-6 0 -7 3 -6 6l210 668c1 4 4 6 8 6zM438 247l-106 339c-2 7 -23 72 -23 72c-5 -20 -15 -53 -20 -69l-108 -342h257zM387 798v-11
c-1 -35 -24 -59 -87 -59c-54 0 -79 27 -83 57c0 4 -1 13 -1 21l-1 12c0 34 21 60 83 61l60 81c2 2 2 4 6 4h7c5 0 6 -3 3 -6l-60 -80c44 -4 68 -30 71 -59c1 -6 2 -12 2 -21zM371 787v11c-1 10 -1 14 -2 20c-3 25 -21 46 -67 46c-52 0 -71 -20 -71 -46l1 -12
c0 -8 1 -17 1 -20c3 -22 20 -43 67 -43c50 0 70 18 71 44z" />
    <glyph glyph-name="Aogonek" unicode="&#x104;" horiz-adv-x="503" 
d="M281 680h5c4 0 6 -2 8 -6l210 -668c1 -4 0 -6 -3 -6h-1c-55 -16 -71 -55 -68 -79c4 -29 27 -45 71 -45h25c4 0 6 -2 7 -6v-3c1 -4 -1 -6 -5 -6h-25c-53 0 -84 19 -89 61c-3 29 14 67 70 89l-70 221h-266l-71 -226c-2 -4 -2 -6 -6 -6h-4c-6 0 -7 3 -6 6l210 668
c1 4 4 6 8 6zM412 247l-106 339c-5 18 -23 72 -23 72s-15 -52 -20 -69l-108 -342h257z" />
    <glyph glyph-name="AE" unicode="&#xc6;" horiz-adv-x="842" 
d="M468 680h338c4 0 5 -2 5 -6l1 -3c0 -4 -2 -6 -6 -6h-331v-297h312c4 0 5 -2 6 -6v-3c1 -4 -2 -6 -6 -6h-312l-1 -338h344c4 0 6 -2 6 -6l1 -3c0 -4 -2 -6 -6 -6h-349c-5 0 -12 0 -12 8l1 224h-238l-130 -226c-3 -4 -5 -6 -9 -6h-4c-4 0 -8 1 -5 6l382 668c2 3 6 6 13 6z
M427 589l-197 -342h229v400c-10 -20 -21 -39 -32 -58z" />
    <glyph glyph-name="AEacute" unicode="&#x1fc;" horiz-adv-x="842" 
d="M480 680h338c4 0 5 -2 6 -6v-3c1 -4 -2 -6 -6 -6h-331v-297h312c4 0 5 -2 6 -6v-3c1 -4 -2 -6 -6 -6h-312v-338h344c4 0 5 -2 5 -6l1 -3c0 -4 -2 -6 -6 -6h-349c-5 0 -12 0 -12 8l1 224h-238l-130 -226c-3 -4 -5 -6 -9 -6h-4c-4 0 -8 1 -5 6l383 668c1 3 5 6 12 6z
M439 589l-197 -342h229v400c-10 -20 -21 -39 -32 -58zM599 872l-83 -125c-1 -1 -2 -3 -6 -3h-7c-3 0 -4 2 -3 5l83 125c2 2 3 4 7 4h7c5 0 5 -3 2 -6z" />
    <glyph glyph-name="Cacute" unicode="&#x106;" horiz-adv-x="537" 
d="M530 188v-65c0 -76 -38 -131 -191 -131c-134 0 -182 44 -189 108c-1 7 -1 15 -1 23v434c-1 76 36 131 189 131c135 0 182 -45 190 -110c1 -7 2 -14 2 -21l-1 -54c1 -4 -1 -6 -5 -6h-4c-4 0 -6 2 -7 6l1 54c0 6 -1 13 -2 19c-7 56 -48 97 -174 97
c-139 0 -174 -50 -173 -116v-434c0 -7 0 -13 1 -20c7 -56 47 -96 172 -96c140 0 176 50 176 116v65c-1 4 1 6 5 6h4c4 0 6 -2 7 -6zM427 872l-84 -125c-1 -1 -1 -3 -5 -3h-7c-3 0 -5 2 -3 5l83 125c1 2 2 4 6 4h7c5 0 5 -3 3 -6z" />
    <glyph glyph-name="Ccircumflex" unicode="&#x108;" horiz-adv-x="537" 
d="M530 188v-65c0 -76 -38 -131 -191 -131c-134 0 -182 44 -189 108c-1 7 -1 15 -1 23v434c-1 76 36 131 189 131c135 0 182 -45 190 -110c1 -7 2 -14 2 -21l-1 -54c1 -4 -1 -6 -5 -6h-4c-4 0 -6 2 -7 6l1 54c0 6 -1 13 -2 19c-7 56 -48 97 -174 97
c-139 0 -174 -50 -173 -116v-434c0 -7 0 -13 1 -20c7 -56 47 -96 172 -96c140 0 176 50 176 116v65c-1 4 1 6 5 6h4c4 0 6 -2 7 -6zM333 864l-77 -114c-3 -4 -4 -6 -7 -6h-6c-4 0 -6 3 -4 6l80 122c1 3 5 6 9 6h7c4 0 6 -2 9 -5l81 -123c2 -3 2 -6 -2 -6h-4c-3 0 -7 1 -10 6
z" />
    <glyph glyph-name="Ccaron" unicode="&#x10c;" horiz-adv-x="537" 
d="M530 188v-65c0 -76 -38 -131 -191 -131c-134 0 -182 44 -189 108c-1 7 -1 15 -1 23v434c-1 76 36 131 189 131c135 0 182 -45 190 -110c1 -7 2 -14 2 -21l-1 -54c1 -4 -1 -6 -5 -6h-4c-4 0 -6 2 -7 6l1 54c0 6 -1 13 -2 19c-7 56 -48 97 -174 97
c-139 0 -174 -50 -173 -116v-434c0 -7 0 -13 1 -20c7 -56 47 -96 172 -96c140 0 176 50 176 116v65c-1 4 1 6 5 6h4c4 0 6 -2 7 -6zM256 872l76 -114l77 114c3 5 6 6 8 6h6c4 0 5 -3 3 -6l-81 -123c-2 -3 -4 -5 -8 -5h-6c-4 0 -8 3 -10 6l-81 122c-3 3 -1 6 3 6h5
c3 0 5 -2 8 -6z" />
    <glyph glyph-name="Cdotaccent" unicode="&#x10a;" horiz-adv-x="537" 
d="M528 188v-65c0 -76 -38 -131 -191 -131c-134 0 -182 44 -189 108c-1 7 -1 15 -1 23l-1 434c0 76 37 131 190 131c135 0 182 -45 190 -110c1 -7 2 -14 1 -21v-54c1 -4 -1 -6 -5 -6h-4c-4 0 -6 2 -7 6v54c1 6 0 13 -1 19c-7 56 -48 97 -174 97c-139 0 -174 -50 -174 -116
l1 -434c0 -7 0 -13 1 -20c7 -56 47 -96 172 -96c140 0 176 50 176 116v65c-1 4 1 6 5 6h4c4 0 6 -2 7 -6zM345 838v-75c1 -4 -2 -6 -5 -6h-4c-4 0 -7 1 -7 6v75c0 3 1 6 5 6h5c4 0 5 -2 6 -6z" />
    <glyph glyph-name="Ccedilla" unicode="&#xc7;" horiz-adv-x="537" 
d="M287 -56h42c30 0 72 -16 78 -65c9 -74 -43 -90 -78 -90h-121c-4 0 -6 2 -6 6l-1 4c0 4 3 6 7 6h121c25 0 68 12 61 72c-5 40 -39 51 -61 51h-53c-5 0 -9 3 -7 8l16 57c-111 6 -152 48 -159 107c-1 7 -1 15 -1 23l-1 434c0 76 37 131 190 131c135 0 182 -45 190 -110
c1 -7 2 -14 1 -21v-54c1 -4 -1 -6 -5 -6h-4c-4 0 -6 2 -7 6v54c1 6 0 13 -1 19c-7 56 -48 97 -174 97c-139 0 -174 -50 -174 -116l1 -434c0 -7 0 -13 1 -20c7 -56 47 -96 172 -96c140 0 176 50 176 116v65c-1 4 1 6 5 6h4c4 0 6 -2 7 -6v-65c0 -76 -38 -131 -191 -131h-15z
" />
    <glyph glyph-name="Dcaron" unicode="&#x10e;" horiz-adv-x="591" 
d="M354 0h-187c-4 0 -6 2 -6 6v668c0 4 2 6 5 6h188c135 0 185 -46 193 -111c0 -7 1 -13 1 -20v-418c1 -76 -41 -131 -194 -131zM354 665h-177v-650h177c140 0 178 50 178 116v418c0 6 0 12 -1 18c-7 57 -50 98 -177 98zM260 872l76 -114l77 114c4 5 7 6 9 6h6
c4 0 5 -3 2 -6l-81 -123c-1 -3 -4 -5 -8 -5h-6c-4 0 -7 3 -10 6l-81 122c-2 3 0 6 4 6h5c3 0 5 -2 7 -6z" />
    <glyph glyph-name="Dcroat" unicode="&#x110;" horiz-adv-x="591" 
d="M342 0h-187c-4 0 -6 2 -6 6v332h-86c-4 0 -6 2 -6 6v3c-1 4 2 6 6 6h86l-1 321c1 4 3 6 6 6h188c135 0 184 -46 192 -111c1 -7 2 -13 2 -20v-418c0 -76 -41 -131 -194 -131zM342 665h-177l-1 -312h168c4 0 5 -2 6 -6v-3c0 -4 -2 -6 -6 -6h-168v-323h177
c140 0 179 50 179 116v418c0 6 -1 12 -1 18c-7 57 -50 98 -177 98z" />
    <glyph glyph-name="Egrave" unicode="&#xc8;" horiz-adv-x="534" 
d="M521 0h-355c-3 0 -5 2 -5 6v668c0 4 2 6 6 6h341c4 0 5 -2 6 -6v-3c1 -4 -2 -6 -6 -6h-331v-297h312c4 0 5 -2 6 -6v-3c1 -4 -2 -6 -6 -6h-312v-338h344c4 0 5 -2 5 -6l1 -3c0 -4 -2 -6 -6 -6zM321 747l-85 125c-1 2 -1 6 4 6h6c4 0 6 -2 7 -4l81 -125c3 -3 2 -5 -1 -5
h-5c-4 0 -6 1 -7 3z" />
    <glyph glyph-name="Eacute" unicode="&#xc9;" horiz-adv-x="534" 
d="M521 0h-355c-3 0 -5 2 -5 6v668c0 4 2 6 6 6h341c4 0 5 -2 6 -6v-3c1 -4 -2 -6 -6 -6h-331v-297h312c4 0 5 -2 6 -6v-3c1 -4 -2 -6 -6 -6h-312v-338h344c4 0 5 -2 5 -6l1 -3c0 -4 -2 -6 -6 -6zM417 872l-83 -125c-1 -1 -2 -3 -6 -3h-7c-3 0 -4 2 -3 5l83 125c2 2 3 4 7 4
h7c5 0 5 -3 2 -6z" />
    <glyph glyph-name="Ecircumflex" unicode="&#xca;" horiz-adv-x="534" 
d="M521 0h-355c-3 0 -5 2 -5 6v668c0 4 2 6 6 6h341c4 0 5 -2 6 -6v-3c1 -4 -2 -6 -6 -6h-331v-297h312c4 0 5 -2 6 -6v-3c1 -4 -2 -6 -6 -6h-312v-338h344c4 0 5 -2 5 -6l1 -3c0 -4 -2 -6 -6 -6zM333 864l-77 -114c-2 -4 -4 -6 -7 -6h-6c-4 0 -5 3 -4 6l80 122
c2 3 6 6 10 6h7c4 0 6 -2 8 -5l81 -123c3 -3 2 -6 -2 -6h-4c-3 0 -6 1 -10 6z" />
    <glyph glyph-name="Ecaron" unicode="&#x11a;" horiz-adv-x="534" 
d="M521 0h-355c-3 0 -5 2 -5 6v668c0 4 2 6 6 6h341c4 0 5 -2 6 -6v-3c1 -4 -2 -6 -6 -6h-331v-297h312c4 0 5 -2 6 -6v-3c1 -4 -2 -6 -6 -6h-312v-338h344c4 0 5 -2 5 -6l1 -3c0 -4 -2 -6 -6 -6zM250 872l76 -114l77 114c4 5 7 6 9 6h6c4 0 5 -3 2 -6l-81 -123
c-1 -3 -4 -5 -8 -5h-6c-4 0 -7 3 -10 6l-81 122c-2 3 0 6 4 6h5c3 0 5 -2 7 -6z" />
    <glyph glyph-name="Edieresis" unicode="&#xcb;" horiz-adv-x="534" 
d="M521 0h-355c-3 0 -6 2 -6 6v668c0 4 2 6 6 6h341c4 0 5 -2 6 -6v-3c1 -4 -2 -6 -6 -6h-331v-297h312c4 0 6 -2 6 -6l1 -3c0 -4 -3 -6 -7 -6h-312v-338h344c4 0 5 -2 6 -6v-3c0 -4 -1 -6 -5 -6zM308 860v-100c0 -4 -2 -6 -6 -6h-4c-4 0 -5 2 -6 6v100c1 4 2 6 6 6h4
c4 0 6 -2 6 -6zM387 860v-100c0 -4 -2 -6 -6 -6h-4c-4 0 -5 2 -6 6v100c1 4 2 6 6 6h4c4 0 6 -2 6 -6z" />
    <glyph glyph-name="Emacron" unicode="&#x112;" horiz-adv-x="534" 
d="M517 0h-355c-3 0 -5 2 -6 6v668c1 4 3 6 7 6h341c4 0 5 -2 5 -6l1 -3c0 -4 -3 -6 -7 -6h-331l1 -297h312c4 0 5 -2 6 -6v-3c0 -4 -2 -6 -6 -6h-312l-1 -338h344c4 0 5 -2 6 -6v-3c1 -4 -1 -6 -5 -6zM184 807h268c4 0 6 -2 7 -5v-4c1 -4 -2 -6 -6 -6h-268c-4 0 -6 2 -7 6
v3c-1 4 2 6 6 6z" />
    <glyph glyph-name="Ebreve" unicode="&#x114;" horiz-adv-x="534" 
d="M521 0h-355c-3 0 -5 2 -5 6v668c0 4 2 6 6 6h341c4 0 5 -2 6 -6v-3c1 -4 -2 -6 -6 -6h-331v-297h312c4 0 5 -2 6 -6v-3c1 -4 -2 -6 -6 -6h-312v-338h344c4 0 5 -2 5 -6l1 -3c0 -4 -2 -6 -6 -6zM240 872l2 -26c0 -10 0 -14 1 -18c5 -41 24 -62 86 -62c77 0 85 39 84 94
l-1 12c0 5 2 6 7 6h4c4 0 5 -3 5 -6l1 -12c1 -65 -10 -109 -100 -109c-70 0 -96 26 -102 77c-1 6 -1 7 -1 18l-2 26c0 4 3 6 7 6h4c3 0 5 -1 5 -6z" />
    <glyph glyph-name="Edotaccent" unicode="&#x116;" horiz-adv-x="534" 
d="M519 0h-355c-3 0 -5 2 -5 6v668c0 4 2 6 6 6h341c4 0 5 -2 6 -6v-3c0 -4 -2 -6 -6 -6h-331v-297h312c4 0 5 -2 6 -6v-3c1 -4 -2 -6 -6 -6h-312l-1 -338h344c4 0 6 -2 6 -6l1 -3c0 -4 -2 -6 -6 -6zM333 838l1 -75c0 -4 -3 -6 -6 -6h-4c-4 0 -7 1 -6 6l-1 75c0 3 2 6 6 6h5
c4 0 5 -2 5 -6z" />
    <glyph glyph-name="Eogonek" unicode="&#x118;" horiz-adv-x="534" 
d="M501 0h-21c-59 0 -81 -40 -77 -74c3 -29 27 -50 71 -50h28c4 0 6 -2 7 -6v-3c1 -4 -1 -6 -5 -6h-28c-53 0 -84 24 -89 66c-4 33 14 60 39 73h-280c-3 0 -6 2 -6 6v668c0 4 2 6 6 6h341c4 0 5 -2 6 -6v-3c1 -4 -2 -6 -6 -6h-331l1 -297h312c4 0 5 -2 5 -6l1 -3
c0 -4 -3 -6 -7 -6h-312v-338h344c4 0 5 -2 6 -6v-3c0 -4 -1 -6 -5 -6z" />
    <glyph glyph-name="Gcircumflex" unicode="&#x11c;" horiz-adv-x="555" 
d="M350 301h174c4 0 5 -2 6 -6v-172c0 -76 -38 -131 -191 -131c-134 0 -182 44 -189 108c-1 7 -1 15 -1 23v434c-1 76 36 131 189 131c135 0 182 -45 190 -110c1 -7 2 -14 2 -21l-1 -54c1 -4 -1 -6 -5 -6h-4c-4 0 -6 2 -7 6l1 54c0 6 -1 13 -2 19c-7 56 -48 97 -174 97
c-139 0 -174 -50 -173 -116v-434c0 -7 0 -13 1 -20c7 -56 47 -96 172 -96c139 0 175 49 175 114l1 165h-163c-4 0 -6 2 -7 6v3c-1 4 2 6 6 6zM339 864l-77 -114c-3 -4 -4 -6 -7 -6h-6c-4 0 -6 3 -4 6l80 122c1 3 5 6 9 6h7c4 0 6 -2 9 -5l81 -123c2 -3 2 -6 -2 -6h-4
c-3 0 -7 1 -10 6z" />
    <glyph glyph-name="Gbreve" unicode="&#x11e;" horiz-adv-x="555" 
d="M350 301h174c4 0 5 -2 6 -6v-172c0 -76 -38 -131 -191 -131c-134 0 -182 44 -189 108c-1 7 -1 15 -1 23v434c-1 76 36 131 189 131c135 0 182 -45 190 -110c1 -7 2 -14 2 -21l-1 -54c1 -4 -1 -6 -5 -6h-4c-4 0 -6 2 -7 6l1 54c0 6 -1 13 -2 19c-7 56 -48 97 -174 97
c-139 0 -174 -50 -173 -116v-434c0 -7 0 -13 1 -20c7 -56 47 -96 172 -96c139 0 175 49 175 114l1 165h-163c-4 0 -6 2 -7 6v3c-1 4 2 6 6 6zM241 872l1 -26c0 -10 1 -14 1 -18c5 -41 25 -62 87 -62c77 0 84 39 83 94v12c-1 5 1 6 6 6h4c4 0 5 -3 6 -6v-12
c1 -65 -9 -109 -99 -109c-70 0 -96 26 -103 77c0 6 -1 7 -1 18l-1 26c-1 4 2 6 6 6h4c3 0 5 -1 6 -6z" />
    <glyph glyph-name="Gdotaccent" unicode="&#x120;" horiz-adv-x="555" 
d="M348 300h174c4 0 5 -2 6 -6v-172c0 -76 -38 -131 -191 -131c-134 0 -182 44 -189 108c-1 7 -1 15 -1 23l-1 434c0 76 37 131 190 131c135 0 182 -45 190 -110c1 -7 2 -14 1 -21v-54c1 -4 -1 -6 -5 -6h-4c-4 0 -6 2 -7 6v54c1 6 0 13 -1 19c-7 56 -48 97 -174 97
c-139 0 -174 -50 -174 -116l1 -434c0 -7 0 -13 1 -20c7 -56 47 -96 172 -96c139 0 175 49 175 114l1 165h-163c-4 0 -7 2 -7 6v3c-1 4 2 6 6 6zM328 837v-75c1 -4 -2 -6 -5 -6h-4c-4 0 -7 1 -7 6v75c0 3 1 6 5 6h5c4 0 5 -2 6 -6z" />
    <glyph glyph-name="Gcommaaccent" unicode="&#x122;" horiz-adv-x="555" 
d="M327 301h174c4 0 5 -2 6 -6v-172c0 -76 -38 -131 -191 -131c-134 0 -181 44 -189 108c-1 7 -1 15 -1 23v434c-1 76 37 131 190 131c135 0 181 -45 189 -110c1 -7 2 -14 2 -21l-1 -54c1 -4 -1 -6 -5 -6h-4c-4 0 -6 2 -7 6l1 54c0 6 -1 13 -2 19c-7 56 -48 97 -174 97
c-139 0 -173 -50 -173 -116v-434c0 -7 1 -13 1 -20c7 -56 47 -96 172 -96c139 0 175 49 175 114l1 165h-163c-4 0 -6 2 -7 6v3c-1 4 2 6 6 6zM313 -81v25c-1 4 2 6 6 6h4c4 0 5 -2 6 -6v-25c0 -44 -17 -75 -33 -105c-2 -3 -4 -5 -8 -3l-4 2c-2 1 -4 3 -2 8
c19 38 31 59 31 98z" />
    <glyph glyph-name="Hcircumflex" unicode="&#x124;" horiz-adv-x="603" 
d="M177 674v-297h355v297c-1 4 2 6 6 6h4c4 0 6 -2 6 -6v-668c0 -4 -2 -6 -6 -6h-4c-4 0 -6 2 -6 6v356h-355v-356c0 -4 -2 -6 -6 -6h-4c-4 0 -6 2 -6 6v668c0 4 2 6 6 6h4c4 0 5 -2 6 -6zM350 864l-77 -114c-2 -4 -4 -6 -7 -6h-6c-4 0 -5 3 -4 6l80 122c2 3 6 6 10 6h7
c4 0 6 -2 8 -5l81 -123c3 -3 2 -6 -2 -6h-4c-3 0 -6 1 -10 6z" />
    <glyph glyph-name="Hbar" unicode="&#x126;" horiz-adv-x="603" 
d="M164 674v-146h355v146c0 4 3 6 7 6h4c4 0 6 -2 5 -6v-146h42c4 0 7 -2 7 -6l1 -3c0 -4 -2 -6 -6 -6h-44l1 -507c0 -4 -2 -6 -6 -6h-4c-4 0 -6 2 -6 6v356h-355v-356c0 -4 -2 -6 -6 -6h-4c-4 0 -6 2 -6 6l-1 507h-38c-4 0 -6 2 -6 6l-1 3c0 4 1 6 5 6h40v146c1 4 3 6 7 6
h4c4 0 5 -2 5 -6zM165 377h355l-1 136h-355z" />
    <glyph glyph-name="Igrave" unicode="&#xcc;" horiz-adv-x="232" 
d="M177 674v-668c0 -4 -2 -6 -6 -6h-4c-4 0 -6 2 -6 6v668c0 4 2 6 6 6h4c4 0 6 -2 6 -6zM157 747l-85 125c-1 2 -1 6 4 6h6c4 0 6 -2 7 -4l81 -125c3 -3 2 -5 -1 -5h-5c-4 0 -6 1 -7 3z" />
    <glyph glyph-name="Iacute" unicode="&#xcd;" horiz-adv-x="232" 
d="M177 674v-668c0 -4 -2 -6 -6 -6h-4c-4 0 -6 2 -6 6v668c0 4 2 6 6 6h4c4 0 6 -2 6 -6zM259 872l-83 -125c-1 -1 -2 -3 -6 -3h-7c-3 0 -4 2 -3 5l83 125c2 2 3 4 7 4h7c5 0 5 -3 2 -6z" />
    <glyph glyph-name="Icircumflex" unicode="&#xce;" horiz-adv-x="232" 
d="M177 674v-668c0 -4 -2 -6 -6 -6h-4c-4 0 -6 2 -6 6v668c0 4 2 6 6 6h4c4 0 6 -2 6 -6zM166 864l-77 -114c-2 -4 -4 -6 -7 -6h-6c-4 0 -5 3 -4 6l80 122c2 3 6 6 10 6h7c4 0 6 -2 8 -5l81 -123c3 -3 2 -6 -2 -6h-4c-3 0 -6 1 -10 6z" />
    <glyph glyph-name="Itilde" unicode="&#x128;" horiz-adv-x="232" 
d="M176 674v-668c0 -4 -2 -6 -6 -6h-4c-4 0 -6 2 -6 6v668c0 4 2 6 6 6h4c4 0 6 -2 6 -6zM103 848c-30 0 -40 -15 -38 -68v-10c0 -4 -2 -6 -6 -6h-4c-4 0 -6 2 -6 6v10c0 65 17 83 53 83c14 0 33 -8 48 -24l44 -43c9 -9 22 -17 34 -17c30 0 38 13 38 68v10c0 4 3 6 7 6h4
c4 0 5 -2 5 -6v-10c0 -65 -17 -83 -52 -83c-14 0 -32 8 -49 24l-43 42c-11 9 -23 18 -35 18z" />
    <glyph glyph-name="Idieresis" unicode="&#xcf;" horiz-adv-x="232" 
d="M176 674v-668c0 -4 -1 -6 -5 -6h-4c-4 0 -7 2 -7 6v668c0 4 2 6 6 6h4c4 0 6 -2 6 -6zM137 860v-100c0 -4 -2 -6 -6 -6h-4c-4 0 -5 2 -6 6v100c1 4 2 6 6 6h4c4 0 6 -2 6 -6zM216 860v-100c0 -4 -2 -6 -6 -6h-4c-4 0 -5 2 -6 6v100c1 4 2 6 6 6h4c4 0 6 -2 6 -6z" />
    <glyph glyph-name="Imacron" unicode="&#x12a;" horiz-adv-x="232" 
d="M172 674v-668c1 -4 -1 -6 -5 -6h-4c-4 0 -6 2 -7 6v668c1 4 3 6 7 6h4c4 0 6 -2 5 -6zM28 807h268c4 0 6 -2 7 -5v-4c1 -4 -2 -6 -6 -6h-268c-4 0 -6 2 -7 6v3c-1 4 2 6 6 6z" />
    <glyph glyph-name="Ibreve" unicode="&#x12c;" horiz-adv-x="232" 
d="M177 674v-668c0 -4 -2 -6 -6 -6h-4c-4 0 -6 2 -6 6v668c0 4 2 6 6 6h4c4 0 6 -2 6 -6zM77 872l2 -26c0 -10 0 -14 1 -18c5 -41 24 -62 86 -62c77 0 85 39 84 94l-1 12c0 5 2 6 7 6h4c4 0 5 -3 5 -6l1 -12c1 -65 -10 -109 -100 -109c-70 0 -96 26 -102 77c-1 6 -1 7 -1 18
l-2 26c0 4 3 6 7 6h4c3 0 5 -1 5 -6z" />
    <glyph glyph-name="Idotaccent" unicode="&#x130;" horiz-adv-x="232" 
d="M175 674v-668c0 -4 -2 -6 -6 -6h-4c-4 0 -6 2 -6 6v668c0 4 2 6 6 6h4c4 0 6 -2 6 -6zM175 838l1 -75c0 -4 -3 -6 -6 -6h-4c-4 0 -7 1 -6 6l-1 75c0 3 2 6 6 6h5c4 0 5 -2 5 -6z" />
    <glyph glyph-name="Iogonek" unicode="&#x12e;" horiz-adv-x="232" 
d="M156 674v-668c0 -4 -1 -6 -5 -6h-1c-55 -16 -71 -55 -68 -79c4 -29 27 -45 71 -45h18c4 0 6 -2 7 -6v-3c1 -4 -1 -6 -5 -6h-18c-53 0 -84 19 -89 61s30 77 74 90v662c0 4 2 6 6 6h4c4 0 6 -2 6 -6z" />
    <glyph glyph-name="IJ" unicode="&#x132;" horiz-adv-x="713" 
d="M164 674v-668c1 -4 -1 -6 -5 -6h-4c-4 0 -6 2 -7 6v668c1 4 2 6 6 6h4c4 0 7 -2 6 -6zM331 155v-32c0 -8 0 -16 1 -24c6 -54 40 -92 151 -92c126 0 153 50 153 116v551c0 4 1 6 5 6h4c4 0 7 -2 7 -6v-551c0 -76 -30 -131 -169 -131c-119 0 -160 43 -167 106
c-1 8 -1 16 -1 25v32c-1 4 2 6 6 6h4c4 0 5 -2 6 -6z" />
    <glyph glyph-name="Jcircumflex" unicode="&#x134;" horiz-adv-x="481" 
d="M111 155v-32c0 -8 0 -16 1 -24c6 -54 40 -92 151 -92c126 0 153 50 153 116v551c0 4 1 6 5 6h4c4 0 7 -2 7 -6v-551c0 -76 -30 -131 -169 -131c-119 0 -159 43 -167 106c-1 8 -1 16 -1 25v32c-1 4 2 6 6 6h4c4 0 5 -2 6 -6zM417 864l-77 -114c-3 -4 -4 -6 -7 -6h-6
c-4 0 -6 3 -4 6l80 122c1 3 5 6 9 6h7c4 0 6 -2 9 -5l81 -123c2 -3 2 -6 -2 -6h-4c-3 0 -7 1 -10 6z" />
    <glyph glyph-name="Kcommaaccent" unicode="&#x136;" horiz-adv-x="519" 
d="M210 344l313 -338c2 -3 1 -6 -2 -6h-5c-5 0 -9 2 -13 6l-306 329h-44v-329c0 -4 -1 -6 -5 -6h-4c-4 0 -7 2 -7 6v668c0 4 2 6 6 6h4c4 0 6 -2 6 -6l1 -324h41l278 325c2 3 6 5 10 5h7c4 0 6 -2 3 -6zM284 -81v25c0 4 3 6 7 6h4c4 0 5 -2 5 -6v-25c1 -44 -16 -75 -33 -105
c-1 -3 -3 -5 -7 -3l-5 2c-2 1 -4 3 -2 8c20 38 31 59 31 98z" />
    <glyph glyph-name="Lacute" unicode="&#x139;" horiz-adv-x="501" 
d="M177 674v-659h329c4 0 5 -2 5 -6l1 -3c0 -4 -2 -6 -6 -6h-340c-3 0 -5 2 -5 6v668c0 4 2 6 6 6h4c4 0 6 -2 6 -6zM260 872l-83 -125c-1 -1 -2 -3 -6 -3h-7c-3 0 -4 2 -3 5l83 125c2 2 3 4 7 4h7c5 0 5 -3 2 -6z" />
    <glyph glyph-name="Lcaron" unicode="&#x13d;" horiz-adv-x="501" 
d="M164 674v-659h329c4 0 6 -2 6 -6l1 -3c0 -4 -2 -6 -6 -6h-340c-3 0 -5 2 -5 6l-1 668c1 4 3 6 7 6h4c4 0 6 -2 5 -6zM363 649l-1 25c0 4 3 6 7 6h4c4 0 5 -2 5 -6l1 -25c0 -44 -17 -75 -34 -105c-1 -3 -3 -5 -7 -3l-4 2c-3 1 -5 3 -2 8c19 38 30 59 31 98z" />
    <glyph glyph-name="Lcommaaccent" unicode="&#x13b;" horiz-adv-x="501" 
d="M153 674v-659h329c4 0 5 -2 5 -6l1 -3c0 -4 -1 -6 -5 -6h-340c-3 0 -6 2 -6 6v668c0 4 2 6 6 6h4c4 0 6 -2 6 -6zM299 -81v25c0 4 3 6 7 6h4c4 0 5 -2 5 -6v-25c1 -44 -16 -75 -33 -105c-1 -3 -3 -5 -7 -3l-5 2c-2 1 -4 3 -2 8c20 38 31 59 31 98z" />
    <glyph glyph-name="Ldot" unicode="&#x13f;" horiz-adv-x="501" 
d="M164 674v-659h329c4 0 6 -2 6 -6l1 -3c0 -4 -2 -6 -6 -6h-340c-3 0 -5 2 -5 6l-1 668c1 4 3 6 7 6h4c4 0 6 -2 5 -6zM407 392v-75c1 -4 -2 -6 -5 -6h-4c-4 0 -7 1 -7 6v75c0 3 1 6 5 6h5c4 0 6 -2 6 -6z" />
    <glyph glyph-name="Lslash" unicode="&#x141;" horiz-adv-x="501" 
d="M164 674v-324l78 32c3 1 5 0 7 -2l2 -5c2 -3 -1 -6 -4 -7l-83 -35v-318h329c4 0 6 -2 6 -6l1 -3c0 -4 -2 -6 -6 -6h-340c-3 0 -5 2 -5 6l-1 321l-74 -31c-3 -1 -6 -1 -7 3l-2 3c-1 4 0 7 3 8l80 33v331c1 4 3 6 7 6h4c4 0 6 -2 5 -6z" />
    <glyph glyph-name="Nacute" unicode="&#x143;" horiz-adv-x="602" 
d="M546 674v-668c0 -4 -2 -6 -6 -6h-2c-3 0 -5 1 -6 3l-328 590c-8 13 -20 37 -28 52v-639c0 -4 -2 -6 -6 -6h-3c-4 0 -6 2 -6 6v668c0 4 2 6 6 6h1c3 0 4 -1 5 -3l330 -590c5 -11 25 -47 28 -51v638c0 4 2 6 6 6h3c4 0 6 -2 6 -6zM446 872l-83 -125c-1 -1 -2 -3 -6 -3h-7
c-3 0 -4 2 -3 5l83 125c2 2 3 4 7 4h7c5 0 5 -3 2 -6z" />
    <glyph glyph-name="Ncaron" unicode="&#x147;" horiz-adv-x="602" 
d="M546 674v-668c0 -4 -2 -6 -6 -6h-2c-3 0 -5 1 -6 3l-328 590c-8 13 -20 37 -28 52v-639c0 -4 -2 -6 -6 -6h-3c-4 0 -6 2 -6 6v668c0 4 2 6 6 6h1c3 0 4 -1 5 -3l330 -590c5 -11 25 -47 28 -51v638c0 4 2 6 6 6h3c4 0 6 -2 6 -6zM268 872l76 -114l77 114c4 5 7 6 9 6h6
c4 0 5 -3 2 -6l-81 -123c-1 -3 -4 -5 -8 -5h-6c-4 0 -7 3 -10 6l-81 122c-2 3 0 6 4 6h5c3 0 5 -2 7 -6z" />
    <glyph glyph-name="Ntilde" unicode="&#xd1;" horiz-adv-x="602" 
d="M545 674v-668c0 -4 -2 -6 -6 -6h-2c-3 0 -5 1 -6 3l-328 590c-8 13 -20 37 -28 52v-639c0 -4 -2 -6 -6 -6h-3c-4 0 -6 2 -6 6v668c0 4 2 6 6 6h1c3 0 4 -1 5 -3l330 -590c6 -11 28 -51 28 -51v638c0 4 2 6 6 6h3c4 0 6 -2 6 -6zM286 848c-30 0 -40 -15 -38 -68v-10
c0 -4 -2 -6 -6 -6h-4c-4 0 -6 2 -6 6v10c0 65 17 83 53 83c14 0 33 -8 48 -24l44 -43c9 -9 22 -17 34 -17c30 0 38 13 38 68v10c0 4 3 6 7 6h4c4 0 5 -2 5 -6v-10c0 -65 -17 -83 -52 -83c-14 0 -32 8 -49 24l-43 42c-11 9 -23 18 -35 18z" />
    <glyph glyph-name="Ncommaaccent" unicode="&#x145;" horiz-adv-x="602" 
d="M522 674v-668c0 -4 -1 -6 -5 -6h-2c-3 0 -6 1 -7 3l-328 590c-8 13 -20 37 -28 52v-639c0 -4 -1 -6 -5 -6h-3c-4 0 -7 2 -7 6v668c0 4 2 6 6 6h1c3 0 4 -1 5 -3l330 -590c6 -11 28 -51 28 -51v638c0 4 2 6 6 6h3c4 0 6 -2 6 -6zM323 -81v25c0 4 3 6 7 6h4c4 0 5 -2 5 -6
v-25c1 -44 -16 -75 -33 -105c-1 -3 -3 -5 -7 -3l-5 2c-2 1 -4 3 -2 8c20 38 31 59 31 98z" />
    <glyph glyph-name="Ograve" unicode="&#xd2;" horiz-adv-x="579" 
d="M149 123v434c-1 76 39 131 192 131c135 0 185 -46 193 -111c1 -7 2 -13 2 -20v-434c0 -76 -41 -131 -194 -131c-135 0 -185 45 -192 109c-1 7 -1 14 -1 22zM520 123v434c0 6 -1 12 -2 18c-7 57 -50 98 -177 98c-139 0 -177 -50 -176 -116v-434c0 -6 0 -12 1 -18
c7 -57 49 -98 175 -98c140 0 179 50 179 116zM334 747l-84 125c-1 2 -2 6 3 6h6c4 0 6 -2 8 -4l81 -125c2 -3 2 -5 -1 -5h-5c-4 0 -7 1 -8 3z" />
    <glyph glyph-name="Oacute" unicode="&#xd3;" horiz-adv-x="579" 
d="M149 123v434c-1 76 39 131 192 131c135 0 185 -46 193 -111c1 -7 2 -13 2 -20v-434c0 -76 -41 -131 -194 -131c-135 0 -185 45 -192 109c-1 7 -1 14 -1 22zM520 123v434c0 6 -1 12 -2 18c-7 57 -50 98 -177 98c-139 0 -177 -50 -176 -116v-434c0 -6 0 -12 1 -18
c7 -57 49 -98 175 -98c140 0 179 50 179 116zM431 872l-84 -125c-1 -1 -1 -3 -5 -3h-7c-3 0 -5 2 -3 5l83 125c1 2 2 4 6 4h7c5 0 5 -3 3 -6z" />
    <glyph glyph-name="Ocircumflex" unicode="&#xd4;" horiz-adv-x="579" 
d="M149 123v434c-1 76 39 131 192 131c135 0 185 -46 193 -111c1 -7 2 -13 2 -20v-434c0 -76 -41 -131 -194 -131c-135 0 -185 45 -192 109c-1 7 -1 14 -1 22zM520 123v434c0 6 -1 12 -2 18c-7 57 -50 98 -177 98c-139 0 -177 -50 -176 -116v-434c0 -6 0 -12 1 -18
c7 -57 49 -98 175 -98c140 0 179 50 179 116zM337 864l-77 -114c-3 -4 -4 -6 -7 -6h-6c-4 0 -6 3 -4 6l80 122c1 3 5 6 9 6h7c4 0 6 -2 9 -5l81 -123c2 -3 2 -6 -2 -6h-4c-3 0 -7 1 -10 6z" />
    <glyph glyph-name="Otilde" unicode="&#xd5;" horiz-adv-x="579" 
d="M148 123v434c-1 76 40 131 193 131c135 0 184 -46 192 -111c1 -7 2 -13 2 -20v-434c0 -76 -41 -131 -194 -131c-135 0 -185 45 -192 109c-1 7 -1 14 -1 22zM519 123v434c0 6 -1 12 -2 18c-7 57 -50 98 -177 98c-139 0 -177 -50 -176 -116v-434c0 -6 0 -12 1 -18
c7 -57 49 -98 175 -98c140 0 179 50 179 116zM276 848c-30 0 -40 -15 -39 -68v-10c1 -4 -2 -6 -6 -6h-4c-4 0 -5 2 -6 6v10c0 65 17 83 53 83c14 0 33 -8 49 -24l43 -43c9 -9 22 -17 34 -17c30 0 39 13 39 68v10c-1 4 2 6 6 6h4c4 0 5 -2 6 -6v-10c0 -65 -18 -83 -53 -83
c-14 0 -32 8 -49 24l-43 42c-10 9 -22 18 -34 18z" />
    <glyph glyph-name="Odieresis" unicode="&#xd6;" horiz-adv-x="579" 
d="M148 123v434c-1 76 40 131 193 131c135 0 184 -46 192 -111c1 -7 2 -13 2 -20v-434c0 -76 -41 -131 -194 -131c-135 0 -184 45 -192 109c-1 7 -1 14 -1 22zM519 123v434c0 6 -1 12 -1 18c-7 57 -50 98 -177 98c-139 0 -177 -50 -177 -116v-434c0 -6 1 -12 1 -18
c7 -57 49 -98 175 -98c140 0 179 50 179 116zM307 860v-100c-1 -4 -2 -6 -6 -6h-4c-4 0 -6 2 -6 6v100c0 4 2 6 6 6h4c4 0 5 -2 6 -6zM386 860v-100c-1 -4 -2 -6 -6 -6h-4c-4 0 -6 2 -6 6v100c0 4 2 6 6 6h4c4 0 5 -2 6 -6z" />
    <glyph glyph-name="Omacron" unicode="&#x14c;" horiz-adv-x="579" 
d="M144 123v434c0 76 40 131 193 131c135 0 185 -46 193 -111c1 -7 1 -13 1 -20v-434c1 -76 -40 -131 -193 -131c-135 0 -185 45 -193 109c-1 7 -1 14 -1 22zM515 123v434c0 6 0 12 -1 18c-7 57 -50 98 -177 98c-139 0 -177 -50 -177 -116v-434c0 -6 1 -12 2 -18
c7 -57 49 -98 175 -98c140 0 179 50 178 116zM200 807h268c4 0 7 -2 7 -5l1 -4c0 -4 -3 -6 -7 -6h-268c-4 0 -6 2 -6 6l-1 3c0 4 2 6 6 6z" />
    <glyph glyph-name="Obreve" unicode="&#x14e;" horiz-adv-x="579" 
d="M149 123v434c-1 76 39 131 192 131c135 0 185 -46 193 -111c1 -7 2 -13 2 -20v-434c0 -76 -41 -131 -194 -131c-135 0 -185 45 -192 109c-1 7 -1 14 -1 22zM520 123v434c0 6 -1 12 -2 18c-7 57 -50 98 -177 98c-139 0 -177 -50 -176 -116v-434c0 -6 0 -12 1 -18
c7 -57 49 -98 175 -98c140 0 179 50 179 116zM260 872l1 -26c0 -10 1 -14 1 -18c5 -41 25 -62 87 -62c77 0 84 39 83 94v12c-1 5 1 6 6 6h4c4 0 5 -3 6 -6v-12c1 -65 -9 -109 -99 -109c-70 0 -96 26 -103 77c0 6 -1 7 -1 18l-1 26c-1 4 2 6 6 6h4c3 0 5 -1 6 -6z" />
    <glyph glyph-name="Ohungarumlaut" unicode="&#x150;" horiz-adv-x="579" 
d="M149 123v434c-1 76 39 131 192 131c135 0 185 -46 193 -111c1 -7 2 -13 2 -20v-434c0 -76 -41 -131 -194 -131c-135 0 -185 45 -192 109c-1 7 -1 14 -1 22zM520 123v434c0 6 -1 12 -2 18c-7 57 -50 98 -177 98c-139 0 -177 -50 -176 -116v-434c0 -6 0 -12 1 -18
c7 -57 49 -98 175 -98c140 0 179 50 179 116zM465 872l-83 -124c-3 -3 -5 -4 -7 -4h-5c-4 0 -5 3 -3 6l80 122c1 3 5 6 9 6h6c5 0 4 -3 3 -6zM388 872l-68 -122c-3 -4 -5 -6 -8 -6h-4c-4 0 -4 4 -3 6l66 122c1 3 4 6 8 6h5c5 0 5 -3 4 -6z" />
    <glyph glyph-name="Oslash" unicode="&#xd8;" horiz-adv-x="579" 
d="M137 123v434c0 76 40 131 193 131c63 0 108 -10 138 -28l17 36c1 3 4 6 8 6h6c4 0 5 -3 4 -6l-22 -45c26 -19 38 -45 41 -74c1 -7 2 -13 2 -20v-434c0 -76 -41 -131 -194 -131c-64 0 -108 10 -138 27l-15 -33c-2 -5 -4 -8 -8 -8h-7c-4 0 -5 3 -3 8l19 42
c-25 19 -37 44 -40 73c-1 7 -1 14 -1 22zM508 123v434c0 6 -1 12 -1 18c-3 24 -13 45 -32 61l-277 -603c27 -17 69 -26 131 -26c140 0 179 50 179 116zM154 105c3 -24 12 -45 31 -62l277 603c-28 17 -69 27 -132 27c-139 0 -177 -50 -177 -116v-434c0 -6 1 -12 1 -18z" />
    <glyph glyph-name="Oslashacute" unicode="&#x1fe;" horiz-adv-x="579" 
d="M148 123v434c-1 76 40 131 193 131c63 0 108 -10 138 -28l17 36c1 3 4 6 8 6h6c4 0 5 -3 4 -6l-22 -45c25 -19 38 -45 41 -74c1 -7 2 -13 2 -20v-434c0 -76 -41 -131 -194 -131c-64 0 -108 10 -138 27l-15 -33c-3 -5 -4 -8 -8 -8h-7c-4 0 -6 3 -3 8l19 42
c-25 19 -37 44 -40 73c-1 7 -1 14 -1 22zM519 123v434c0 6 -1 12 -2 18c-2 24 -12 45 -31 61l-277 -603c27 -17 69 -26 131 -26c140 0 179 50 179 116zM165 105c3 -24 12 -45 31 -62l277 603c-28 17 -70 27 -133 27c-139 0 -176 -50 -176 -116v-434c0 -6 0 -12 1 -18z
M435 872l-84 -125c-1 -1 -1 -3 -5 -3h-7c-3 0 -5 2 -3 5l83 125c1 2 2 4 6 4h7c5 0 6 -3 3 -6z" />
    <glyph glyph-name="OE" unicode="&#x152;" horiz-adv-x="893" 
d="M137 123v434c0 76 40 131 193 131c100 0 153 -26 177 -66v52c1 4 3 6 7 6h341c4 0 5 -2 5 -6l1 -3c0 -4 -2 -6 -6 -6h-331v-98c0 -3 -1 -7 0 -10l-1 -35l1 -154h311c3 0 6 -1 7 -5v-4c1 -4 -2 -6 -6 -6h-312l-1 -238v-100h344c3 0 6 -2 6 -6l1 -3c0 -4 -2 -6 -6 -6h-355
c-3 0 -5 2 -5 6v47c-24 -38 -76 -61 -178 -61c-135 0 -184 45 -192 109c-1 7 -1 14 -1 22zM507 121v195l1 252l-1 7c-7 57 -50 98 -177 98c-139 0 -177 -50 -177 -116v-434c0 -6 1 -12 1 -18c7 -57 49 -98 175 -98c140 0 178 48 178 114z" />
    <glyph glyph-name="Racute" unicode="&#x154;" horiz-adv-x="582" 
d="M354 292h-177v-286c0 -4 -2 -6 -6 -6h-4c-4 0 -6 2 -6 6v668c0 4 2 6 5 6h188c135 0 185 -49 193 -114c1 -7 2 -13 1 -20l1 -126c0 -66 -31 -113 -138 -125l151 -289c1 -3 1 -6 -5 -6h-4c-6 0 -9 3 -10 6l-149 287c-12 -1 -26 -1 -40 -1zM354 665h-177v-358h177
c139 0 179 47 179 113l-1 126c1 6 0 12 -1 18c-7 57 -50 101 -177 101zM413 872l-83 -125c-1 -1 -2 -3 -6 -3h-7c-3 0 -4 2 -3 5l83 125c2 2 3 4 7 4h7c5 0 5 -3 2 -6z" />
    <glyph glyph-name="Rcaron" unicode="&#x158;" horiz-adv-x="582" 
d="M354 292h-177v-286c0 -4 -2 -6 -6 -6h-4c-4 0 -6 2 -6 6v668c0 4 2 6 5 6h188c135 0 185 -49 193 -114c1 -7 2 -13 1 -20l1 -126c0 -66 -31 -113 -138 -125l151 -289c1 -3 1 -6 -5 -6h-4c-6 0 -9 3 -10 6l-149 287c-12 -1 -26 -1 -40 -1zM354 665h-177v-358h177
c139 0 179 47 179 113l-1 126c1 6 0 12 -1 18c-7 57 -50 101 -177 101zM249 872l76 -114l77 114c4 5 7 6 9 6h6c4 0 5 -3 2 -6l-81 -123c-1 -3 -4 -5 -8 -5h-6c-4 0 -7 3 -10 6l-81 122c-2 3 0 6 4 6h5c3 0 5 -2 7 -6z" />
    <glyph glyph-name="Rcommaaccent" unicode="&#x156;" horiz-adv-x="582" 
d="M330 292h-177v-286c0 -4 -1 -6 -5 -6h-4c-4 0 -7 2 -7 6v668c0 4 2 6 5 6h188c135 0 185 -49 193 -114c1 -7 2 -13 1 -20l1 -126c0 -66 -31 -113 -138 -125l151 -289c1 -3 2 -6 -4 -6h-4c-6 0 -10 3 -11 6l-148 287c-13 -1 -27 -1 -41 -1zM330 665h-177v-358h177
c139 0 179 47 179 113l-1 126c1 6 0 12 -1 18c-7 57 -50 101 -177 101zM315 -81v25c0 4 3 6 7 6h4c4 0 5 -2 5 -6v-25c1 -44 -16 -75 -33 -105c-1 -3 -3 -5 -7 -3l-5 2c-2 1 -4 3 -2 8c20 38 31 59 31 98z" />
    <glyph glyph-name="Sacute" unicode="&#x15a;" horiz-adv-x="559" 
d="M507 504v53c0 7 -1 13 -2 20c-7 56 -46 96 -171 96c-140 0 -173 -50 -172 -116v-51c-1 -5 0 -10 1 -14c5 -48 42 -73 73 -85l199 -77c39 -15 85 -47 92 -102c0 -4 1 -9 1 -14v-91c0 -76 -41 -131 -194 -131c-134 0 -185 45 -192 109c-1 7 -1 14 -1 22v47c0 4 1 6 5 6h4
c4 0 7 -2 7 -6v-47c0 -6 0 -13 1 -19c7 -56 48 -97 175 -97c140 0 179 50 179 116v91c-1 4 0 9 -1 13c-6 49 -46 75 -82 89l-199 77c-34 13 -77 43 -83 98c-1 5 -2 10 -1 15v51c-1 76 34 131 188 131c133 0 179 -45 187 -109c1 -7 2 -15 2 -22v-53c1 -4 -2 -6 -6 -6h-4
c-3 0 -6 1 -6 6zM419 872l-84 -125c-1 -1 -1 -3 -5 -3h-7c-3 0 -5 2 -3 5l83 125c1 2 2 4 6 4h7c5 0 5 -3 3 -6z" />
    <glyph glyph-name="Scircumflex" unicode="&#x15c;" horiz-adv-x="559" 
d="M507 504v53c0 7 -1 13 -2 20c-7 56 -46 96 -171 96c-140 0 -173 -50 -172 -116v-51c-1 -5 0 -10 1 -14c5 -48 42 -73 73 -85l199 -77c39 -15 85 -47 92 -102c0 -4 1 -9 1 -14v-91c0 -76 -41 -131 -194 -131c-134 0 -185 45 -192 109c-1 7 -1 14 -1 22v47c0 4 1 6 5 6h4
c4 0 7 -2 7 -6v-47c0 -6 0 -13 1 -19c7 -56 48 -97 175 -97c140 0 179 50 179 116v91c-1 4 0 9 -1 13c-6 49 -46 75 -82 89l-199 77c-34 13 -77 43 -83 98c-1 5 -2 10 -1 15v51c-1 76 34 131 188 131c133 0 179 -45 187 -109c1 -7 2 -15 2 -22v-53c1 -4 -2 -6 -6 -6h-4
c-3 0 -6 1 -6 6zM325 864l-77 -114c-3 -4 -4 -6 -7 -6h-6c-4 0 -6 3 -4 6l80 122c1 3 5 6 9 6h7c4 0 6 -2 9 -5l81 -123c2 -3 2 -6 -2 -6h-4c-3 0 -7 1 -10 6z" />
    <glyph glyph-name="Scaron" unicode="&#x160;" horiz-adv-x="559" 
d="M507 504v53c0 7 -1 13 -2 20c-7 56 -46 96 -171 96c-140 0 -173 -50 -172 -116v-51c-1 -5 0 -10 1 -14c5 -48 42 -73 73 -85l199 -77c39 -15 85 -47 92 -102c0 -4 1 -9 1 -14v-91c0 -76 -41 -131 -194 -131c-134 0 -185 45 -192 109c-1 7 -1 14 -1 22v47c0 4 1 6 5 6h4
c4 0 7 -2 7 -6v-47c0 -6 0 -13 1 -19c7 -56 48 -97 175 -97c140 0 179 50 179 116v91c-1 4 0 9 -1 13c-6 49 -46 75 -82 89l-199 77c-34 13 -77 43 -83 98c-1 5 -2 10 -1 15v51c-1 76 34 131 188 131c133 0 179 -45 187 -109c1 -7 2 -15 2 -22v-53c1 -4 -2 -6 -6 -6h-4
c-3 0 -6 1 -6 6zM246 872l76 -114l77 114c3 5 6 6 8 6h6c4 0 5 -3 3 -6l-81 -123c-2 -3 -4 -5 -8 -5h-6c-4 0 -8 3 -10 6l-81 122c-3 3 -1 6 3 6h5c3 0 5 -2 8 -6z" />
    <glyph glyph-name="Scedilla" unicode="&#x15e;" horiz-adv-x="559" 
d="M297 -56h42c30 0 72 -16 78 -65c9 -74 -43 -90 -78 -90h-121c-4 0 -6 2 -6 6l-1 4c0 4 3 6 7 6h121c25 0 68 12 61 72c-5 40 -39 51 -61 51h-53c-5 0 -9 3 -7 8l16 56c-123 3 -170 47 -178 109v22v47c-1 4 1 6 5 6h4c4 0 6 -2 7 -6v-47c-1 -6 0 -13 1 -19
c7 -56 48 -97 175 -97c140 0 179 50 179 116v91c-1 4 -1 9 -1 13c-6 49 -46 75 -82 89l-199 77c-34 13 -77 43 -84 98c0 5 -1 10 0 15l-1 51c0 76 35 131 189 131c133 0 179 -45 187 -109c1 -7 2 -15 1 -22l1 -53c0 -4 -2 -6 -6 -6h-4c-3 0 -6 1 -6 6l-1 53c1 7 0 13 -1 20
c-7 56 -46 96 -171 96c-140 0 -173 -50 -173 -116l1 -51c-1 -5 0 -10 0 -14c6 -48 43 -73 74 -85l199 -77c39 -15 85 -47 92 -102c0 -4 1 -9 1 -14v-91c0 -76 -41 -131 -194 -131z" />
    <glyph glyph-name="Scommaaccent" unicode="&#x218;" horiz-adv-x="559" 
d="M484 504v53c0 7 -1 13 -2 20c-7 56 -46 96 -171 96c-140 0 -172 -50 -172 -116v-51c-1 -5 0 -10 1 -14c5 -48 43 -73 73 -85l199 -77c39 -15 85 -47 92 -102c1 -4 1 -9 1 -14v-91c0 -76 -41 -131 -194 -131c-134 0 -185 45 -192 109c-1 7 -1 14 -1 22v47c0 4 1 6 5 6h4
c4 0 7 -2 7 -6v-47c0 -6 1 -13 1 -19c7 -56 48 -97 175 -97c140 0 179 50 179 116v91c-1 4 0 9 -1 13c-6 49 -46 75 -82 89l-199 77c-34 13 -77 43 -83 98c-1 5 -2 10 -1 15v51c-1 76 35 131 189 131c133 0 178 -45 186 -109c1 -7 2 -15 2 -22v-53c1 -4 -2 -6 -6 -6h-4
c-3 0 -6 1 -6 6zM315 -81v25c-1 4 2 6 6 6h4c4 0 5 -2 6 -6v-25c0 -44 -17 -75 -33 -105c-2 -3 -4 -5 -8 -3l-4 2c-2 1 -4 3 -2 8c19 38 31 59 31 98z" />
    <glyph glyph-name="Tcaron" unicode="&#x164;" horiz-adv-x="474" 
d="M82 680h413c4 0 6 -2 7 -6v-3c1 -4 -2 -6 -6 -6h-199v-659c0 -4 -2 -6 -6 -6h-4c-4 0 -6 2 -6 6v659h-198c-4 0 -6 2 -7 6v3c-1 4 2 6 6 6zM209 872l76 -114l77 114c4 5 7 6 9 6h6c4 0 5 -3 2 -6l-81 -123c-1 -3 -4 -5 -8 -5h-6c-4 0 -7 3 -10 6l-81 122c-2 3 0 6 4 6h5
c3 0 5 -2 7 -6z" />
    <glyph glyph-name="Tcommaaccent" unicode="&#x162;" horiz-adv-x="474" 
d="M58 680h413c4 0 6 -2 7 -6v-3c1 -4 -2 -6 -6 -6h-199v-659c0 -4 -1 -6 -5 -6h-4c-4 0 -7 2 -7 6v659h-198c-4 0 -6 2 -7 6v3c-1 4 2 6 6 6zM256 -81v25c0 4 3 6 7 6h4c4 0 5 -2 5 -6v-25c1 -44 -16 -75 -33 -105c-1 -3 -3 -5 -7 -3l-5 2c-2 1 -4 3 -2 8
c20 38 31 59 31 98z" />
    <glyph glyph-name="Tbar" unicode="&#x166;" horiz-adv-x="474" 
d="M70 680h413c4 0 6 -2 6 -6l1 -3c0 -4 -2 -6 -6 -6h-199v-197h176c4 0 6 -2 7 -6v-3c0 -4 -1 -6 -5 -6h-178v-447c0 -4 -2 -6 -6 -6h-4c-4 0 -6 2 -6 6v447h-175c-4 0 -7 2 -7 6v3c-1 4 1 6 5 6h177v197h-198c-4 0 -7 2 -7 6l-1 3c0 4 3 6 7 6z" />
    <glyph glyph-name="Ugrave" unicode="&#xd9;" horiz-adv-x="591" 
d="M170 674v-551c0 -6 0 -12 1 -18c7 -57 50 -98 176 -98c140 0 178 50 178 116v551c0 4 1 6 5 6h4c4 0 7 -2 7 -6v-551c0 -76 -40 -131 -194 -131c-135 0 -184 45 -192 111c0 6 -1 13 -1 20v551c0 4 1 6 5 6h4c4 0 7 -2 7 -6zM333 747l-84 125c-1 2 -2 6 3 6h6
c4 0 6 -2 8 -4l81 -125c2 -3 2 -5 -1 -5h-5c-4 0 -7 1 -8 3z" />
    <glyph glyph-name="Uacute" unicode="&#xda;" horiz-adv-x="591" 
d="M170 674v-551c0 -6 0 -12 1 -18c7 -57 50 -98 176 -98c140 0 178 50 178 116v551c0 4 1 6 5 6h4c4 0 7 -2 7 -6v-551c0 -76 -40 -131 -194 -131c-135 0 -184 45 -192 111c0 6 -1 13 -1 20v551c0 4 1 6 5 6h4c4 0 7 -2 7 -6zM433 872l-84 -125c-1 -1 -1 -3 -5 -3h-7
c-3 0 -5 2 -3 5l83 125c1 2 2 4 6 4h7c5 0 5 -3 3 -6z" />
    <glyph glyph-name="Ucircumflex" unicode="&#xdb;" horiz-adv-x="591" 
d="M170 674v-551c0 -6 0 -12 1 -18c7 -57 50 -98 176 -98c140 0 178 50 178 116v551c0 4 1 6 5 6h4c4 0 7 -2 7 -6v-551c0 -76 -40 -131 -194 -131c-135 0 -184 45 -192 111c0 6 -1 13 -1 20v551c0 4 1 6 5 6h4c4 0 7 -2 7 -6zM346 864l-77 -114c-3 -4 -4 -6 -7 -6h-6
c-4 0 -6 3 -4 6l80 122c1 3 5 6 9 6h7c4 0 6 -2 9 -5l81 -123c2 -3 2 -6 -2 -6h-4c-3 0 -7 1 -10 6z" />
    <glyph glyph-name="Utilde" unicode="&#x168;" horiz-adv-x="591" 
d="M169 674v-551c0 -6 0 -12 1 -18c7 -57 50 -98 176 -98c140 0 178 50 178 116v551c0 4 1 6 5 6h4c4 0 7 -2 7 -6v-551c0 -76 -40 -131 -194 -131c-135 0 -184 45 -192 111c0 6 -1 13 -1 20v551c0 4 1 6 5 6h4c4 0 7 -2 7 -6zM279 848c-30 0 -40 -15 -39 -68v-10
c1 -4 -2 -6 -6 -6h-4c-4 0 -5 2 -6 6v10c0 65 17 83 53 83c14 0 33 -8 49 -24l43 -43c9 -9 22 -17 34 -17c30 0 39 13 39 68v10c-1 4 2 6 6 6h4c4 0 5 -2 6 -6v-10c0 -65 -18 -83 -53 -83c-14 0 -32 8 -49 24l-43 42c-10 9 -22 18 -34 18z" />
    <glyph glyph-name="Udieresis" unicode="&#xdc;" horiz-adv-x="591" 
d="M169 674v-551c0 -6 1 -12 1 -18c7 -57 50 -98 176 -98c140 0 178 50 178 116v551c0 4 2 6 6 6h4c4 0 6 -2 6 -6v-551c0 -76 -40 -131 -194 -131c-135 0 -183 45 -191 111c-1 6 -2 13 -2 20v551c0 4 2 6 6 6h4c4 0 6 -2 6 -6zM310 860v-100c-1 -4 -2 -6 -6 -6h-4
c-4 0 -6 2 -6 6v100c0 4 2 6 6 6h4c4 0 5 -2 6 -6zM389 860v-100c-1 -4 -2 -6 -6 -6h-4c-4 0 -6 2 -6 6v100c0 4 2 6 6 6h4c4 0 5 -2 6 -6z" />
    <glyph glyph-name="Umacron" unicode="&#x16a;" horiz-adv-x="591" 
d="M166 674l-1 -551c0 -6 1 -12 2 -18c7 -57 50 -98 176 -98c140 0 178 50 177 116l1 551c-1 4 1 6 5 6h4c4 0 6 -2 7 -6l-1 -551c1 -76 -39 -131 -193 -131c-135 0 -184 45 -192 111c-1 6 -2 13 -2 20l1 551c-1 4 1 6 5 6h4c4 0 6 -2 7 -6zM203 807h268c4 0 7 -2 7 -5l1 -4
c0 -4 -3 -6 -7 -6h-268c-4 0 -6 2 -6 6l-1 3c0 4 2 6 6 6z" />
    <glyph glyph-name="Ubreve" unicode="&#x16c;" horiz-adv-x="591" 
d="M170 674v-551c0 -6 0 -12 1 -18c7 -57 50 -98 176 -98c140 0 178 50 178 116v551c0 4 1 6 5 6h4c4 0 7 -2 7 -6v-551c0 -76 -40 -131 -194 -131c-135 0 -184 45 -192 111c0 6 -1 13 -1 20v551c0 4 1 6 5 6h4c4 0 7 -2 7 -6zM256 872l1 -26c0 -10 1 -14 1 -18
c5 -41 25 -62 87 -62c77 0 84 39 83 94v12c-1 5 1 6 6 6h4c4 0 5 -3 6 -6v-12c1 -65 -9 -109 -99 -109c-70 0 -96 26 -103 77c0 6 -1 7 -1 18l-1 26c-1 4 2 6 6 6h4c3 0 5 -1 6 -6z" />
    <glyph glyph-name="Uring" unicode="&#x16e;" horiz-adv-x="591" 
d="M170 674v-551c0 -6 0 -12 1 -18c7 -57 50 -98 176 -98c140 0 178 50 178 116v551c0 4 1 6 5 6h4c4 0 7 -2 7 -6v-551c0 -76 -40 -131 -194 -131c-135 0 -184 45 -192 111c0 6 -1 13 -1 20v551c0 4 1 6 5 6h4c4 0 7 -2 7 -6zM430 798v-11c0 -35 -23 -59 -86 -59
c-54 0 -80 27 -83 57c-1 4 -2 13 -2 21v12c-1 35 21 61 86 61c53 0 79 -28 83 -60c1 -6 2 -12 2 -21zM414 787v11c0 10 -1 14 -1 20c-4 25 -22 46 -68 46c-52 0 -71 -20 -70 -46v-12c0 -8 1 -17 1 -20c3 -22 21 -43 68 -43c50 0 70 18 70 44z" />
    <glyph glyph-name="Uhungarumlaut" unicode="&#x170;" horiz-adv-x="591" 
d="M170 674v-551c0 -6 0 -12 1 -18c7 -57 50 -98 176 -98c140 0 178 50 178 116v551c0 4 1 6 5 6h4c4 0 7 -2 7 -6v-551c0 -76 -40 -131 -194 -131c-135 0 -184 45 -192 111c0 6 -1 13 -1 20v551c0 4 1 6 5 6h4c4 0 7 -2 7 -6zM467 872l-83 -124c-3 -3 -5 -4 -7 -4h-5
c-4 0 -5 3 -3 6l80 122c1 3 5 6 9 6h6c5 0 4 -3 3 -6zM390 872l-68 -122c-3 -4 -5 -6 -8 -6h-4c-4 0 -4 4 -3 6l66 122c1 3 4 6 8 6h5c5 0 5 -3 4 -6z" />
    <glyph glyph-name="Uogonek" unicode="&#x172;" horiz-adv-x="591" 
d="M150 674v-551c-1 -6 0 -12 1 -18c7 -57 50 -98 176 -98c140 0 178 50 178 116v551c-1 4 1 6 5 6h4c4 0 6 -2 7 -6v-551c0 -35 -9 -66 -33 -88c-20 -20 -73 -51 -67 -106c5 -35 28 -53 76 -53h38c4 0 6 -2 7 -6v-3c1 -4 -1 -6 -5 -6h-38c-55 0 -88 21 -93 67
c-4 31 6 55 23 76c-26 -7 -60 -12 -102 -12c-135 0 -184 45 -192 111c-1 6 -2 13 -1 20v551c-1 4 1 6 5 6h4c4 0 6 -2 7 -6z" />
    <glyph glyph-name="Wgrave" unicode="&#x1e80;" horiz-adv-x="770" 
d="M447 674l149 -582c6 -23 13 -59 15 -62c0 4 9 40 15 62l149 582c1 4 3 6 7 6h5c4 0 6 -1 5 -6l-170 -668c-1 -4 -4 -6 -8 -6h-5c-4 0 -7 2 -8 6l-150 589c-4 17 -13 53 -13 53s-9 -37 -13 -53l-150 -589c-1 -4 -4 -6 -8 -6h-5c-4 0 -7 2 -8 6l-170 668c-2 5 1 6 5 6h4
c4 0 5 -2 7 -6l149 -582c4 -16 15 -64 15 -64s12 47 16 64l149 582c1 4 3 6 7 6h4c4 0 5 -2 7 -6zM422 747l-85 125c-1 2 -1 6 4 6h6c4 0 6 -2 7 -4l81 -125c3 -3 2 -5 -1 -5h-5c-4 0 -6 1 -7 3z" />
    <glyph glyph-name="Wacute" unicode="&#x1e82;" horiz-adv-x="770" 
d="M447 674l149 -582c6 -23 13 -59 15 -62c0 4 9 40 15 62l149 582c1 4 3 6 7 6h5c4 0 6 -1 5 -6l-170 -668c-1 -4 -4 -6 -8 -6h-5c-4 0 -7 2 -8 6l-150 589c-4 17 -13 53 -13 53s-9 -37 -13 -53l-150 -589c-1 -4 -4 -6 -8 -6h-5c-4 0 -7 2 -8 6l-170 668c-2 5 1 6 5 6h4
c4 0 5 -2 7 -6l149 -582c4 -16 15 -64 15 -64s12 47 16 64l149 582c1 4 3 6 7 6h4c4 0 5 -2 7 -6zM527 872l-83 -125c-1 -1 -2 -3 -6 -3h-7c-3 0 -4 2 -3 5l83 125c2 2 3 4 7 4h7c5 0 5 -3 2 -6z" />
    <glyph glyph-name="Wcircumflex" unicode="&#x174;" horiz-adv-x="770" 
d="M447 674l149 -582c6 -23 13 -59 15 -62c0 4 9 40 15 62l149 582c1 4 3 6 7 6h5c4 0 6 -1 5 -6l-170 -668c-1 -4 -4 -6 -8 -6h-5c-4 0 -7 2 -8 6l-150 589c-4 17 -13 53 -13 53s-9 -37 -13 -53l-150 -589c-1 -4 -4 -6 -8 -6h-5c-4 0 -7 2 -8 6l-170 668c-2 5 1 6 5 6h4
c4 0 5 -2 7 -6l149 -582c4 -16 15 -64 15 -64s12 47 16 64l149 582c1 4 3 6 7 6h4c4 0 5 -2 7 -6zM427 864l-77 -114c-2 -4 -4 -6 -7 -6h-6c-4 0 -5 3 -4 6l80 122c2 3 6 6 10 6h7c4 0 6 -2 8 -5l81 -123c3 -3 2 -6 -2 -6h-4c-3 0 -6 1 -10 6z" />
    <glyph glyph-name="Wdieresis" unicode="&#x1e84;" horiz-adv-x="770" 
d="M446 674l149 -582c6 -23 14 -59 15 -62c0 4 9 40 15 62l149 582c1 4 3 6 7 6h5c4 0 6 -1 5 -6l-170 -668c-1 -4 -3 -6 -7 -6h-5c-4 0 -8 2 -9 6l-149 589c-4 17 -14 53 -14 53s-8 -37 -12 -53l-151 -589c-1 -4 -3 -6 -7 -6h-5c-4 0 -8 2 -9 6l-170 668c-2 5 1 6 5 6h4
c4 0 5 -2 7 -6l149 -582c4 -16 15 -64 15 -64s12 47 16 64l149 582c1 4 3 6 7 6h4c4 0 5 -2 7 -6zM396 860v-100c0 -4 -2 -6 -6 -6h-4c-4 0 -5 2 -6 6v100c1 4 2 6 6 6h4c4 0 6 -2 6 -6zM475 860v-100c0 -4 -2 -6 -6 -6h-4c-4 0 -5 2 -6 6v100c1 4 2 6 6 6h4c4 0 6 -2 6 -6z
" />
    <glyph glyph-name="Ygrave" unicode="&#x1ef2;" horiz-adv-x="493" 
d="M96 674l191 -344c4 -6 10 -18 13 -25c0 0 7 16 12 25l190 344c1 4 4 6 8 6h6c4 0 7 -1 4 -6l-212 -382v-286c0 -4 -2 -6 -6 -6h-4c-4 0 -6 2 -6 6v285l-213 383c-3 5 0 6 4 6h5c4 0 5 -2 8 -6zM280 747l-85 125c-1 2 -1 6 4 6h6c4 0 6 -2 7 -4l81 -125c3 -3 2 -5 -1 -5
h-5c-4 0 -6 1 -7 3z" />
    <glyph glyph-name="Yacute" unicode="&#xdd;" horiz-adv-x="493" 
d="M96 674l191 -344c4 -6 10 -18 13 -25c0 0 7 16 12 25l190 344c1 4 4 6 8 6h6c4 0 7 -1 4 -6l-212 -382v-286c0 -4 -2 -6 -6 -6h-4c-4 0 -6 2 -6 6v285l-213 383c-3 5 0 6 4 6h5c4 0 5 -2 8 -6zM386 872l-83 -125c-1 -1 -2 -3 -6 -3h-7c-3 0 -4 2 -3 5l83 125c2 2 3 4 7 4
h7c5 0 5 -3 2 -6z" />
    <glyph glyph-name="Ycircumflex" unicode="&#x176;" horiz-adv-x="493" 
d="M96 674l191 -344c4 -6 10 -18 13 -25c0 0 7 16 12 25l190 344c1 4 4 6 8 6h6c4 0 7 -1 4 -6l-212 -382v-286c0 -4 -2 -6 -6 -6h-4c-4 0 -6 2 -6 6v285l-213 383c-3 5 0 6 4 6h5c4 0 5 -2 8 -6zM292 864l-77 -114c-2 -4 -4 -6 -7 -6h-6c-4 0 -5 3 -4 6l80 122
c2 3 6 6 10 6h7c4 0 6 -2 8 -5l81 -123c3 -3 2 -6 -2 -6h-4c-3 0 -6 1 -10 6z" />
    <glyph glyph-name="Ydieresis" unicode="&#x178;" horiz-adv-x="493" 
d="M95 674l191 -344c4 -6 10 -18 13 -25c0 0 7 16 12 25l190 344c1 4 4 6 8 6h6c4 0 7 -1 4 -6l-212 -382v-286c0 -4 -1 -6 -5 -6h-4c-4 0 -7 2 -7 6v285l-213 383c-3 5 0 6 4 6h5c4 0 5 -2 8 -6zM256 860v-100c0 -4 -2 -6 -6 -6h-4c-4 0 -5 2 -6 6v100c1 4 2 6 6 6h4
c4 0 6 -2 6 -6zM335 860v-100c0 -4 -2 -6 -6 -6h-4c-4 0 -5 2 -6 6v100c1 4 2 6 6 6h4c4 0 6 -2 6 -6z" />
    <glyph glyph-name="Zacute" unicode="&#x179;" horiz-adv-x="508" 
d="M143 680h343c4 0 5 -2 6 -6v-3c0 -2 0 -4 -1 -6l-351 -650h361c4 0 5 -2 5 -6l1 -3c0 -4 -2 -6 -6 -6h-376c-4 0 -6 2 -6 5v2c-1 4 2 7 2 9l350 649h-328c-3 0 -5 2 -6 6v3c-1 4 2 6 6 6zM389 872l-83 -125c-1 -1 -2 -3 -6 -3h-7c-3 0 -4 2 -3 5l83 125c2 2 3 4 7 4h7
c5 0 5 -3 2 -6z" />
    <glyph glyph-name="Zcaron" unicode="&#x17d;" horiz-adv-x="508" 
d="M143 680h343c4 0 5 -2 6 -6v-3c0 -2 0 -4 -1 -6l-351 -650h361c4 0 5 -2 5 -6l1 -3c0 -4 -2 -6 -6 -6h-376c-4 0 -6 2 -6 5v2c-1 4 2 7 2 9l350 649h-328c-3 0 -5 2 -6 6v3c-1 4 2 6 6 6zM227 872l76 -114l77 114c4 5 7 6 9 6h6c4 0 5 -3 2 -6l-81 -123
c-1 -3 -4 -5 -8 -5h-6c-4 0 -7 3 -10 6l-81 122c-2 3 0 6 4 6h5c3 0 5 -2 7 -6z" />
    <glyph glyph-name="Zdotaccent" unicode="&#x17b;" horiz-adv-x="508" 
d="M141 680h343c4 0 5 -2 6 -6v-3c0 -2 -1 -4 -1 -6l-352 -650h361c4 0 6 -2 6 -6l1 -3c0 -4 -2 -6 -6 -6h-376c-4 0 -6 2 -6 5l-1 2c0 4 3 7 3 9l350 649h-328c-3 0 -6 2 -6 6v3c-1 4 2 6 6 6zM309 838l1 -75c0 -4 -3 -6 -6 -6h-4c-4 0 -7 1 -6 6l-1 75c0 3 2 6 6 6h5
c4 0 5 -2 5 -6z" />
    <glyph glyph-name="Eng" unicode="&#x14a;" horiz-adv-x="602" 
d="M521 674l-1 -773c0 -65 -33 -112 -161 -112h-3c-4 0 -5 2 -6 6v3c0 4 1 6 5 6h3c114 0 147 42 147 97l1 104l-328 588c-7 13 -19 37 -27 52v-639c0 -4 -2 -6 -6 -6h-3c-4 0 -6 2 -6 6v668c0 4 2 6 6 6h1c3 0 4 -1 5 -3l330 -590c5 -11 25 -47 28 -51v638c0 4 2 6 6 6h3
c4 0 6 -2 6 -6z" />
    <glyph glyph-name="Eth" unicode="&#xd0;" horiz-adv-x="591" 
d="M342 0h-187c-4 0 -6 2 -6 6v332h-86c-4 0 -6 2 -6 6v3c-1 4 2 6 6 6h86l-1 321c1 4 3 6 6 6h188c135 0 184 -46 192 -111c1 -7 2 -13 2 -20v-418c0 -76 -41 -131 -194 -131zM342 665h-177l-1 -312h168c4 0 5 -2 6 -6v-3c0 -4 -2 -6 -6 -6h-168v-323h177
c140 0 179 50 179 116v418c0 6 -1 12 -1 18c-7 57 -50 98 -177 98z" />
    <glyph glyph-name="Thorn" unicode="&#xde;" horiz-adv-x="555" 
d="M164 674l1 -184h177c135 0 185 -46 193 -111c1 -7 1 -13 1 -20l-1 -116c0 -76 -39 -131 -194 -131h-177l1 -106c0 -4 -2 -6 -6 -6h-4c-4 0 -6 2 -6 6l-1 668c1 4 3 6 7 6h4c3 0 6 -1 5 -6zM342 475h-177v-348h177c140 0 177 50 177 116l1 116c0 6 0 12 -1 18
c-7 57 -50 98 -177 98z" />
    <glyph glyph-name="a" unicode="a" 
d="M428 6l-2 49c-29 -23 -92 -63 -180 -63c-83 0 -126 39 -133 95c-1 6 -1 11 -1 17v282c0 65 39 112 134 112c86 0 150 -40 180 -64l2 50c1 4 1 6 5 6h3c4 0 6 -2 6 -6v-478c0 -4 -2 -6 -6 -6h-2c-4 0 -6 2 -6 6zM128 386v-282c-1 -5 0 -10 1 -14c5 -48 43 -83 117 -83
c92 0 157 47 180 66l1 343c-24 20 -87 67 -181 67c-81 0 -118 -42 -118 -97z" />
    <glyph glyph-name="b" unicode="b" 
d="M145 0h-2c-4 0 -5 2 -6 6v687c0 5 2 6 6 6h4c5 0 5 -3 6 -6l1 -259c29 24 90 64 179 64c83 0 127 -39 134 -96c0 -3 1 -9 1 -16l-1 -282c0 -65 -39 -112 -134 -112c-87 0 -151 40 -181 63l-1 -49c0 -4 -2 -6 -6 -6zM451 104l1 282c-1 10 -1 11 -1 14
c-6 48 -43 83 -117 83c-93 0 -158 -47 -181 -67v-343c23 -19 85 -66 180 -66c81 0 118 42 118 97z" />
    <glyph glyph-name="c" unicode="c" horiz-adv-x="468" 
d="M274 498c114 0 154 -38 161 -93c1 -6 1 -13 1 -19v-21c0 -4 -1 -6 -5 -6h-4c-4 0 -7 2 -7 6v21c0 6 0 11 -1 16c-6 47 -40 81 -145 81c-117 0 -146 -42 -146 -97v-282c0 -6 0 -11 1 -17c6 -46 40 -80 145 -80c117 0 145 42 146 97v29c0 4 3 6 7 6h4c4 0 5 -2 5 -6v-29
c-1 -65 -30 -112 -162 -112c-114 0 -154 38 -161 93c-1 6 -1 12 -1 19v282c0 65 31 112 162 112z" />
    <glyph glyph-name="d" unicode="d" 
d="M440 6l-2 49c-29 -23 -92 -63 -180 -63c-83 0 -126 39 -133 95c0 6 -1 11 -1 17l1 282c0 65 38 112 133 112c88 0 151 -40 181 -64l-1 259c-1 4 2 6 6 6h4c3 0 6 -1 6 -6v-687c1 -4 -2 -6 -6 -6h-2c-4 0 -5 2 -6 6zM141 386l-1 -282c0 -5 0 -10 1 -14
c6 -48 43 -83 117 -83c92 0 157 47 180 66v343c-23 20 -87 67 -179 67c-82 0 -118 -42 -118 -97z" />
    <glyph glyph-name="e" unicode="e" horiz-adv-x="486" 
d="M442 386v-126c-1 -4 -2 -6 -6 -6h-308v-150c-1 -5 0 -10 1 -15c6 -48 42 -82 148 -82c117 0 148 42 149 97v29c1 4 3 6 7 6h4c4 0 6 -2 5 -6v-29c-1 -65 -33 -112 -165 -112c-115 0 -157 39 -164 94c-1 6 -1 12 -1 18v282c0 65 34 112 165 112c115 0 157 -39 164 -94
c1 -6 1 -12 1 -18zM128 386v-117h298v117c1 5 0 10 -1 15c-5 47 -42 82 -148 82c-117 0 -149 -42 -149 -97z" />
    <glyph glyph-name="f" unicode="f" horiz-adv-x="298" 
d="M135 489h13v102c0 65 33 112 163 112h3c4 0 6 -2 6 -6v-3c1 -5 -2 -6 -6 -6h-3c-117 0 -147 -42 -147 -97v-102h131c4 0 6 -2 6 -6l1 -3c0 -4 -2 -6 -6 -6h-131l-1 -679c0 -4 -2 -6 -6 -6h-4c-4 0 -6 2 -6 6l1 679h-70c-4 0 -7 2 -7 6v1c-1 4 2 6 6 6z" />
    <glyph glyph-name="g" unicode="g" 
d="M234 -8c-84 0 -127 40 -134 97c0 5 -1 8 -1 15l1 282c0 65 39 112 134 112c87 0 151 -40 180 -64l2 50c0 5 2 6 6 6h2c5 0 5 -3 6 -6v-583c0 -65 -32 -112 -163 -112h-132c-4 0 -5 2 -6 6v3c-1 4 2 6 6 6h132c116 0 148 42 147 97l-1 154c-29 -24 -91 -63 -179 -63z
M116 386l-1 -282c0 -8 0 -9 1 -13c6 -49 43 -84 118 -84c92 0 156 47 180 66v343c-23 20 -88 67 -180 67c-81 0 -118 -42 -118 -97z" />
    <glyph glyph-name="h" unicode="h" horiz-adv-x="516" 
d="M154 693v-259c29 24 91 64 180 64c84 0 126 -39 133 -95c0 -3 1 -9 1 -17l1 -380c0 -4 -3 -6 -7 -6h-4c-3 0 -6 1 -5 6l-1 380c0 9 0 12 -1 14c-6 48 -43 83 -117 83c-93 0 -156 -47 -180 -67l1 -410c0 -4 -3 -6 -7 -6h-4c-3 0 -6 1 -5 6l-1 687c1 4 3 6 7 6h4
c3 0 6 -1 5 -6z" />
    <glyph glyph-name="i" unicode="i" horiz-adv-x="208" 
d="M155 484v-478c-1 -4 -3 -6 -7 -6h-4c-3 0 -6 1 -5 6v478c0 3 1 6 5 6h4c4 0 6 -2 7 -6zM154 693v-99c1 -4 -2 -6 -6 -6h-4c-4 0 -5 2 -6 6v99c0 4 3 6 7 6h4c3 0 6 -1 5 -6z" />
    <glyph glyph-name="j" unicode="j" horiz-adv-x="207" 
d="M139 693v-99c0 -4 -2 -6 -6 -6h-4c-4 0 -6 2 -6 6v99c0 4 2 6 6 6h4c4 0 6 -2 6 -6zM139 484v-583c0 -65 -34 -112 -161 -112h-3c-4 0 -5 2 -5 6l-1 3c0 4 2 6 6 6h3c113 0 144 42 145 97v583c0 3 1 6 6 6h4c4 0 6 -3 6 -6z" />
    <glyph glyph-name="k" unicode="k" horiz-adv-x="429" 
d="M454 0h-6c-5 0 -8 1 -12 6l-238 263h-45l1 -263c-1 -4 -3 -6 -7 -6h-4c-5 0 -5 3 -5 6l-1 687c1 4 3 6 7 6h4c5 0 5 -3 5 -6l1 -409h41l209 201c2 3 6 5 10 5h8c6 0 6 -4 4 -6l-215 -206l246 -272c3 -3 0 -6 -3 -6z" />
    <glyph glyph-name="l" unicode="l" horiz-adv-x="208" 
d="M153 693l1 -687c0 -3 -2 -6 -6 -6h-5c-4 0 -5 2 -5 6l-1 687c1 4 3 6 7 6h4c4 0 5 -2 5 -6z" />
    <glyph glyph-name="m" unicode="m" horiz-adv-x="818" 
d="M132 490h2c4 0 6 -2 7 -6l1 -49c27 23 86 63 174 63c69 0 112 -27 127 -69c26 22 85 69 181 69c84 0 127 -39 134 -95c0 -6 0 -5 1 -17l-1 -380c1 -3 -1 -6 -5 -6h-5c-3 0 -6 1 -6 6l1 380c0 9 0 9 -1 13c-6 48 -42 84 -117 84c-97 0 -158 -51 -178 -69c2 -8 3 -17 4 -28
l-1 -380c0 -4 -1 -6 -5 -6h-5c-3 0 -6 1 -6 6l1 372c0 8 0 17 -1 21c-6 48 -42 84 -117 84c-92 0 -152 -47 -175 -67v-410c1 -3 -1 -6 -5 -6h-5c-3 0 -6 1 -6 6l1 478c-1 3 1 6 5 6z" />
    <glyph glyph-name="n" unicode="n" horiz-adv-x="516" 
d="M132 490h2c4 0 6 -2 7 -6l1 -50c29 24 91 64 180 64c84 0 127 -39 134 -95c0 -2 1 -8 1 -17l-1 -380c0 -4 -2 -6 -6 -6h-4c-3 0 -6 1 -6 6l1 380c0 9 -1 12 -1 13c-6 48 -42 84 -117 84c-93 0 -157 -47 -181 -67v-410c0 -4 -2 -6 -6 -6h-4c-3 0 -6 1 -6 6l1 478
c-1 4 1 6 5 6z" />
    <glyph glyph-name="o" unicode="o" horiz-adv-x="498" 
d="M112 104v282c0 65 34 112 165 112c115 0 157 -39 164 -94c0 -3 1 -7 1 -18v-282c0 -65 -34 -112 -165 -112c-115 0 -157 39 -164 94c-1 5 -1 10 -1 18zM426 104v282c0 9 0 13 -1 15c-5 47 -42 82 -148 82c-117 0 -149 -42 -149 -97v-282c0 -8 0 -12 1 -15
c6 -48 42 -82 148 -82c117 0 149 42 149 97z" />
    <glyph glyph-name="p" unicode="p" 
d="M121 490c3 0 5 -1 6 -6l1 -50c30 24 92 64 181 64c83 0 126 -39 133 -95c0 -2 0 -7 1 -17l-1 -282c0 -65 -38 -112 -133 -112c-86 0 -151 39 -181 63l1 -260c0 -4 -2 -6 -6 -6h-4c-3 0 -6 1 -6 6v689c-1 4 2 6 6 6h2zM426 104l1 282c0 9 -1 12 -1 14
c-6 48 -43 83 -117 83c-93 0 -157 -47 -180 -67v-343c22 -19 85 -66 180 -66c81 0 117 42 117 97z" />
    <glyph glyph-name="q" unicode="q" 
d="M414 434l2 50c0 4 2 6 6 6h2c5 0 5 -3 6 -6v-689c0 -4 -2 -6 -6 -6h-4c-5 0 -5 3 -6 6l-1 260c-29 -24 -91 -63 -179 -63c-84 0 -127 40 -134 97c0 1 -1 7 -1 15l1 282c0 65 39 112 134 112c88 0 151 -40 180 -64zM116 386l-1 -282c0 -9 1 -10 1 -13
c6 -49 43 -84 118 -84c92 0 156 47 180 66v343c-23 20 -85 67 -180 67c-81 0 -118 -42 -118 -97z" />
    <glyph glyph-name="r" unicode="r" horiz-adv-x="322" 
d="M321 497c4 0 6 -2 7 -6v-6c1 -4 -3 -4 -7 -4c-74 0 -153 -53 -179 -75v-400c1 -3 -1 -6 -6 -6h-4c-3 0 -6 1 -6 6l1 478c0 4 1 6 5 6h2c4 0 6 -2 7 -6l1 -62c31 25 103 75 179 75z" />
    <glyph glyph-name="s" unicode="s" horiz-adv-x="460" 
d="M405 364v29c0 9 0 14 -1 20c-5 36 -43 71 -142 71c-102 0 -142 -36 -142 -83l1 -42c-1 -8 0 -12 0 -14c4 -31 34 -53 67 -62l162 -46c43 -12 74 -35 78 -71c1 -8 1 -15 1 -15l1 -61c0 -56 -50 -98 -167 -98c-105 0 -157 38 -163 87c-1 5 -1 14 -1 15v27c-1 4 2 5 6 5h5
c1 0 5 0 5 -5v-26s0 -8 1 -13c5 -46 52 -75 147 -75c104 0 150 36 150 84v59c0 1 0 7 -1 14c-4 35 -37 49 -69 58l-162 47c-33 9 -72 36 -77 75c0 2 -1 7 0 14v43c1 56 42 97 158 97c102 0 152 -37 158 -84c1 -8 1 -10 1 -20v-30c0 -3 -1 -5 -5 -5h-5c-3 0 -6 2 -6 5z" />
    <glyph glyph-name="t" unicode="t" horiz-adv-x="333" 
d="M163 474v-362c0 -9 1 -12 1 -16c6 -47 41 -81 146 -81h13c4 0 5 -2 6 -6v-3c0 -4 -2 -6 -6 -6h-13c-115 0 -155 38 -162 93c0 6 -1 10 -1 19v362h-70c-4 0 -6 2 -6 6v1c-1 4 2 6 6 6l69 2h1v114c-1 4 2 6 6 6h4c4 0 5 -2 6 -6v-114h131c4 0 5 -2 6 -6v-4
c1 -4 -2 -5 -6 -5h-131z" />
    <glyph glyph-name="u" unicode="u" 
d="M427 6l-2 49c-27 -24 -85 -63 -173 -63c-84 0 -127 39 -134 95c0 4 0 7 -1 17l1 380c0 4 2 6 6 6h4c3 0 6 -1 6 -6l-1 -380c0 -8 1 -11 1 -13c6 -49 42 -84 118 -84c92 0 151 46 174 66v411c-1 4 2 6 6 6h4c3 0 6 -1 6 -6l-1 -478c1 -3 0 -6 -4 -6h-3c-4 0 -6 2 -7 6z
" />
    <glyph glyph-name="v" unicode="v" horiz-adv-x="396" 
d="M229 0h-4c-3 0 -6 2 -7 6l-164 477c0 2 -2 7 3 7h6c3 0 6 -2 7 -6l146 -421l11 -36c1 2 6 22 11 36l145 421c2 4 4 6 7 6h5c5 0 6 -3 5 -6l-164 -478c-2 -4 -4 -6 -7 -6z" />
    <glyph glyph-name="w" unicode="w" horiz-adv-x="604" 
d="M597 490h6c4 0 5 -4 4 -6l-132 -478c-2 -4 -4 -6 -7 -6h-4c-3 0 -6 2 -7 6l-116 424c-4 14 -9 33 -11 44c0 0 -9 -37 -11 -45l-119 -423c-2 -4 -4 -6 -7 -6h-4c-3 0 -6 2 -7 6l-129 478c0 3 0 6 4 6h6c3 0 6 -2 7 -6l114 -421l8 -36c3 12 6 27 9 36l116 421c2 4 4 6 7 6
h12c3 0 6 -2 7 -6l114 -421c3 -11 9 -34 9 -34c3 12 5 25 8 34l116 421c2 4 3 6 7 6z" />
    <glyph glyph-name="x" unicode="x" horiz-adv-x="454" 
d="M432 0h-6c-5 0 -8 3 -10 6l-160 229l-157 -229c-2 -3 -5 -6 -10 -6h-7c-4 0 -6 3 -4 6l168 243l-164 235c-1 2 -3 6 3 6h7c4 0 7 -3 9 -6l156 -222l149 222c2 3 5 6 9 6h9c4 0 4 -4 2 -6l-160 -236l168 -240c2 -4 4 -8 -2 -8z" />
    <glyph glyph-name="y" unicode="y" horiz-adv-x="396" 
d="M57 484l146 -421c3 -9 12 -37 12 -37c2 8 5 19 11 37l144 421c2 4 4 6 7 6h5c4 0 7 -2 5 -6l-235 -689c-2 -4 -4 -6 -7 -6h-6c-4 0 -6 2 -4 6l71 208l-165 481c-1 3 -1 6 3 6h6c3 0 6 -2 7 -6z" />
    <glyph glyph-name="z" unicode="z" horiz-adv-x="460" 
d="M112 490h297c4 0 6 -2 6 -5v-3c1 -3 -3 -9 -3 -9l-296 -458h304c4 0 5 -2 5 -6l1 -3c0 -4 -2 -6 -6 -6h-318c-4 0 -6 2 -6 6l-1 3c0 2 3 6 4 9l295 457h-282c-4 0 -5 2 -5 6l-1 3c0 4 2 6 6 6z" />
    <glyph glyph-name="agrave" unicode="&#xe0;" 
d="M441 6l-2 49c-29 -23 -93 -63 -181 -63c-83 0 -125 39 -132 95c-1 6 -2 11 -1 17v282c0 65 39 112 134 112c86 0 150 -40 180 -64l2 50c1 4 1 6 5 6h3c4 0 6 -2 6 -6v-478c0 -4 -3 -6 -7 -6h-2c-4 0 -5 2 -5 6zM141 386v-282c-1 -5 0 -10 0 -14c6 -48 44 -83 118 -83
c92 0 157 47 180 66v343c-23 20 -86 67 -180 67c-81 0 -118 -42 -118 -97zM277 577l-85 125c-1 2 -1 6 4 6h6c4 0 6 -2 7 -4l81 -125c3 -3 2 -5 -1 -5h-5c-4 0 -6 1 -7 3z" />
    <glyph glyph-name="aacute" unicode="&#xe1;" 
d="M441 6l-2 49c-29 -23 -93 -63 -181 -63c-83 0 -125 39 -132 95c-1 6 -2 11 -1 17v282c0 65 39 112 134 112c86 0 150 -40 180 -64l2 50c1 4 1 6 5 6h3c4 0 6 -2 6 -6v-478c0 -4 -3 -6 -7 -6h-2c-4 0 -5 2 -5 6zM141 386v-282c-1 -5 0 -10 0 -14c6 -48 44 -83 118 -83
c92 0 157 47 180 66v343c-23 20 -86 67 -180 67c-81 0 -118 -42 -118 -97zM365 702l-83 -125c-1 -1 -2 -3 -6 -3h-7c-3 0 -4 2 -3 5l83 125c2 2 3 4 7 4h7c5 0 5 -3 2 -6z" />
    <glyph glyph-name="acircumflex" unicode="&#xe2;" 
d="M441 6l-2 49c-29 -23 -93 -63 -181 -63c-83 0 -125 39 -132 95c-1 6 -2 11 -1 17v282c0 65 39 112 134 112c86 0 150 -40 180 -64l2 50c1 4 1 6 5 6h3c4 0 6 -2 6 -6v-478c0 -4 -3 -6 -7 -6h-2c-4 0 -5 2 -5 6zM141 386v-282c-1 -5 0 -10 0 -14c6 -48 44 -83 118 -83
c92 0 157 47 180 66v343c-23 20 -86 67 -180 67c-81 0 -118 -42 -118 -97zM274 694l-77 -114c-2 -4 -4 -6 -7 -6h-6c-4 0 -5 3 -4 6l80 122c2 3 6 6 10 6h7c4 0 6 -2 8 -5l81 -123c3 -3 2 -6 -2 -6h-4c-3 0 -6 1 -10 6z" />
    <glyph glyph-name="atilde" unicode="&#xe3;" 
d="M440 6l-2 49c-30 -23 -93 -63 -181 -63c-83 0 -125 39 -132 95c-1 6 -2 11 -1 17v282c0 65 39 112 134 112c86 0 150 -40 180 -64l2 50c0 4 1 6 5 6h3c4 0 5 -2 6 -6v-478c0 -4 -3 -6 -7 -6h-2c-4 0 -5 2 -5 6zM140 386v-282c-1 -5 0 -10 0 -14c6 -48 44 -83 118 -83
c92 0 157 47 179 66l1 343c-23 20 -86 67 -180 67c-81 0 -118 -42 -118 -97zM211 675c-30 0 -40 -15 -38 -68v-10c1 -4 -2 -6 -6 -6h-4c-4 0 -5 2 -6 6v10c0 65 17 83 53 83c14 0 33 -8 49 -24l43 -43c9 -9 22 -17 34 -17c30 0 38 13 39 68l-1 10c0 4 3 6 7 6h4
c4 0 5 -2 5 -6l1 -10c0 -65 -18 -83 -53 -83c-14 0 -32 8 -49 24l-43 42c-10 9 -23 18 -35 18z" />
    <glyph glyph-name="adieresis" unicode="&#xe4;" 
d="M440 6l-2 49c-29 -23 -92 -63 -180 -63c-83 0 -126 39 -133 95c0 6 -1 11 -1 17l1 282c0 65 39 112 134 112c86 0 150 -40 180 -64l2 50c0 4 1 6 5 6h3c4 0 5 -2 6 -6l-1 -478c1 -4 -2 -6 -6 -6h-2c-4 0 -5 2 -6 6zM141 386l-1 -282c0 -5 0 -10 1 -14
c6 -48 43 -83 117 -83c92 0 157 47 180 66l1 343c-24 20 -86 67 -180 67c-81 0 -118 -42 -118 -97zM242 694v-100c0 -4 -2 -6 -6 -6h-4c-4 0 -5 2 -6 6v100c0 4 2 6 6 6h4c4 0 5 -2 6 -6zM321 694v-100c0 -4 -2 -6 -6 -6h-4c-4 0 -5 2 -6 6v100c0 4 2 6 6 6h4c4 0 5 -2 6 -6
z" />
    <glyph glyph-name="amacron" unicode="&#x101;" 
d="M436 6l-2 49c-29 -23 -92 -63 -180 -63c-83 0 -126 39 -133 95c0 6 -1 11 -1 17l1 282c0 65 39 112 134 112c86 0 150 -40 180 -64l2 50c0 4 1 6 5 6h3c4 0 5 -2 6 -6l-1 -478c1 -4 -2 -6 -6 -6h-2c-4 0 -5 2 -6 6zM137 386l-1 -282c0 -5 0 -10 1 -14
c6 -48 43 -83 117 -83c92 0 157 47 180 66l1 343c-24 20 -86 67 -180 67c-81 0 -118 -42 -118 -97zM142 634h268c4 0 6 -2 7 -5v-4c1 -4 -2 -6 -6 -6h-268c-4 0 -6 2 -7 6v3c-1 4 2 6 6 6z" />
    <glyph glyph-name="abreve" unicode="&#x103;" 
d="M440 6l-3 49c-29 -23 -92 -63 -180 -63c-83 0 -126 39 -132 95c-1 6 -2 11 -2 17l1 282c0 65 39 112 134 112c86 0 150 -40 180 -64l2 50c0 4 1 6 5 6h3c4 0 5 -2 6 -6v-478c0 -4 -3 -6 -7 -6h-2c-4 0 -5 2 -5 6zM140 386l-1 -282c0 -5 1 -10 1 -14c6 -48 43 -83 117 -83
c92 0 158 47 180 66l1 343c-23 20 -86 67 -180 67c-81 0 -118 -42 -118 -97zM188 682l1 -26c0 -11 0 -14 1 -18c5 -41 25 -62 87 -62c77 0 84 39 83 94v12c-1 5 1 6 6 6h4c4 0 5 -3 6 -6v-12c1 -65 -10 -109 -100 -109c-70 0 -96 26 -102 77c-1 6 -1 7 -1 18l-1 26
c-1 4 2 6 6 6h4c3 0 5 -1 6 -6z" />
    <glyph glyph-name="aring" unicode="&#xe5;" 
d="M441 6l-2 49c-29 -23 -92 -63 -180 -63c-83 0 -126 39 -133 95c-1 6 -1 11 -1 17v282c0 65 40 112 135 112c86 0 149 -40 179 -64l2 50c1 4 2 6 6 6h3c4 0 5 -2 5 -6v-478c0 -4 -2 -6 -6 -6h-2c-4 0 -6 2 -6 6zM141 386v-282c0 -5 0 -10 1 -14c6 -48 43 -83 117 -83
c92 0 157 47 180 66l1 343c-24 20 -87 67 -181 67c-81 0 -117 -42 -118 -97zM375 631l1 -11c-1 -35 -24 -59 -87 -59c-54 0 -79 27 -83 57c-1 4 -2 13 -2 21v12c-1 35 21 61 86 61c53 0 80 -28 84 -60c0 -6 1 -12 1 -21zM360 620l-1 11c0 10 0 14 -1 20c-3 25 -22 46 -68 46
c-52 0 -70 -20 -70 -46v-12c0 -8 1 -17 2 -20c2 -22 20 -43 67 -43c50 0 70 18 71 44z" />
    <glyph glyph-name="aringacute" unicode="&#x1fb;" 
d="M448 6l-2 49c-29 -23 -92 -63 -180 -63c-83 0 -126 39 -133 95c0 6 -1 11 -1 17l1 282c0 65 39 112 134 112c86 0 150 -40 180 -64l2 50c0 4 1 6 5 6h3c4 0 5 -2 6 -6l-1 -478c1 -4 -2 -6 -6 -6h-2c-4 0 -5 2 -6 6zM149 386l-1 -282c0 -5 1 -10 1 -14
c6 -48 43 -83 117 -83c92 0 158 47 180 66l1 343c-23 20 -86 67 -180 67c-81 0 -118 -42 -118 -97zM384 827l-78 -116c46 -3 69 -29 73 -59c1 -6 2 -12 2 -21v-11c-1 -35 -24 -59 -87 -59c-54 0 -79 27 -83 57c0 4 -1 13 -1 21l-1 12c0 34 20 59 81 61l77 117c2 2 3 4 7 4h7
c5 0 5 -3 3 -6zM365 620v11c-1 10 -1 14 -2 20c-3 25 -21 46 -67 46c-52 0 -71 -20 -71 -46l1 -12c0 -8 1 -17 1 -20c3 -22 20 -43 67 -43c50 0 70 18 71 44z" />
    <glyph glyph-name="aogonek" unicode="&#x105;" 
d="M451 -139h-18c-53 0 -84 19 -89 61c-6 49 43 80 76 91l-2 42c-29 -23 -92 -63 -180 -63c-83 0 -126 39 -133 95c-1 6 -1 11 -1 17v282c0 65 39 112 134 112c86 0 150 -40 180 -64l2 50c1 4 1 6 5 6h3c4 0 6 -2 6 -6v-478c-1 -5 -3 -6 -5 -6h-1c-55 -16 -71 -55 -68 -79
c4 -29 27 -45 71 -45h18c4 0 6 -2 7 -6v-3c0 -4 -1 -6 -5 -6zM120 386v-282c-1 -5 0 -10 0 -14c6 -48 44 -83 118 -83c92 0 157 47 180 66v343c-23 20 -86 67 -180 67c-81 0 -118 -42 -118 -97z" />
    <glyph glyph-name="ae" unicode="&#xe6;" horiz-adv-x="791" 
d="M747 386v-126c-1 -4 -2 -6 -6 -6h-308v-143c0 -8 0 -17 1 -22c6 -48 42 -82 148 -82c117 0 148 42 149 97v29c1 4 3 6 7 6h4c4 0 6 -2 5 -6v-29c-1 -65 -33 -112 -165 -112c-103 0 -148 31 -161 77c-29 -26 -86 -77 -184 -77c-81 0 -126 38 -133 94c-1 6 -1 12 -1 18v42
c0 65 37 111 113 111h201v121c0 8 0 18 -1 24c-6 47 -40 81 -145 81c-117 0 -145 -42 -146 -97v-21c-1 -4 -1 -6 -5 -6h-4c-4 0 -8 2 -7 6v21c1 65 31 112 162 112c95 0 139 -27 155 -67c15 40 57 67 156 67c115 0 157 -39 164 -94c1 -6 1 -12 1 -18zM237 7
c94 0 157 58 180 79v156h-201c-64 0 -97 -41 -97 -96v-42c0 -8 0 -10 1 -15c5 -47 42 -82 117 -82zM433 386v-117h298v117c1 5 0 10 -1 15c-5 47 -42 82 -148 82c-117 0 -149 -42 -149 -97z" />
    <glyph glyph-name="aeacute" unicode="&#x1fd;" horiz-adv-x="791" 
d="M760 386v-126c-1 -4 -2 -6 -6 -6h-308v-143c0 -8 0 -17 1 -22c5 -48 42 -82 148 -82c117 0 147 42 149 97v29c1 4 2 6 6 6h4c4 0 7 -2 6 -6v-29c-1 -65 -34 -112 -166 -112c-103 0 -147 31 -160 77c-29 -26 -87 -77 -185 -77c-81 0 -125 38 -132 94c-1 6 -2 12 -1 18v42
c0 65 37 111 113 111h201v121c0 8 0 18 -1 24c-6 47 -40 81 -145 81c-117 0 -145 -42 -146 -97v-21c-1 -4 -2 -6 -6 -6h-4c-4 0 -7 2 -6 6v21c1 65 31 112 162 112c95 0 139 -27 155 -67c15 40 57 67 156 67c115 0 157 -39 164 -94c1 -6 1 -12 1 -18zM250 7
c94 0 156 58 180 79v156h-201c-64 0 -97 -41 -97 -96v-42c0 -8 0 -10 1 -15c5 -47 42 -82 117 -82zM446 386l-1 -117h298l1 117c0 5 0 10 -1 15c-6 47 -42 82 -148 82c-117 0 -149 -42 -149 -97zM538 702l-83 -125c-1 -1 -2 -3 -6 -3h-7c-3 0 -4 2 -3 5l83 125c2 2 3 4 7 4
h7c5 0 5 -3 2 -6z" />
    <glyph glyph-name="cacute" unicode="&#x107;" horiz-adv-x="468" 
d="M287 498c114 0 154 -38 161 -93c0 -6 1 -13 1 -19v-21c0 -4 -2 -6 -6 -6h-4c-4 0 -6 2 -6 6v21c0 6 0 11 -1 16c-6 47 -40 81 -145 81c-117 0 -146 -42 -146 -97v-282c-1 -6 0 -11 1 -17c5 -46 40 -80 145 -80c117 0 144 42 146 97v29c0 4 2 6 6 6h4c4 0 6 -2 6 -6v-29
c-1 -65 -31 -112 -163 -112c-114 0 -153 38 -160 93c-1 6 -1 12 -1 19v282c0 65 31 112 162 112zM368 702l-83 -125c-1 -1 -2 -3 -6 -3h-7c-3 0 -4 2 -3 5l83 125c2 2 3 4 7 4h7c5 0 5 -3 2 -6z" />
    <glyph glyph-name="ccircumflex" unicode="&#x109;" horiz-adv-x="468" 
d="M287 498c114 0 154 -38 161 -93c0 -6 1 -13 1 -19v-21c0 -4 -2 -6 -6 -6h-4c-4 0 -6 2 -6 6v21c0 6 0 11 -1 16c-6 47 -40 81 -145 81c-117 0 -146 -42 -146 -97v-282c-1 -6 0 -11 1 -17c5 -46 40 -80 145 -80c117 0 144 42 146 97v29c0 4 2 6 6 6h4c4 0 6 -2 6 -6v-29
c-1 -65 -31 -112 -163 -112c-114 0 -153 38 -160 93c-1 6 -1 12 -1 19v282c0 65 31 112 162 112zM275 694l-77 -114c-2 -4 -4 -6 -7 -6h-6c-4 0 -5 3 -4 6l80 122c2 3 6 6 10 6h7c4 0 6 -2 8 -5l81 -123c3 -3 2 -6 -2 -6h-4c-3 0 -6 1 -10 6z" />
    <glyph glyph-name="ccaron" unicode="&#x10d;" horiz-adv-x="468" 
d="M287 498c114 0 154 -38 161 -93c0 -6 1 -13 1 -19v-21c0 -4 -2 -6 -6 -6h-4c-4 0 -6 2 -6 6v21c0 6 0 11 -1 16c-6 47 -40 81 -145 81c-117 0 -146 -42 -146 -97v-282c-1 -6 0 -11 1 -17c5 -46 40 -80 145 -80c117 0 144 42 146 97v29c0 4 2 6 6 6h4c4 0 6 -2 6 -6v-29
c-1 -65 -31 -112 -163 -112c-114 0 -153 38 -160 93c-1 6 -1 12 -1 19v282c0 65 31 112 162 112zM207 702l76 -114l77 114c4 5 7 6 9 6h6c4 0 5 -3 2 -6l-81 -123c-1 -3 -4 -5 -8 -5h-6c-4 0 -7 3 -10 6l-81 122c-2 3 0 6 4 6h5c3 0 5 -2 7 -6z" />
    <glyph glyph-name="cdotaccent" unicode="&#x10b;" horiz-adv-x="468" 
d="M286 498c114 0 153 -38 160 -93c1 -6 2 -13 1 -19v-21c0 -4 -1 -6 -5 -6h-4c-4 0 -7 2 -7 6v21c1 6 0 11 -1 16c-5 47 -40 81 -145 81c-117 0 -145 -42 -146 -97v-282c0 -6 0 -11 1 -17c6 -46 40 -80 145 -80c117 0 145 42 146 97v29c0 4 3 6 7 6h4c4 0 5 -2 5 -6v-29
c-1 -65 -30 -112 -162 -112c-114 0 -154 38 -161 93c0 6 -1 12 -1 19v282c0 65 32 112 163 112zM291 674v-75c1 -4 -2 -6 -5 -6h-4c-4 0 -7 1 -7 6v75c0 3 1 6 5 6h5c4 0 6 -2 6 -6z" />
    <glyph glyph-name="ccedilla" unicode="&#xe7;" horiz-adv-x="468" 
d="M253 -56h42c30 0 72 -16 78 -65c9 -74 -43 -90 -78 -90h-121c-4 0 -5 2 -6 6v4c-1 4 2 6 6 6h121c25 0 69 12 61 72c-5 40 -39 51 -61 51h-53c-5 0 -8 3 -7 8l16 56c-106 2 -144 39 -150 93c-1 6 -2 12 -2 19l1 282c0 65 31 112 162 112c114 0 154 -38 160 -93
c1 -6 2 -13 2 -19l-1 -21c1 -4 -1 -6 -5 -6h-4c-4 0 -6 2 -7 6l1 21c0 6 -1 11 -1 16c-6 47 -40 81 -145 81c-117 0 -146 -42 -146 -97l-1 -282c0 -6 1 -11 1 -17c6 -46 40 -80 145 -80c117 0 145 42 146 97l1 29c-1 4 2 6 6 6h4c4 0 5 -2 6 -6l-1 -29
c-1 -64 -29 -110 -157 -112z" />
    <glyph glyph-name="dcaron" unicode="&#x10f;" 
d="M440 6l-2 49c-29 -23 -92 -63 -180 -63c-83 0 -126 39 -133 95c0 6 -1 11 -1 17l1 282c0 65 38 112 133 112c88 0 151 -40 181 -64l-1 259c-1 4 2 6 6 6h4c3 0 6 -1 6 -6v-687c1 -4 -2 -6 -6 -6h-2c-4 0 -5 2 -6 6zM141 386l-1 -282c0 -5 0 -10 1 -14
c6 -48 43 -83 117 -83c92 0 157 47 180 66v343c-23 20 -87 67 -179 67c-82 0 -118 -42 -118 -97zM546 668v25c-1 4 2 6 6 6h4c4 0 5 -2 6 -6v-25c0 -44 -17 -75 -33 -105c-2 -3 -4 -5 -8 -3l-4 2c-2 1 -4 3 -2 8c19 38 31 59 31 98z" />
    <glyph glyph-name="dcroat" unicode="&#x111;" 
d="M440 6l-2 49c-29 -23 -92 -63 -180 -63c-83 0 -126 39 -133 95c0 6 -1 11 -1 17l1 282c0 65 38 112 133 112c88 0 151 -40 181 -64l-1 141h-202c-4 0 -6 2 -6 6l-1 3c0 4 1 6 5 6h204v103c-1 4 2 6 6 6h4c3 0 6 -1 6 -6l-1 -103h50c4 0 7 -2 7 -6l1 -3c0 -4 -2 -6 -6 -6
h-52l1 -569c1 -4 -2 -6 -6 -6h-2c-4 0 -5 2 -6 6zM141 386l-1 -282c0 -5 0 -10 1 -14c6 -48 43 -83 117 -83c92 0 157 47 180 66v343c-23 20 -87 67 -179 67c-82 0 -118 -42 -118 -97z" />
    <glyph glyph-name="egrave" unicode="&#xe8;" horiz-adv-x="486" 
d="M455 386v-126c-1 -4 -2 -6 -6 -6h-308v-150c-1 -5 0 -10 1 -15c5 -48 42 -82 148 -82c117 0 147 42 149 97v29c1 4 2 6 6 6h4c4 0 7 -2 6 -6v-29c-1 -65 -34 -112 -166 -112c-115 0 -156 39 -163 94c-1 6 -2 12 -1 18v282c0 65 34 112 165 112c115 0 157 -39 164 -94
c1 -6 1 -12 1 -18zM141 386l-1 -117h298l1 117c0 5 0 10 -1 15c-6 47 -42 82 -148 82c-117 0 -149 -42 -149 -97zM283 577l-85 125c-1 2 -1 6 4 6h6c4 0 6 -2 7 -4l81 -125c3 -3 2 -5 -1 -5h-5c-4 0 -6 1 -7 3z" />
    <glyph glyph-name="eacute" unicode="&#xe9;" horiz-adv-x="486" 
d="M455 386v-126c-1 -4 -2 -6 -6 -6h-308v-150c-1 -5 0 -10 1 -15c5 -48 42 -82 148 -82c117 0 147 42 149 97v29c1 4 2 6 6 6h4c4 0 7 -2 6 -6v-29c-1 -65 -34 -112 -166 -112c-115 0 -156 39 -163 94c-1 6 -2 12 -1 18v282c0 65 34 112 165 112c115 0 157 -39 164 -94
c1 -6 1 -12 1 -18zM141 386l-1 -117h298l1 117c0 5 0 10 -1 15c-6 47 -42 82 -148 82c-117 0 -149 -42 -149 -97zM377 702l-83 -125c-1 -1 -2 -3 -6 -3h-7c-3 0 -4 2 -3 5l83 125c2 2 3 4 7 4h7c5 0 5 -3 2 -6z" />
    <glyph glyph-name="ecircumflex" unicode="&#xea;" horiz-adv-x="486" 
d="M455 386v-126c-1 -4 -2 -6 -6 -6h-308v-150c-1 -5 0 -10 1 -15c5 -48 42 -82 148 -82c117 0 147 42 149 97v29c1 4 2 6 6 6h4c4 0 7 -2 6 -6v-29c-1 -65 -34 -112 -166 -112c-115 0 -156 39 -163 94c-1 6 -2 12 -1 18v282c0 65 34 112 165 112c115 0 157 -39 164 -94
c1 -6 1 -12 1 -18zM141 386l-1 -117h298l1 117c0 5 0 10 -1 15c-6 47 -42 82 -148 82c-117 0 -149 -42 -149 -97zM285 694l-77 -114c-2 -4 -4 -6 -7 -6h-6c-4 0 -5 3 -4 6l80 122c2 3 6 6 10 6h7c4 0 6 -2 8 -5l81 -123c3 -3 2 -6 -2 -6h-4c-3 0 -6 1 -10 6z" />
    <glyph glyph-name="ecaron" unicode="&#x11b;" horiz-adv-x="486" 
d="M455 386v-126c-1 -4 -2 -6 -6 -6h-308v-150c-1 -5 0 -10 1 -15c5 -48 42 -82 148 -82c117 0 147 42 149 97v29c1 4 2 6 6 6h4c4 0 7 -2 6 -6v-29c-1 -65 -34 -112 -166 -112c-115 0 -156 39 -163 94c-1 6 -2 12 -1 18v282c0 65 34 112 165 112c115 0 157 -39 164 -94
c1 -6 1 -12 1 -18zM141 386l-1 -117h298l1 117c0 5 0 10 -1 15c-6 47 -42 82 -148 82c-117 0 -149 -42 -149 -97zM202 702l76 -114l77 114c4 5 7 6 9 6h6c4 0 5 -3 2 -6l-81 -123c-1 -3 -4 -5 -8 -5h-6c-4 0 -7 3 -10 6l-81 122c-2 3 0 6 4 6h5c3 0 5 -2 7 -6z" />
    <glyph glyph-name="edieresis" unicode="&#xeb;" horiz-adv-x="486" 
d="M455 386l-1 -126c0 -4 -1 -6 -5 -6h-308l-1 -150c0 -5 0 -10 1 -15c6 -48 42 -82 148 -82c117 0 148 42 149 97l1 29c0 4 2 6 6 6h4c4 0 6 -2 6 -6l-1 -29c-1 -65 -33 -112 -165 -112c-115 0 -157 39 -164 94c0 6 -1 12 -1 18l1 282c0 65 34 112 165 112
c115 0 157 -39 163 -94c1 -6 2 -12 2 -18zM141 386l-1 -117h298l1 117c0 5 -1 10 -1 15c-6 47 -42 82 -148 82c-117 0 -149 -42 -149 -97zM251 694v-100c0 -4 -2 -6 -6 -6h-4c-4 0 -5 2 -6 6v100c0 4 2 6 6 6h4c4 0 5 -2 6 -6zM330 694v-100c0 -4 -2 -6 -6 -6h-4
c-4 0 -5 2 -6 6v100c0 4 2 6 6 6h4c4 0 5 -2 6 -6z" />
    <glyph glyph-name="emacron" unicode="&#x113;" horiz-adv-x="486" 
d="M451 386l-1 -126c-1 -4 -1 -6 -5 -6h-308l-1 -150c0 -5 0 -10 1 -15c6 -48 42 -82 148 -82c117 0 148 42 149 97l1 29c0 4 2 6 6 6h4c4 0 6 -2 6 -6l-1 -29c-1 -65 -33 -112 -165 -112c-115 0 -157 39 -164 94c0 6 -1 12 -1 18l1 282c0 65 34 112 165 112
c115 0 157 -39 163 -94c1 -6 2 -12 2 -18zM137 386l-1 -117h298l1 117c0 5 -1 10 -1 15c-6 47 -42 82 -148 82c-117 0 -149 -42 -149 -97zM141 634h268c4 0 6 -2 7 -5v-4c1 -4 -2 -6 -6 -6h-268c-4 0 -6 2 -7 6v3c-1 4 2 6 6 6z" />
    <glyph glyph-name="ebreve" unicode="&#x115;" horiz-adv-x="486" 
d="M454 386l-1 -126c0 -4 -1 -6 -5 -6h-308l-1 -150c0 -5 1 -10 1 -15c6 -48 42 -82 148 -82c117 0 148 42 149 97l1 29c0 4 2 6 6 6h4c4 0 6 -2 6 -6l-1 -29c-1 -65 -33 -112 -165 -112c-115 0 -157 39 -163 94c-1 6 -2 12 -2 18l1 282c0 65 34 112 165 112
c115 0 157 -39 164 -94c0 -6 1 -12 1 -18zM140 386l-1 -117h298l1 117c0 5 0 10 -1 15c-6 47 -42 82 -148 82c-117 0 -149 -42 -149 -97zM192 682l1 -26c0 -11 0 -14 1 -18c5 -41 25 -62 87 -62c77 0 84 39 83 94v12c-1 5 1 6 6 6h4c4 0 5 -3 6 -6v-12
c1 -65 -10 -109 -100 -109c-70 0 -96 26 -102 77c-1 6 -1 7 -1 18l-1 26c-1 4 2 6 6 6h4c3 0 5 -1 6 -6z" />
    <glyph glyph-name="edotaccent" unicode="&#x117;" horiz-adv-x="486" 
d="M453 386v-126c-1 -4 -1 -6 -5 -6h-308l-1 -150c0 -5 0 -10 1 -15c6 -48 42 -82 148 -82c117 0 148 42 149 97v29c1 4 3 6 7 6h4c4 0 6 -2 5 -6v-29c-1 -65 -33 -112 -165 -112c-115 0 -157 39 -164 94c-1 6 -1 12 -1 18v282c0 65 35 112 166 112c115 0 156 -39 163 -94
c1 -6 2 -12 1 -18zM139 386v-117h298v117c1 5 0 10 0 15c-6 47 -43 82 -149 82c-117 0 -148 -42 -149 -97zM284 674v-75c1 -4 -2 -6 -5 -6h-4c-4 0 -7 1 -7 6v75c0 3 1 6 5 6h5c4 0 6 -2 6 -6z" />
    <glyph glyph-name="eogonek" unicode="&#x119;" horiz-adv-x="486" 
d="M434 386v-126c-1 -4 -2 -6 -6 -6h-308v-150c-1 -5 0 -10 1 -15c6 -48 42 -82 148 -82c117 0 148 42 149 97v29c1 4 2 6 6 6h4c4 0 7 -2 6 -6v-29c-1 -34 -10 -64 -38 -84c-22 -17 -57 -40 -51 -88c4 -34 30 -56 78 -56h35c4 0 6 -2 7 -6v-3c0 -4 -1 -6 -5 -6h-35
c-55 0 -90 24 -96 70c-4 29 5 51 21 69c-22 -5 -48 -8 -81 -8c-115 0 -157 39 -164 94c-1 6 -1 12 -1 18v282c0 65 34 112 165 112c115 0 157 -39 164 -94c1 -6 1 -12 1 -18zM120 386v-117h298v117c1 5 0 10 -1 15c-5 47 -42 82 -148 82c-117 0 -149 -42 -149 -97z" />
    <glyph glyph-name="gcircumflex" unicode="&#x11d;" 
d="M247 -8c-84 0 -127 40 -134 97c-1 5 -1 8 -1 15l1 282c0 65 39 112 134 112c87 0 151 -40 180 -64l2 50c0 5 2 6 6 6h2c5 0 5 -3 6 -6v-583c0 -65 -32 -112 -163 -112h-132c-4 0 -5 2 -6 6v3c-1 4 2 6 6 6h132c116 0 148 42 147 97l-1 154c-29 -24 -91 -63 -179 -63z
M129 386l-1 -282c0 -8 0 -9 1 -13c6 -49 43 -84 118 -84c92 0 156 47 180 66v343c-24 20 -88 67 -180 67c-81 0 -118 -42 -118 -97zM277 694l-77 -114c-3 -4 -4 -6 -7 -6h-6c-4 0 -6 3 -4 6l80 122c1 3 5 6 9 6h7c4 0 6 -2 9 -5l81 -123c2 -3 2 -6 -2 -6h-4c-3 0 -7 1 -10 6
z" />
    <glyph glyph-name="gbreve" unicode="&#x11f;" 
d="M246 -8c-84 0 -127 40 -134 97c-1 5 -1 8 -1 15v282c0 65 40 112 135 112c87 0 151 -40 179 -64l2 50c1 5 3 6 7 6h2c5 0 5 -3 5 -6l1 -583c0 -65 -32 -112 -163 -112h-132c-4 0 -6 2 -6 6v3c-1 4 2 6 6 6h132c116 0 148 42 147 97l-1 154c-29 -24 -91 -63 -179 -63z
M127 386v-282c0 -8 0 -9 1 -13c6 -49 43 -84 118 -84c92 0 156 47 180 66v343c-24 20 -89 67 -181 67c-81 0 -117 -42 -118 -97zM180 682l1 -26c1 -11 1 -14 1 -18c5 -41 25 -62 87 -62c77 0 84 39 84 94l-1 12c-1 5 1 6 6 6h4c4 0 6 -3 6 -6l1 -12
c0 -65 -10 -109 -100 -109c-70 0 -96 26 -103 77c0 6 0 7 -1 18l-1 26c0 4 2 6 6 6h4c3 0 5 -1 6 -6z" />
    <glyph glyph-name="gdotaccent" unicode="&#x121;" 
d="M245 -8c-84 0 -127 40 -134 97c0 5 -1 8 0 15v282c0 65 39 112 134 112c87 0 151 -40 180 -64l2 50c0 5 2 6 6 6h2c5 0 5 -3 6 -6v-583c0 -65 -32 -112 -163 -112h-132c-4 0 -5 2 -6 6v3c0 4 2 6 6 6h132c116 0 148 42 147 97v154c-30 -24 -92 -63 -180 -63zM127 386
v-282v-13c6 -49 43 -84 118 -84c92 0 157 47 180 66v343c-23 20 -88 67 -180 67c-81 0 -118 -42 -118 -97zM276 674v-75c0 -4 -3 -6 -6 -6h-4c-4 0 -7 1 -6 6v75c-1 3 1 6 5 6h5c4 0 5 -2 6 -6z" />
    <glyph glyph-name="gcommaaccent" unicode="&#x123;" 
d="M248 -8c-84 0 -127 40 -134 97c-1 5 -1 8 -1 15v282c0 65 39 112 134 112c87 0 151 -40 180 -64l2 50c1 5 2 6 6 6h2c5 0 6 -3 6 -6l1 -583c0 -65 -33 -112 -164 -112h-132c-4 0 -5 2 -5 6l-1 3c0 4 3 6 7 6h132c116 0 147 42 147 97l-1 154c-29 -24 -91 -63 -179 -63z
M129 386v-282v-13c6 -49 44 -84 119 -84c92 0 156 47 180 66l-1 343c-23 20 -88 67 -180 67c-81 0 -118 -42 -118 -97zM274 607v-25c1 -4 -2 -6 -6 -6h-4c-4 0 -5 2 -6 6v25c0 44 17 75 33 105c2 3 4 5 8 3l4 -2c2 -1 4 -3 2 -8c-19 -38 -31 -59 -31 -98z" />
    <glyph glyph-name="hcircumflex" unicode="&#x125;" horiz-adv-x="516" 
d="M165 693v-259c29 24 91 64 180 64c84 0 126 -39 133 -95c0 -3 1 -9 1 -17l1 -380c0 -4 -3 -6 -7 -6h-4c-3 0 -6 1 -5 6l-1 380c0 9 0 12 -1 14c-6 48 -43 83 -117 83c-93 0 -156 -47 -180 -67l1 -410c0 -4 -3 -6 -7 -6h-4c-3 0 -6 1 -5 6l-1 687c1 4 3 6 7 6h4
c3 0 6 -1 5 -6zM154 864l-77 -114c-2 -4 -4 -6 -7 -6h-6c-4 0 -5 3 -4 6l80 122c2 3 6 6 10 6h7c4 0 6 -2 8 -5l81 -123c3 -3 2 -6 -2 -6h-4c-3 0 -6 1 -10 6z" />
    <glyph glyph-name="hbar" unicode="&#x127;" horiz-adv-x="516" 
d="M154 693v-103h203c4 0 6 -2 7 -6v-3c1 -4 -1 -6 -5 -6h-205v-141c29 24 91 64 180 64c84 0 126 -39 133 -95c0 -3 1 -9 1 -17l1 -380c0 -4 -3 -6 -7 -6h-4c-3 0 -6 1 -5 6l-1 380c0 9 0 12 -1 14c-6 48 -43 83 -117 83c-93 0 -156 -47 -180 -67l1 -410c0 -4 -3 -6 -7 -6
h-4c-3 0 -6 1 -5 6l-1 569h-48c-4 0 -6 2 -7 6v3c-1 4 1 6 5 6h50v103c1 4 3 6 7 6h4c3 0 6 -1 5 -6z" />
    <glyph glyph-name="igrave" unicode="&#xec;" horiz-adv-x="208" 
d="M156 484l-1 -478c0 -4 -2 -6 -6 -6h-4c-3 0 -6 1 -6 6l1 478c-1 3 1 6 5 6h4c4 0 6 -2 7 -6zM134 577l-84 125c-1 2 -2 6 3 6h6c4 0 6 -2 8 -4l81 -125c2 -3 1 -5 -2 -5h-5c-4 0 -6 1 -7 3z" />
    <glyph glyph-name="iacute" unicode="&#xed;" horiz-adv-x="208" 
d="M156 484l-1 -478c0 -4 -2 -6 -6 -6h-4c-3 0 -6 1 -6 6l1 478c-1 3 1 6 5 6h4c4 0 6 -2 7 -6zM237 702l-84 -125c-1 -1 -2 -3 -6 -3h-7c-3 0 -4 2 -2 5l83 125c1 2 2 4 6 4h7c5 0 5 -3 3 -6z" />
    <glyph glyph-name="icircumflex" unicode="&#xee;" horiz-adv-x="208" 
d="M156 484l-1 -478c0 -4 -2 -6 -6 -6h-4c-3 0 -6 1 -6 6l1 478c-1 3 1 6 5 6h4c4 0 6 -2 7 -6zM146 694l-77 -114c-3 -4 -5 -6 -8 -6h-6c-4 0 -5 3 -3 6l80 122c1 3 5 6 9 6h7c4 0 6 -2 9 -5l81 -123c2 -3 1 -6 -3 -6h-4c-3 0 -6 1 -9 6z" />
    <glyph glyph-name="itilde" unicode="&#x129;" horiz-adv-x="208" 
d="M154 484v-478c0 -4 -2 -6 -6 -6h-4c-3 0 -6 1 -6 6v478c0 3 2 6 6 6h4c4 0 6 -2 6 -6zM78 675c-30 0 -40 -15 -39 -68l1 -10c0 -4 -3 -6 -7 -6h-4c-4 0 -5 2 -5 6l-1 10c0 65 17 83 53 83c14 0 33 -8 49 -24l43 -43c9 -9 22 -17 34 -17c30 0 39 13 39 68v10c-1 4 2 6 6 6
h4c4 0 5 -2 6 -6v-10c0 -65 -18 -83 -53 -83c-14 0 -32 8 -49 24l-43 42c-10 9 -22 18 -34 18z" />
    <glyph glyph-name="idieresis" unicode="&#xef;" horiz-adv-x="208" 
d="M155 484v-478c-1 -4 -3 -6 -7 -6h-4c-3 0 -6 1 -5 6v478c0 3 1 6 5 6h4c4 0 7 -2 7 -6zM116 694l1 -100c-1 -4 -3 -6 -7 -6h-4c-4 0 -5 2 -5 6l-1 100c1 4 3 6 7 6h4c4 0 5 -2 5 -6zM195 694l1 -100c-1 -4 -3 -6 -7 -6h-4c-4 0 -5 2 -5 6l-1 100c1 4 3 6 7 6h4
c4 0 5 -2 5 -6z" />
    <glyph glyph-name="imacron" unicode="&#x12b;" horiz-adv-x="208" 
d="M151 484v-478c-1 -4 -3 -6 -7 -6h-4c-3 0 -6 1 -5 6v478c0 3 1 6 5 6h4c4 0 7 -2 7 -6zM11 634h268c4 0 6 -2 6 -5l1 -4c0 -4 -3 -6 -7 -6h-268c-4 0 -6 2 -6 6l-1 3c0 4 3 6 7 6z" />
    <glyph glyph-name="ibreve" unicode="&#x12d;" horiz-adv-x="208" 
d="M154 484v-478c-1 -4 -2 -6 -6 -6h-4c-3 0 -6 1 -6 6v478c0 3 2 6 6 6h4c4 0 6 -2 6 -6zM57 682l1 -26c1 -11 1 -14 1 -18c5 -41 25 -62 87 -62c77 0 84 39 83 94v12c-1 5 1 6 6 6h4c4 0 6 -3 6 -6v-12c1 -65 -9 -109 -99 -109c-70 0 -96 26 -103 77c0 6 0 7 -1 18l-1 26
c0 4 2 6 6 6h4c3 0 5 -1 6 -6z" />
    <glyph glyph-name="iogonek" unicode="&#x12f;" horiz-adv-x="208" 
d="M146 484v-478c0 -4 -2 -6 -6 -6h-1c-55 -16 -70 -55 -67 -79c3 -29 26 -45 70 -45h18c4 0 6 -2 7 -6v-3c1 -4 -1 -6 -5 -6h-18c-53 0 -83 19 -89 61c-5 45 39 80 75 91v471c0 3 2 6 6 6h4c4 0 6 -2 6 -6zM146 693v-99c0 -4 -2 -6 -6 -6h-4c-4 0 -6 2 -6 6v99
c-1 4 2 6 6 6h4c3 0 6 -1 6 -6z" />
    <glyph glyph-name="ij" unicode="&#x133;" horiz-adv-x="415" 
d="M142 484v-478c-1 -4 -3 -6 -7 -6h-4c-3 0 -6 1 -5 6v478c0 3 1 6 5 6h4c4 0 7 -2 7 -6zM141 693l1 -99c0 -4 -3 -6 -7 -6h-4c-4 0 -5 2 -5 6l-1 99c0 4 3 6 7 6h4c3 0 6 -1 5 -6zM347 693v-99c0 -4 -2 -6 -6 -6h-4c-4 0 -6 2 -6 6v99c0 4 2 6 6 6h4c4 0 6 -2 6 -6z
M347 484v-583c0 -65 -34 -112 -162 -112h-3c-4 0 -5 2 -5 6l-1 3c0 4 2 6 6 6h3c114 0 145 42 146 97v583c0 3 1 6 6 6h4c4 0 6 -3 6 -6z" />
    <glyph glyph-name="dotlessi" unicode="&#x131;" horiz-adv-x="208" 
d="M142 484v-478c-1 -4 -2 -6 -6 -6h-4c-3 0 -7 1 -6 6v478c0 3 1 6 5 6h4c4 0 7 -2 7 -6z" />
    <glyph glyph-name="dotlessj" unicode="&#x237;" horiz-adv-x="207" 
d="M126 484v-583c0 -65 -33 -112 -160 -112h-3c-4 0 -6 2 -6 6l-1 3c0 4 2 6 6 6h3c113 0 145 42 145 97v583c0 3 1 6 6 6h4c4 0 6 -3 6 -6z" />
    <glyph glyph-name="jcircumflex" unicode="&#x135;" horiz-adv-x="207" 
d="M140 484l-1 -583c0 -65 -33 -112 -160 -112h-3c-4 0 -5 2 -6 6v3c-1 4 1 6 5 6h3c113 0 145 42 145 97l1 583c-1 3 1 6 6 6h4c4 0 5 -3 6 -6zM123 694l-77 -114c-3 -4 -4 -6 -7 -6h-6c-4 0 -6 3 -4 6l80 122c1 3 5 6 9 6h7c4 0 6 -2 9 -5l81 -123c2 -3 2 -6 -2 -6h-4
c-3 0 -7 1 -10 6z" />
    <glyph glyph-name="kcommaaccent" unicode="&#x137;" horiz-adv-x="429" 
d="M443 0h-6c-5 0 -8 1 -13 6l-237 263h-45v-263c-1 -4 -2 -6 -6 -6h-4c-5 0 -6 3 -6 6v687c0 4 2 6 6 6h4c5 0 5 -3 6 -6v-409h41l209 201c3 3 7 5 11 5h8c6 0 5 -4 3 -6l-214 -206l245 -272c3 -3 1 -6 -2 -6zM256 -81v25c-1 4 2 6 6 6h4c4 0 5 -2 6 -6v-25
c0 -44 -17 -75 -33 -105c-2 -3 -4 -5 -8 -3l-4 2c-2 1 -5 3 -2 8c19 38 30 59 31 98z" />
    <glyph glyph-name="kgreenlandic" unicode="&#x138;" horiz-adv-x="429" 
d="M442 0h-6c-5 0 -9 1 -13 6l-237 263h-45v-263c-1 -4 -2 -6 -6 -6h-4c-5 0 -6 3 -6 6v478c1 4 2 6 6 6h4c5 0 6 -3 6 -6v-200h41l209 201c3 3 6 5 10 5h8c6 0 6 -4 4 -6l-215 -206l246 -272c3 -3 1 -6 -2 -6z" />
    <glyph glyph-name="lacute" unicode="&#x13a;" horiz-adv-x="208" 
d="M164 693l1 -687c0 -3 -2 -6 -6 -6h-5c-4 0 -5 2 -5 6l-1 687c1 4 3 6 7 6h4c4 0 5 -2 5 -6zM249 872l-83 -125c-1 -1 -2 -3 -6 -3h-7c-3 0 -4 2 -3 5l83 125c2 2 3 4 7 4h7c5 0 5 -3 2 -6z" />
    <glyph glyph-name="lcaron" unicode="&#x13e;" horiz-adv-x="208" 
d="M153 693l1 -687c0 -3 -2 -6 -6 -6h-5c-4 0 -5 2 -5 6l-1 687c1 4 3 6 7 6h4c4 0 5 -2 5 -6zM245 668v25c0 4 3 6 7 6h4c4 0 5 -2 5 -6v-25c1 -44 -16 -75 -33 -105c-1 -3 -3 -5 -7 -3l-5 2c-2 1 -4 3 -2 8c20 38 31 59 31 98z" />
    <glyph glyph-name="lcommaaccent" unicode="&#x13c;" horiz-adv-x="208" 
d="M142 693v-687c0 -3 -1 -6 -5 -6h-5c-4 0 -6 2 -6 6v687c0 4 2 6 6 6h4c4 0 5 -2 6 -6zM126 -81v25c-1 4 2 6 6 6h4c4 0 5 -2 6 -6v-25c0 -44 -17 -75 -33 -105c-2 -3 -4 -5 -8 -3l-4 2c-2 1 -5 3 -2 8c19 38 30 59 31 98z" />
    <glyph glyph-name="ldot" unicode="&#x140;" horiz-adv-x="234" 
d="M153 693l1 -687c0 -3 -2 -6 -6 -6h-5c-4 0 -5 2 -5 6l-1 687c1 4 3 6 7 6h4c4 0 5 -2 5 -6zM261 392v-75c1 -4 -2 -6 -5 -6h-4c-4 0 -7 1 -7 6v75c0 3 2 6 6 6h5c4 0 5 -2 5 -6z" />
    <glyph glyph-name="lslash" unicode="&#x142;" horiz-adv-x="208" 
d="M153 693v-342l76 31c2 1 5 0 6 -2l2 -5c2 -3 -1 -6 -4 -7l-80 -34l1 -328c0 -3 -2 -6 -6 -6h-5c-4 0 -5 2 -5 6l-1 322l-77 -32c-3 -1 -6 -1 -7 3l-2 3c-1 4 0 7 3 8l83 34v349c1 4 3 6 7 6h4c4 0 5 -2 5 -6z" />
    <glyph glyph-name="nacute" unicode="&#x144;" horiz-adv-x="516" 
d="M145 490h2c4 0 6 -2 7 -6l1 -50c29 24 91 64 180 64c84 0 127 -39 133 -95c1 -2 1 -8 2 -17l-1 -380c0 -4 -2 -6 -6 -6h-4c-3 0 -6 1 -6 6l1 380c-1 9 -1 12 -1 13c-6 48 -42 84 -117 84c-93 0 -158 -47 -181 -67v-410c0 -4 -2 -6 -6 -6h-4c-3 0 -6 1 -6 6l1 478
c-1 4 1 6 5 6zM411 702l-84 -125c-1 -1 -2 -3 -6 -3h-7c-3 0 -4 2 -2 5l83 125c1 2 2 4 6 4h7c5 0 5 -3 3 -6z" />
    <glyph glyph-name="ncaron" unicode="&#x148;" horiz-adv-x="516" 
d="M145 490h2c4 0 6 -2 7 -6l1 -50c29 24 91 64 180 64c84 0 127 -39 133 -95c1 -2 1 -8 2 -17l-1 -380c0 -4 -2 -6 -6 -6h-4c-3 0 -6 1 -6 6l1 380c-1 9 -1 12 -1 13c-6 48 -42 84 -117 84c-93 0 -158 -47 -181 -67v-410c0 -4 -2 -6 -6 -6h-4c-3 0 -6 1 -6 6l1 478
c-1 4 1 6 5 6zM230 702l76 -114l77 114c3 5 6 6 8 6h6c4 0 5 -3 3 -6l-81 -123c-2 -3 -5 -5 -9 -5h-6c-4 0 -7 3 -9 6l-81 122c-3 3 -1 6 3 6h5c3 0 5 -2 8 -6z" />
    <glyph glyph-name="ntilde" unicode="&#xf1;" horiz-adv-x="516" 
d="M144 490h2c4 0 6 -2 6 -6l2 -50c29 24 91 64 180 64c84 0 127 -39 133 -95c1 -2 1 -8 1 -17v-380c0 -4 -2 -6 -6 -6h-4c-3 0 -6 1 -6 6v380v13c-6 48 -42 84 -117 84c-93 0 -158 -47 -181 -67v-410c0 -4 -2 -6 -6 -6h-4c-3 0 -6 1 -6 6v478c0 4 2 6 6 6zM234 675
c-30 0 -40 -15 -39 -68l1 -10c0 -4 -3 -6 -7 -6h-4c-4 0 -5 2 -5 6l-1 10c0 65 17 83 53 83c14 0 33 -8 49 -24l43 -43c9 -9 22 -17 34 -17c30 0 39 13 39 68v10c-1 4 2 6 6 6h4c4 0 5 -2 6 -6v-10c0 -65 -18 -83 -53 -83c-14 0 -32 8 -49 24l-43 42c-10 9 -22 18 -34 18z
" />
    <glyph glyph-name="ncommaaccent" unicode="&#x146;" horiz-adv-x="516" 
d="M120 490h2c4 0 6 -2 7 -6l1 -50c29 24 91 64 180 64c84 0 127 -39 134 -95c0 -2 1 -8 1 -17v-380c-1 -4 -3 -6 -7 -6h-4c-3 0 -6 1 -5 6v380c0 9 -1 12 -1 13c-6 48 -42 84 -117 84c-93 0 -157 -47 -181 -67l1 -410c-1 -4 -3 -6 -7 -6h-4c-3 0 -6 1 -5 6v478
c-1 4 1 6 5 6zM276 -81v25c0 4 2 6 6 6h4c4 0 6 -2 6 -6v-25c1 -44 -16 -75 -33 -105c-1 -3 -3 -5 -7 -3l-5 2c-2 1 -4 3 -2 8c20 38 31 59 31 98z" />
    <glyph glyph-name="napostrophe" unicode="&#x149;" horiz-adv-x="516" 
d="M144 490h2c4 0 6 -2 7 -6l1 -50c29 24 91 64 180 64c84 0 127 -39 134 -95c0 -2 1 -8 1 -17v-380c-1 -4 -3 -6 -7 -6h-4c-3 0 -6 1 -5 6v380c0 9 0 12 -1 13c-5 48 -42 84 -117 84c-93 0 -157 -47 -181 -67l1 -410c-1 -4 -3 -6 -7 -6h-4c-3 0 -6 1 -5 6v478c-1 4 1 6 5 6
zM137 668v25c0 4 3 6 7 6h4c4 0 5 -2 5 -6v-25c1 -44 -16 -75 -33 -105c-1 -3 -3 -5 -7 -3l-5 2c-2 1 -4 3 -2 8c20 38 31 59 31 98z" />
    <glyph glyph-name="ograve" unicode="&#xf2;" horiz-adv-x="498" 
d="M125 104v282c0 65 34 112 165 112c115 0 157 -39 164 -94c0 -3 1 -7 1 -18v-282c0 -65 -35 -112 -166 -112c-115 0 -156 39 -163 94c-1 5 -1 10 -1 18zM439 104v282c0 9 -1 13 -1 15c-6 47 -42 82 -148 82c-117 0 -149 -42 -149 -97v-282c0 -8 0 -12 1 -15
c5 -48 42 -82 148 -82c117 0 148 42 149 97zM270 577l-85 125c-1 2 -1 6 4 6h6c4 0 6 -2 7 -4l81 -125c3 -3 2 -5 -1 -5h-5c-4 0 -6 1 -7 3z" />
    <glyph glyph-name="oacute" unicode="&#xf3;" horiz-adv-x="498" 
d="M125 104v282c0 65 34 112 165 112c115 0 157 -39 164 -94c0 -3 1 -7 1 -18v-282c0 -65 -35 -112 -166 -112c-115 0 -156 39 -163 94c-1 5 -1 10 -1 18zM439 104v282c0 9 -1 13 -1 15c-6 47 -42 82 -148 82c-117 0 -149 -42 -149 -97v-282c0 -8 0 -12 1 -15
c5 -48 42 -82 148 -82c117 0 148 42 149 97zM376 702l-83 -125c-1 -1 -2 -3 -6 -3h-7c-3 0 -4 2 -3 5l83 125c2 2 3 4 7 4h7c5 0 5 -3 2 -6z" />
    <glyph glyph-name="ocircumflex" unicode="&#xf4;" horiz-adv-x="498" 
d="M125 104v282c0 65 34 112 165 112c115 0 157 -39 164 -94c0 -3 1 -7 1 -18v-282c0 -65 -35 -112 -166 -112c-115 0 -156 39 -163 94c-1 5 -1 10 -1 18zM439 104v282c0 9 -1 13 -1 15c-6 47 -42 82 -148 82c-117 0 -149 -42 -149 -97v-282c0 -8 0 -12 1 -15
c5 -48 42 -82 148 -82c117 0 148 42 149 97zM287 694l-77 -114c-2 -4 -4 -6 -7 -6h-6c-4 0 -5 3 -4 6l80 122c2 3 6 6 10 6h7c4 0 6 -2 8 -5l81 -123c3 -3 2 -6 -2 -6h-4c-3 0 -6 1 -10 6z" />
    <glyph glyph-name="otilde" unicode="&#xf5;" horiz-adv-x="498" 
d="M124 104v282c0 65 34 112 165 112c115 0 157 -39 164 -94c0 -3 1 -7 1 -18v-282c0 -65 -35 -112 -166 -112c-115 0 -156 39 -163 94c-1 5 -1 10 -1 18zM438 104v282c0 9 -1 13 -1 15c-6 47 -42 82 -148 82c-117 0 -149 -42 -149 -97v-282v-15c6 -48 43 -82 149 -82
c117 0 148 42 149 97zM218 675c-30 0 -40 -15 -38 -68v-10c1 -4 -2 -6 -6 -6h-4c-4 0 -5 2 -6 6v10c0 65 17 83 53 83c14 0 33 -8 49 -24l43 -43c9 -9 22 -17 34 -17c30 0 38 13 39 68l-1 10c0 4 3 6 7 6h4c4 0 5 -2 5 -6l1 -10c0 -65 -18 -83 -53 -83c-14 0 -32 8 -49 24
l-43 42c-10 9 -23 18 -35 18z" />
    <glyph glyph-name="odieresis" unicode="&#xf6;" horiz-adv-x="498" 
d="M124 104l1 282c0 65 34 112 165 112c115 0 157 -39 163 -94c1 -3 1 -7 2 -18l-1 -282c0 -65 -34 -112 -165 -112c-115 0 -157 39 -164 94c0 5 -1 10 -1 18zM438 104l1 282c-1 9 -1 13 -1 15c-6 47 -42 82 -148 82c-117 0 -149 -42 -149 -97l-1 -282c0 -8 1 -12 1 -15
c6 -48 42 -82 148 -82c117 0 149 42 149 97zM250 694v-100c0 -4 -2 -6 -6 -6h-4c-4 0 -5 2 -6 6v100c0 4 2 6 6 6h4c4 0 5 -2 6 -6zM329 694v-100c0 -4 -2 -6 -6 -6h-4c-4 0 -5 2 -6 6v100c0 4 2 6 6 6h4c4 0 5 -2 6 -6z" />
    <glyph glyph-name="omacron" unicode="&#x14d;" horiz-adv-x="498" 
d="M120 104l1 282c0 65 34 112 165 112c115 0 157 -39 163 -94c1 -3 1 -7 2 -18l-1 -282c0 -65 -34 -112 -165 -112c-115 0 -157 39 -164 94c0 5 -1 10 -1 18zM434 104l1 282c-1 9 -1 13 -1 15c-6 47 -42 82 -148 82c-117 0 -149 -42 -149 -97l-1 -282c0 -8 1 -12 1 -15
c6 -48 42 -82 148 -82c117 0 149 42 149 97zM150 634h268c4 0 6 -2 7 -5v-4c1 -4 -2 -6 -6 -6h-268c-4 0 -6 2 -7 6v3c-1 4 2 6 6 6z" />
    <glyph glyph-name="obreve" unicode="&#x14f;" horiz-adv-x="498" 
d="M123 104l1 282c0 65 34 112 165 112c115 0 157 -39 164 -94c0 -3 1 -7 1 -18l-1 -282c0 -65 -34 -112 -165 -112c-115 0 -157 39 -163 94c-1 5 -2 10 -2 18zM437 104l1 282c0 9 -1 13 -1 15c-6 47 -42 82 -148 82c-117 0 -149 -42 -149 -97l-1 -282c0 -8 1 -12 1 -15
c6 -48 42 -82 148 -82c117 0 149 42 149 97zM201 682l1 -26c0 -11 0 -14 1 -18c5 -41 25 -62 87 -62c77 0 84 39 83 94v12c-1 5 1 6 6 6h4c4 0 5 -3 6 -6v-12c1 -65 -10 -109 -100 -109c-70 0 -96 26 -102 77c-1 6 -1 7 -1 18l-1 26c-1 4 2 6 6 6h4c3 0 5 -1 6 -6z" />
    <glyph glyph-name="ohungarumlaut" unicode="&#x151;" horiz-adv-x="498" 
d="M125 104v282c0 65 34 112 165 112c115 0 157 -39 164 -94c0 -3 1 -7 1 -18v-282c0 -65 -35 -112 -166 -112c-115 0 -156 39 -163 94c-1 5 -1 10 -1 18zM439 104v282c0 9 -1 13 -1 15c-6 47 -42 82 -148 82c-117 0 -149 -42 -149 -97v-282c0 -8 0 -12 1 -15
c5 -48 42 -82 148 -82c117 0 148 42 149 97zM410 702l-83 -124c-3 -3 -6 -4 -8 -4h-4c-4 0 -4 3 -3 6l80 122c2 3 6 6 10 6h6c5 0 4 -3 2 -6zM334 702l-69 -122c-2 -4 -5 -6 -8 -6h-4c-4 0 -3 4 -3 6l66 122c2 3 5 6 9 6h6c5 0 5 -3 3 -6z" />
    <glyph glyph-name="oslash" unicode="&#xf8;" horiz-adv-x="498" 
d="M112 104v282c0 65 35 112 166 112c57 0 95 -10 121 -26l21 37c2 3 5 6 9 6h6c4 0 4 -3 2 -6l-26 -46c18 -16 27 -36 30 -59c1 -6 2 -12 1 -18v-282c0 -65 -34 -112 -165 -112c-58 0 -97 10 -124 27l-19 -35c-2 -3 -4 -6 -9 -6h-6c-3 0 -4 3 -2 6l24 44
c-17 15 -25 35 -28 58c-1 6 -1 12 -1 18zM426 104v282c1 5 0 10 0 15c-3 18 -10 34 -23 48l-241 -417c23 -16 59 -25 115 -25c117 0 149 42 149 97zM129 89c2 -18 8 -34 21 -47l241 416c-23 16 -60 25 -114 25c-117 0 -148 -42 -149 -97v-282c0 -5 0 -10 1 -15z" />
    <glyph glyph-name="oslashacute" unicode="&#x1ff;" horiz-adv-x="498" 
d="M124 104v282c0 65 34 112 165 112c57 0 96 -10 122 -26l21 37c2 3 4 6 8 6h6c4 0 5 -3 3 -6l-26 -46c18 -16 27 -36 30 -59c1 -6 1 -12 1 -18v-282c0 -65 -34 -112 -165 -112c-58 0 -98 10 -124 27l-19 -35c-2 -3 -4 -6 -9 -6h-6c-3 0 -4 3 -2 6l24 44
c-17 15 -25 35 -28 58c-1 6 -1 12 -1 18zM438 104v282c1 5 0 10 -1 15c-2 18 -9 34 -23 48l-240 -417c23 -16 59 -25 115 -25c117 0 149 42 149 97zM141 89c2 -18 8 -34 20 -47l241 416c-23 16 -59 25 -113 25c-117 0 -149 -42 -149 -97v-282c-1 -5 0 -10 1 -15zM371 702
l-83 -125c-1 -1 -2 -3 -6 -3h-7c-3 0 -4 2 -2 5l82 125c2 2 3 4 7 4h7c5 0 5 -3 2 -6z" />
    <glyph glyph-name="oe" unicode="&#x153;" horiz-adv-x="800" 
d="M591 -8c-99 0 -143 28 -158 71c-14 -43 -54 -71 -156 -71c-115 0 -157 39 -164 94c-1 6 -1 12 -1 18v282c0 65 34 112 165 112c100 0 143 -29 156 -73c14 44 55 73 158 73c115 0 157 -39 164 -94c1 -6 1 -12 1 -18v-126c0 -4 -2 -6 -6 -6h-308v-150c0 -7 0 -10 1 -15
c6 -48 42 -82 148 -82c117 0 148 42 149 97v29c0 4 3 6 7 6h4c4 0 5 -2 5 -6v-29c-1 -65 -33 -112 -165 -112zM426 104v282c1 5 0 10 -1 15c-5 47 -42 82 -148 82c-117 0 -149 -42 -149 -97v-282c-1 -5 0 -10 1 -15c6 -48 42 -82 148 -82c117 0 149 42 149 97zM740 269v117
c1 5 0 10 -1 15c-5 47 -42 82 -148 82c-117 0 -149 -42 -149 -97v-117h298z" />
    <glyph glyph-name="racute" unicode="&#x155;" horiz-adv-x="322" 
d="M334 497c4 0 6 -2 7 -6v-6c1 -4 -3 -4 -7 -4c-74 0 -153 -53 -179 -75v-400c1 -3 -1 -6 -6 -6h-4c-3 0 -6 1 -6 6l1 478c0 4 1 6 5 6h2c4 0 6 -2 7 -6l1 -62c31 25 103 75 179 75zM305 702l-84 -125c-1 -1 -2 -3 -6 -3h-7c-3 0 -4 2 -2 5l83 125c1 2 2 4 6 4h7
c5 0 5 -3 3 -6z" />
    <glyph glyph-name="rcommaaccent" unicode="&#x157;" horiz-adv-x="322" 
d="M309 497c4 0 7 -2 7 -6l1 -6c0 -4 -4 -4 -8 -4c-74 0 -152 -53 -179 -75l1 -400c0 -3 -2 -6 -7 -6h-4c-3 0 -6 1 -5 6v478c0 4 1 6 5 6h2c4 0 6 -2 7 -6l1 -62c31 25 103 75 179 75zM114 -81v25c0 4 2 6 6 6h4c4 0 6 -2 6 -6v-25c1 -44 -17 -75 -33 -105
c-2 -3 -3 -5 -8 -3l-4 2c-2 1 -4 3 -2 8c20 38 31 59 31 98z" />
    <glyph glyph-name="rcaron" unicode="&#x159;" horiz-adv-x="322" 
d="M334 497c4 0 6 -2 7 -6v-6c1 -4 -3 -4 -7 -4c-74 0 -153 -53 -179 -75v-400c1 -3 -1 -6 -6 -6h-4c-3 0 -6 1 -6 6l1 478c0 4 1 6 5 6h2c4 0 6 -2 7 -6l1 -62c31 25 103 75 179 75zM138 702l76 -114l77 114c3 5 6 6 8 6h6c4 0 5 -3 3 -6l-81 -123c-2 -3 -5 -5 -9 -5h-6
c-4 0 -7 3 -9 6l-81 122c-3 3 -1 6 3 6h5c3 0 5 -2 8 -6z" />
    <glyph glyph-name="sacute" unicode="&#x15b;" horiz-adv-x="460" 
d="M418 364v29c0 9 0 14 -1 20c-5 36 -43 71 -142 71c-102 0 -143 -36 -142 -83v-42c0 -8 1 -12 1 -14c4 -31 34 -53 67 -62l162 -46c43 -12 74 -35 78 -71c1 -8 1 -15 1 -15v-61c1 -56 -50 -98 -167 -98c-105 0 -156 38 -162 87c-1 5 -1 14 -1 15v27c-1 4 2 5 6 5h5
c1 0 5 0 5 -5v-26v-13c6 -46 53 -75 148 -75c104 0 150 36 150 84v59c0 1 0 7 -1 14c-4 35 -37 49 -69 58l-163 47c-32 9 -71 36 -76 75c0 2 -1 7 0 14v43c1 56 42 97 158 97c102 0 152 -37 158 -84c1 -8 1 -10 1 -20v-30c0 -3 -2 -5 -6 -5h-5c-3 0 -5 2 -5 5zM352 702
l-83 -125c-1 -1 -2 -3 -6 -3h-7c-3 0 -4 2 -3 5l83 125c2 2 3 4 7 4h7c5 0 5 -3 2 -6z" />
    <glyph glyph-name="scircumflex" unicode="&#x15d;" horiz-adv-x="460" 
d="M418 364v29c0 9 0 14 -1 20c-5 36 -43 71 -142 71c-102 0 -143 -36 -142 -83v-42c0 -8 1 -12 1 -14c4 -31 34 -53 67 -62l162 -46c43 -12 74 -35 78 -71c1 -8 1 -15 1 -15v-61c1 -56 -50 -98 -167 -98c-105 0 -156 38 -162 87c-1 5 -1 14 -1 15v27c-1 4 2 5 6 5h5
c1 0 5 0 5 -5v-26v-13c6 -46 53 -75 148 -75c104 0 150 36 150 84v59c0 1 0 7 -1 14c-4 35 -37 49 -69 58l-163 47c-32 9 -71 36 -76 75c0 2 -1 7 0 14v43c1 56 42 97 158 97c102 0 152 -37 158 -84c1 -8 1 -10 1 -20v-30c0 -3 -2 -5 -6 -5h-5c-3 0 -5 2 -5 5zM262 694
l-77 -114c-2 -4 -4 -6 -7 -6h-6c-4 0 -5 3 -4 6l80 122c2 3 6 6 10 6h7c4 0 6 -2 8 -5l81 -123c3 -3 2 -6 -2 -6h-4c-3 0 -6 1 -10 6z" />
    <glyph glyph-name="scaron" unicode="&#x161;" horiz-adv-x="460" 
d="M418 364v29c0 9 0 14 -1 20c-5 36 -43 71 -142 71c-102 0 -143 -36 -142 -83v-42c0 -8 1 -12 1 -14c4 -31 34 -53 67 -62l162 -46c43 -12 74 -35 78 -71c1 -8 1 -15 1 -15v-61c1 -56 -50 -98 -167 -98c-105 0 -156 38 -162 87c-1 5 -1 14 -1 15v27c-1 4 2 5 6 5h5
c1 0 5 0 5 -5v-26v-13c6 -46 53 -75 148 -75c104 0 150 36 150 84v59c0 1 0 7 -1 14c-4 35 -37 49 -69 58l-163 47c-32 9 -71 36 -76 75c0 2 -1 7 0 14v43c1 56 42 97 158 97c102 0 152 -37 158 -84c1 -8 1 -10 1 -20v-30c0 -3 -2 -5 -6 -5h-5c-3 0 -5 2 -5 5zM181 702
l76 -114l77 114c4 5 7 6 9 6h6c4 0 5 -3 2 -6l-81 -123c-1 -3 -4 -5 -8 -5h-6c-4 0 -7 3 -10 6l-81 122c-2 3 0 6 4 6h5c3 0 5 -2 7 -6z" />
    <glyph glyph-name="scedilla" unicode="&#x15f;" horiz-adv-x="460" 
d="M242 -56h42c30 0 72 -16 78 -65c9 -74 -43 -90 -78 -90h-121c-4 0 -5 2 -6 6v4c-1 4 2 6 6 6h121c25 0 69 12 61 72c-5 40 -39 51 -61 51h-53c-5 0 -8 3 -7 8l16 56c-98 2 -147 39 -153 87v15l-1 27c0 4 3 5 7 5h5c1 0 5 0 4 -5v-26s0 -8 1 -13c6 -46 52 -75 147 -75
c104 0 151 36 151 84v59c0 1 0 7 -1 14c-4 35 -37 49 -69 58l-163 47c-32 9 -71 36 -76 75c0 2 -1 7 -1 14l1 43c1 56 42 97 158 97c102 0 152 -37 157 -84c1 -8 2 -10 2 -20l-1 -30c1 -3 -1 -5 -5 -5h-5c-3 0 -5 2 -6 5l1 29c0 9 -1 14 -2 20c-4 36 -42 71 -141 71
c-102 0 -143 -36 -142 -83v-42c0 -8 1 -12 1 -14c4 -31 33 -53 66 -62l163 -46c42 -12 73 -35 78 -71c1 -8 1 -15 1 -15v-61c1 -55 -49 -96 -162 -98z" />
    <glyph glyph-name="scommaaccent" unicode="&#x219;" horiz-adv-x="460" 
d="M394 364v29c0 9 -1 14 -1 20c-5 36 -43 71 -142 71c-102 0 -143 -36 -142 -83v-42c0 -8 1 -12 1 -14c4 -31 34 -53 67 -62l162 -46c43 -12 74 -35 78 -71c1 -8 1 -15 1 -15v-61c1 -56 -50 -98 -167 -98c-105 0 -156 38 -162 87c-1 5 -1 14 -1 15v27c-1 4 2 5 6 5h5
c1 0 5 0 5 -5v-26v-13c6 -46 53 -75 148 -75c104 0 150 36 150 84v59c0 1 0 7 -1 14c-4 35 -37 49 -69 58l-163 47c-32 9 -71 36 -76 75c0 2 -1 7 -1 14l1 43c1 56 42 97 158 97c102 0 152 -37 158 -84c1 -8 1 -10 1 -20v-30c0 -3 -2 -5 -6 -5h-5c-3 0 -5 2 -5 5zM256 -80
v25c0 4 2 6 6 6h4c4 0 6 -2 6 -6v-25c1 -44 -17 -75 -33 -105c-2 -3 -3 -5 -8 -3l-4 2c-2 1 -4 3 -2 8c20 38 31 59 31 98z" />
    <glyph glyph-name="germandbls" unicode="&#xdf;" horiz-adv-x="570" 
d="M168 596l1 -590c-1 -4 -3 -6 -7 -6h-4c-3 0 -6 1 -5 6l-1 468h-70c-3 0 -5 1 -5 4l-1 3c0 4 3 6 7 6l68 2h1v107c0 65 39 112 170 112c117 0 160 -40 167 -97c1 -5 1 -15 2 -25v-28c1 -62 -62 -77 -83 -81l-61 -12c-20 -4 -72 -11 -72 -61v-7v-13c6 -43 56 -62 73 -67
l120 -40c21 -7 88 -26 94 -81c1 -4 2 -13 2 -19v-73c0 -65 -25 -112 -156 -112c-112 0 -146 36 -153 90c0 7 -1 14 -1 22v16c0 4 2 6 6 6h3c4 0 6 -2 7 -6v-16c0 -7 0 -13 1 -20c6 -45 35 -77 138 -77c117 0 138 42 139 97v65c-1 10 0 15 -1 25c-6 46 -64 61 -83 67l-120 40
c-21 7 -78 32 -84 81c-1 1 -1 8 -1 15v7c1 62 61 72 84 77l61 12c18 3 71 15 71 66v27c-1 9 -1 18 -1 23c-6 48 -45 84 -153 84c-117 0 -152 -42 -153 -97z" />
    <glyph glyph-name="longs" unicode="&#x17f;" horiz-adv-x="298" 
d="M164 591v-796c0 -4 -2 -6 -6 -6h-4c-4 0 -6 2 -6 6l1 679h-70c-4 0 -7 2 -7 6v1c-1 4 2 6 6 6l57 2h13v102c0 65 33 112 163 112h3c4 0 6 -2 6 -6v-3c1 -5 -2 -6 -6 -6h-3c-117 0 -147 -42 -147 -97z" />
    <glyph glyph-name="tcaron" unicode="&#x165;" horiz-adv-x="333" 
d="M168 474l1 -362c0 -9 0 -12 1 -16c5 -47 41 -81 146 -81h13c4 0 5 -2 5 -6l1 -3c-1 -4 -3 -6 -7 -6h-13c-115 0 -154 38 -161 93c-1 6 -1 10 -1 19l-1 362h-70c-4 0 -5 2 -6 6v1c0 4 3 6 7 6l68 2h1v114c0 4 3 6 7 6h4c4 0 5 -2 5 -6v-114h131c4 0 6 -2 6 -6l1 -4
c0 -4 -3 -5 -7 -5h-131zM261 668v25c0 4 3 6 7 6h4c4 0 5 -2 5 -6v-25c1 -44 -16 -75 -33 -105c-1 -3 -3 -5 -7 -3l-5 2c-2 1 -4 3 -2 8c20 38 31 59 31 98z" />
    <glyph glyph-name="tcommaaccent" unicode="&#x163;" horiz-adv-x="333" 
d="M151 474v-362c1 -9 1 -12 1 -16c6 -47 41 -81 146 -81h13c4 0 6 -2 6 -6v-3c0 -4 -2 -6 -6 -6h-13c-115 0 -155 38 -161 93c-1 6 -1 10 -2 19v362h-70c-4 0 -5 2 -6 6v1c0 4 2 6 6 6l69 2h1v114c0 4 2 6 6 6h4c4 0 6 -2 6 -6v-114h131c4 0 5 -2 6 -6v-4c1 -4 -2 -5 -6 -5
h-131zM139 -81v25c0 4 2 6 6 6h4c4 0 6 -2 6 -6v-25c1 -44 -17 -75 -33 -105c-2 -3 -3 -5 -8 -3l-4 2c-2 1 -4 3 -2 8c19 38 31 59 31 98z" />
    <glyph glyph-name="tbar" unicode="&#x167;" horiz-adv-x="333" 
d="M163 474l-1 -136h131c4 0 7 -2 7 -6v-3c1 -4 -1 -6 -5 -6h-133l1 -211c0 -9 1 -12 1 -16c6 -47 41 -81 146 -81h13c4 0 5 -2 6 -6v-3c0 -4 -2 -6 -6 -6h-13c-115 0 -155 38 -162 93c0 6 -1 10 -1 19l-1 211h-68c-4 0 -6 2 -7 6v3c0 4 1 6 5 6h70l1 136h-70
c-4 0 -6 2 -6 6v1c-1 4 2 6 6 6l69 2h1v114c-1 4 2 6 6 6h4c4 0 5 -2 6 -6v-114h131c4 0 5 -2 6 -6v-4c1 -4 -2 -5 -6 -5h-131z" />
    <glyph glyph-name="ugrave" unicode="&#xf9;" 
d="M441 6l-2 49c-27 -24 -86 -63 -174 -63c-84 0 -126 39 -133 95c-1 4 -1 7 -1 17v380c1 4 2 6 6 6h4c3 0 6 -1 6 -6v-380v-13c6 -49 43 -84 119 -84c92 0 150 46 174 66l-1 411c0 4 2 6 6 6h4c3 0 6 -1 6 -6v-478c0 -3 -1 -6 -5 -6h-3c-4 0 -6 2 -6 6zM280 577l-85 125
c-1 2 -1 6 4 6h6c4 0 6 -2 7 -4l81 -125c3 -3 2 -5 -1 -5h-5c-4 0 -6 1 -7 3z" />
    <glyph glyph-name="uacute" unicode="&#xfa;" 
d="M441 6l-2 49c-27 -24 -86 -63 -174 -63c-84 0 -126 39 -133 95c-1 4 -1 7 -1 17v380c1 4 2 6 6 6h4c3 0 6 -1 6 -6v-380v-13c6 -49 43 -84 119 -84c92 0 150 46 174 66l-1 411c0 4 2 6 6 6h4c3 0 6 -1 6 -6v-478c0 -3 -1 -6 -5 -6h-3c-4 0 -6 2 -6 6zM371 702l-83 -125
c-1 -1 -2 -3 -6 -3h-7c-3 0 -4 2 -3 5l83 125c2 2 3 4 7 4h7c5 0 5 -3 2 -6z" />
    <glyph glyph-name="ucircumflex" unicode="&#xfb;" 
d="M441 6l-2 49c-27 -24 -86 -63 -174 -63c-84 0 -126 39 -133 95c-1 4 -1 7 -1 17v380c1 4 2 6 6 6h4c3 0 6 -1 6 -6v-380v-13c6 -49 43 -84 119 -84c92 0 150 46 174 66l-1 411c0 4 2 6 6 6h4c3 0 6 -1 6 -6v-478c0 -3 -1 -6 -5 -6h-3c-4 0 -6 2 -6 6zM285 694l-77 -114
c-2 -4 -4 -6 -7 -6h-6c-4 0 -5 3 -4 6l80 122c2 3 6 6 10 6h7c4 0 6 -2 8 -5l81 -123c3 -3 2 -6 -2 -6h-4c-3 0 -6 1 -10 6z" />
    <glyph glyph-name="utilde" unicode="&#x169;" 
d="M440 6l-2 49c-27 -24 -86 -63 -174 -63c-84 0 -126 39 -133 95c-1 4 -1 7 -1 17v380c0 4 2 6 6 6h4c3 0 6 -1 6 -6v-380v-13c6 -49 43 -84 119 -84c92 0 150 46 173 66v411c-1 4 2 6 6 6h4c3 0 6 -1 6 -6v-478c0 -3 -1 -6 -5 -6h-3c-4 0 -6 2 -6 6zM222 675
c-30 0 -40 -15 -38 -68v-10c1 -4 -2 -6 -6 -6h-4c-4 0 -5 2 -6 6v10c0 65 17 83 53 83c14 0 33 -8 49 -24l43 -43c9 -9 22 -17 34 -17c30 0 38 13 39 68l-1 10c0 4 3 6 7 6h4c4 0 5 -2 5 -6l1 -10c0 -65 -18 -83 -53 -83c-14 0 -32 8 -49 24l-43 42c-10 9 -23 18 -35 18z
" />
    <glyph glyph-name="udieresis" unicode="&#xfc;" 
d="M440 6l-2 49c-27 -24 -85 -63 -173 -63c-84 0 -127 39 -134 95c0 4 -1 7 -1 17l1 380c0 4 2 6 6 6h4c3 0 6 -1 6 -6l-1 -380c0 -8 1 -11 1 -13c6 -49 42 -84 118 -84c92 0 150 46 174 66v411c-1 4 2 6 6 6h4c3 0 6 -1 6 -6l-1 -478c1 -3 0 -6 -4 -6h-3c-4 0 -6 2 -7 6z
M257 694v-100c0 -4 -2 -6 -6 -6h-4c-4 0 -5 2 -6 6v100c0 4 2 6 6 6h4c4 0 5 -2 6 -6zM336 694v-100c0 -4 -2 -6 -6 -6h-4c-4 0 -5 2 -6 6v100c0 4 2 6 6 6h4c4 0 5 -2 6 -6z" />
    <glyph glyph-name="umacron" unicode="&#x16b;" 
d="M436 6l-2 49c-27 -24 -85 -63 -173 -63c-84 0 -127 39 -134 95c0 4 -1 7 -1 17l1 380c0 4 2 6 6 6h4c3 0 6 -1 6 -6l-1 -380c0 -8 1 -11 1 -13c6 -49 42 -84 118 -84c92 0 150 46 174 66v411c-1 4 2 6 6 6h4c3 0 6 -1 6 -6l-1 -478c1 -3 0 -6 -4 -6h-3c-4 0 -6 2 -7 6z
M144 634h268c4 0 6 -2 7 -5v-4c1 -4 -2 -6 -6 -6h-268c-4 0 -6 2 -7 6v3c-1 4 2 6 6 6z" />
    <glyph glyph-name="ubreve" unicode="&#x16d;" 
d="M440 6l-3 49c-27 -24 -85 -63 -173 -63c-84 0 -127 39 -133 95c-1 4 -1 7 -2 17l1 380c0 4 2 6 6 6h4c3 0 6 -1 6 -6l-1 -380c0 -8 1 -11 1 -13c6 -49 42 -84 118 -84c92 0 151 46 174 66v411c-1 4 2 6 6 6h4c3 0 6 -1 6 -6v-478c0 -3 -1 -6 -5 -6h-3c-4 0 -6 2 -6 6z
M200 682l1 -26c0 -11 0 -14 1 -18c5 -41 25 -62 87 -62c77 0 84 39 83 94v12c-1 5 1 6 6 6h4c4 0 5 -3 6 -6v-12c1 -65 -10 -109 -100 -109c-70 0 -96 26 -102 77c-1 6 -1 7 -1 18l-1 26c-1 4 2 6 6 6h4c3 0 5 -1 6 -6z" />
    <glyph glyph-name="uring" unicode="&#x16f;" 
d="M441 6l-2 49c-27 -24 -85 -63 -173 -63c-84 0 -127 39 -134 95c0 4 -1 7 -1 17v380c1 4 3 6 7 6h4c3 0 6 -1 5 -6v-380c0 -8 0 -11 1 -13c6 -49 42 -84 118 -84c92 0 150 46 174 66l-1 411c0 4 3 6 7 6h4c3 0 6 -1 5 -6v-478c0 -3 0 -6 -4 -6h-3c-4 0 -7 2 -7 6zM370 631
l1 -11c-1 -35 -24 -59 -87 -59c-54 0 -79 27 -83 57c-1 4 -2 13 -2 21v12c-1 35 21 61 86 61c53 0 80 -28 84 -60c0 -6 1 -12 1 -21zM355 620l-1 11c0 10 0 14 -1 20c-3 25 -22 46 -68 46c-52 0 -70 -20 -70 -46v-12c0 -8 1 -17 2 -20c2 -22 20 -43 67 -43c50 0 70 18 71 44
z" />
    <glyph glyph-name="uhungarumlaut" unicode="&#x171;" 
d="M441 6l-2 49c-27 -24 -86 -63 -174 -63c-84 0 -126 39 -133 95c-1 4 -1 7 -1 17v380c1 4 2 6 6 6h4c3 0 6 -1 6 -6v-380v-13c6 -49 43 -84 119 -84c92 0 150 46 174 66l-1 411c0 4 2 6 6 6h4c3 0 6 -1 6 -6v-478c0 -3 -1 -6 -5 -6h-3c-4 0 -6 2 -6 6zM401 702l-83 -124
c-3 -3 -6 -4 -8 -4h-4c-4 0 -4 3 -3 6l80 122c2 3 6 6 10 6h6c5 0 4 -3 2 -6zM325 702l-69 -122c-2 -4 -5 -6 -8 -6h-4c-4 0 -3 4 -3 6l66 122c2 3 5 6 9 6h6c5 0 5 -3 3 -6z" />
    <glyph glyph-name="uogonek" unicode="&#x173;" 
d="M451 -139h-18c-53 0 -83 19 -88 61c-6 46 37 77 74 90l-2 43c-27 -24 -85 -63 -173 -63c-84 0 -127 39 -134 95c0 6 -1 11 -1 17l1 380c0 4 2 6 6 6h4c3 0 6 -1 6 -6l-1 -380c0 -5 0 -9 1 -13c6 -49 42 -84 118 -84c92 0 151 46 174 66v411c0 4 2 6 6 6h4c3 0 6 -1 6 -6
l-1 -478c1 -3 0 -6 -4 -6h-1c-55 -16 -70 -55 -67 -79c3 -29 26 -45 70 -45h18c4 0 7 -2 7 -6v-3c1 -4 -1 -6 -5 -6z" />
    <glyph glyph-name="wgrave" unicode="&#x1e81;" horiz-adv-x="604" 
d="M611 490h6c4 0 4 -4 4 -6l-133 -478c-1 -4 -4 -6 -7 -6h-4c-3 0 -5 2 -7 6l-116 424c-4 14 -9 33 -10 44c0 0 -10 -37 -12 -45l-119 -423c-1 -4 -4 -6 -7 -6h-4c-3 0 -5 2 -7 6l-128 478c-1 3 0 6 4 6h6c3 0 5 -2 7 -6l113 -421l9 -36c2 12 5 27 8 36l117 421
c1 4 4 6 7 6h12c3 0 5 -2 7 -6l113 -421c4 -11 9 -34 9 -34c3 12 5 25 8 34l117 421c1 4 3 6 7 6zM324 577l-84 125c-1 2 -2 6 3 6h6c4 0 6 -2 8 -4l81 -125c2 -3 1 -5 -2 -5h-5c-4 0 -6 1 -7 3z" />
    <glyph glyph-name="wacute" unicode="&#x1e83;" horiz-adv-x="604" 
d="M611 490h6c4 0 4 -4 4 -6l-133 -478c-1 -4 -4 -6 -7 -6h-4c-3 0 -5 2 -7 6l-116 424c-4 14 -9 33 -10 44c0 0 -10 -37 -12 -45l-119 -423c-1 -4 -4 -6 -7 -6h-4c-3 0 -5 2 -7 6l-128 478c-1 3 0 6 4 6h6c3 0 5 -2 7 -6l113 -421l9 -36c2 12 5 27 8 36l117 421
c1 4 4 6 7 6h12c3 0 5 -2 7 -6l113 -421c4 -11 9 -34 9 -34c3 12 5 25 8 34l117 421c1 4 3 6 7 6zM430 702l-84 -125c-1 -1 -2 -3 -6 -3h-7c-3 0 -4 2 -2 5l83 125c1 2 2 4 6 4h7c5 0 5 -3 3 -6z" />
    <glyph glyph-name="wcircumflex" unicode="&#x175;" horiz-adv-x="604" 
d="M611 490h6c4 0 4 -4 4 -6l-133 -478c-1 -4 -4 -6 -7 -6h-4c-3 0 -5 2 -7 6l-116 424c-4 14 -9 33 -10 44c0 0 -10 -37 -12 -45l-119 -423c-1 -4 -4 -6 -7 -6h-4c-3 0 -5 2 -7 6l-128 478c-1 3 0 6 4 6h6c3 0 5 -2 7 -6l113 -421l9 -36c2 12 5 27 8 36l117 421
c1 4 4 6 7 6h12c3 0 5 -2 7 -6l113 -421c4 -11 9 -34 9 -34c3 12 5 25 8 34l117 421c1 4 3 6 7 6zM334 694l-77 -114c-3 -4 -5 -6 -8 -6h-6c-4 0 -5 3 -3 6l80 122c1 3 5 6 9 6h7c4 0 6 -2 9 -5l81 -123c2 -3 1 -6 -3 -6h-4c-3 0 -6 1 -9 6z" />
    <glyph glyph-name="wdieresis" unicode="&#x1e85;" horiz-adv-x="604" 
d="M610 490h6c4 0 5 -4 4 -6l-132 -478c-2 -4 -5 -6 -8 -6h-4c-3 0 -5 2 -6 6l-116 424c-4 14 -9 33 -11 44c0 0 -9 -37 -11 -45l-119 -423c-2 -4 -5 -6 -8 -6h-4c-3 0 -5 2 -6 6l-129 478c0 3 0 6 4 6h6c3 0 6 -2 7 -6l114 -421l8 -36c3 12 6 27 9 36l116 421c2 4 4 6 7 6
h12c3 0 6 -2 7 -6l114 -421c3 -11 9 -34 9 -34c2 12 5 25 8 34l116 421c2 4 3 6 7 6zM304 694l1 -100c-1 -4 -3 -6 -7 -6h-4c-4 0 -5 2 -5 6l-1 100c1 4 3 6 7 6h4c4 0 5 -2 5 -6zM383 694l1 -100c-1 -4 -3 -6 -7 -6h-4c-4 0 -5 2 -5 6l-1 100c1 4 3 6 7 6h4c4 0 5 -2 5 -6z
" />
    <glyph glyph-name="ygrave" unicode="&#x1ef3;" horiz-adv-x="396" 
d="M71 484l145 -421c3 -9 13 -37 13 -37c2 8 4 19 10 37l145 421c1 4 4 6 7 6h5c4 0 6 -2 5 -6l-236 -689c-1 -4 -4 -6 -7 -6h-6c-4 0 -5 2 -4 6l72 208l-165 481c-2 3 -1 6 3 6h6c3 0 5 -2 7 -6zM205 577l-84 125c-1 2 -2 6 3 6h6c4 0 6 -2 8 -4l81 -125c2 -3 2 -5 -1 -5
h-5c-4 0 -7 1 -8 3z" />
    <glyph glyph-name="yacute" unicode="&#xfd;" horiz-adv-x="396" 
d="M71 484l145 -421c3 -9 13 -37 13 -37c2 8 4 19 10 37l145 421c1 4 4 6 7 6h5c4 0 6 -2 5 -6l-236 -689c-1 -4 -4 -6 -7 -6h-6c-4 0 -5 2 -4 6l72 208l-165 481c-2 3 -1 6 3 6h6c3 0 5 -2 7 -6zM306 702l-84 -125c-1 -1 -1 -3 -5 -3h-7c-3 0 -5 2 -3 5l83 125c1 2 2 4 6 4
h7c5 0 5 -3 3 -6z" />
    <glyph glyph-name="ycircumflex" unicode="&#x177;" horiz-adv-x="396" 
d="M71 484l145 -421c3 -9 13 -37 13 -37c2 8 4 19 10 37l145 421c1 4 4 6 7 6h5c4 0 6 -2 5 -6l-236 -689c-1 -4 -4 -6 -7 -6h-6c-4 0 -5 2 -4 6l72 208l-165 481c-2 3 -1 6 3 6h6c3 0 5 -2 7 -6zM218 694l-77 -114c-3 -4 -4 -6 -7 -6h-6c-4 0 -6 3 -4 6l80 122c1 3 5 6 9 6
h7c4 0 6 -2 9 -5l81 -123c2 -3 2 -6 -2 -6h-4c-3 0 -7 1 -10 6z" />
    <glyph glyph-name="ydieresis" unicode="&#xff;" horiz-adv-x="396" 
d="M70 484l146 -421c3 -9 12 -37 12 -37c2 8 5 19 11 37l144 421c2 4 4 6 7 6h5c4 0 7 -2 5 -6l-235 -689c-2 -4 -5 -6 -8 -6h-6c-4 0 -5 2 -3 6l71 208l-165 481c-1 3 -1 6 3 6h6c3 0 6 -2 7 -6zM184 694l1 -100c-1 -4 -3 -6 -7 -6h-4c-4 0 -5 2 -5 6l-1 100c1 4 3 6 7 6h4
c4 0 5 -2 5 -6zM263 694l1 -100c-1 -4 -3 -6 -7 -6h-4c-4 0 -5 2 -5 6l-1 100c1 4 3 6 7 6h4c4 0 5 -2 5 -6z" />
    <glyph glyph-name="zacute" unicode="&#x17a;" horiz-adv-x="460" 
d="M119 490h297c4 0 5 -2 5 -5l1 -3c0 -3 -4 -9 -4 -9l-296 -458h304c4 0 5 -2 6 -6v-3c1 -4 -2 -6 -6 -6h-318c-4 0 -5 2 -6 6v3c0 2 2 6 4 9l295 457h-282c-4 0 -6 2 -6 6v3c-1 4 2 6 6 6zM345 702l-84 -125c-1 -1 -2 -3 -6 -3h-7c-3 0 -4 2 -2 5l83 125c1 2 2 4 6 4h7
c5 0 5 -3 3 -6z" />
    <glyph glyph-name="zcaron" unicode="&#x17e;" horiz-adv-x="460" 
d="M119 490h297c4 0 5 -2 5 -5l1 -3c0 -3 -4 -9 -4 -9l-296 -458h304c4 0 5 -2 6 -6v-3c1 -4 -2 -6 -6 -6h-318c-4 0 -5 2 -6 6v3c0 2 2 6 4 9l295 457h-282c-4 0 -6 2 -6 6v3c-1 4 2 6 6 6zM178 702l76 -114l77 114c3 5 6 6 8 6h6c4 0 5 -3 3 -6l-81 -123
c-2 -3 -5 -5 -9 -5h-6c-4 0 -7 3 -9 6l-81 122c-3 3 -1 6 3 6h5c3 0 5 -2 8 -6z" />
    <glyph glyph-name="zdotaccent" unicode="&#x17c;" horiz-adv-x="460" 
d="M117 490h297c4 0 5 -2 6 -5v-3c0 -3 -4 -9 -4 -9l-296 -458h304c4 0 6 -2 6 -6l1 -3c0 -4 -3 -6 -7 -6h-318c-4 0 -5 2 -5 6l-1 3c0 2 2 6 4 9l295 457h-282c-4 0 -5 2 -6 6v3c-1 4 2 6 6 6zM256 674l1 -75c0 -4 -3 -6 -6 -6h-4c-4 0 -7 1 -6 6l-1 75c0 3 2 6 6 6h5
c4 0 5 -2 5 -6z" />
    <glyph glyph-name="eng" unicode="&#x14b;" horiz-adv-x="516" 
d="M444 386l-1 -485c0 -65 -33 -112 -161 -112h-3c-4 0 -5 2 -6 6v3c-1 4 1 6 5 6h3c114 0 146 42 146 97l1 485c-1 4 0 9 -1 13c-6 48 -42 84 -117 84c-93 0 -157 -47 -181 -67v-410c0 -4 -2 -6 -6 -6h-4c-3 0 -6 1 -6 6l1 478c-1 4 1 6 5 6h2c4 0 6 -2 7 -6l1 -50
c29 24 91 64 180 64c84 0 127 -39 134 -95c0 -6 1 -11 1 -17z" />
    <glyph glyph-name="eth" unicode="&#xf0;" horiz-adv-x="544" 
d="M317 617l101 41c-21 22 -61 35 -127 35h-83c-3 0 -5 1 -5 4l-1 5c0 4 3 6 7 6h83c74 0 119 -16 141 -43l58 24c2 1 5 1 6 -2l3 -5c1 -3 -2 -6 -4 -7l-55 -23c7 -11 11 -27 12 -36c1 -6 2 -14 1 -20l1 -492c0 -65 -35 -112 -166 -112c-115 0 -156 39 -163 94
c-1 6 -2 12 -1 18l-1 282c0 65 39 112 134 112c88 0 150 -40 180 -64v162c0 4 0 11 -1 15c-1 11 -4 24 -11 35l-104 -43c-3 -2 -7 -2 -8 3l-1 5c0 2 1 5 4 6zM439 104l-1 312c-22 20 -86 67 -180 67c-81 0 -118 -42 -118 -97l1 -282c-1 -5 0 -10 1 -15c5 -48 42 -82 148 -82
c117 0 148 42 149 97z" />
    <glyph glyph-name="thorn" unicode="&#xfe;" 
d="M141 693v-259c29 24 91 64 180 64c83 0 126 -39 133 -95c1 -6 1 -17 1 -25v-274c0 -65 -39 -112 -134 -112c-88 0 -151 39 -180 63v-260c0 -4 -2 -6 -6 -6h-4c-4 0 -6 2 -6 6v898c0 4 2 6 6 6h4c4 0 6 -2 6 -6zM439 104v274c0 10 0 17 -1 22c-6 48 -43 83 -117 83
c-96 0 -157 -47 -180 -67l-1 -343c24 -19 84 -66 181 -66c81 0 117 42 118 97z" />
    <glyph glyph-name="ampersand" unicode="&#x26;" horiz-adv-x="651" 
d="M327 375h310c4 0 5 -2 6 -6v-3c1 -4 -2 -6 -6 -6h-88v-240c-1 -76 -55 -128 -201 -128c-131 0 -191 45 -200 112c0 5 -1 10 0 16v130c0 63 17 103 102 118c-68 13 -90 45 -96 90c-1 9 -1 18 -1 27l-1 75c0 76 33 128 176 128c75 0 162 -14 173 -102l1 -9l2 -30
c1 -5 -2 -6 -6 -6h-4c-4 0 -6 3 -6 6l-2 30l-1 8c-9 80 -92 88 -157 88c-93 0 -160 -21 -160 -113l1 -75c0 -9 0 -18 1 -26c6 -51 37 -84 157 -84zM347 7c134 0 186 47 186 113v240h-211c-139 0 -159 -44 -158 -110v-130c-1 -5 0 -10 0 -15c7 -58 59 -98 183 -98z" />
    <glyph glyph-name="grave" unicode="`" horiz-adv-x="346" 
d="M284 577l-84 125c-1 2 -2 6 3 6h6c4 0 7 -2 8 -4l81 -125c2 -3 2 -5 -1 -5h-5c-4 0 -6 1 -8 3z" />
    <glyph glyph-name="acute" unicode="&#xb4;" horiz-adv-x="346" 
d="M299 702l-84 -125c-1 -1 -1 -3 -5 -3h-7c-3 0 -5 2 -3 5l83 125c2 2 2 4 6 4h7c5 0 6 -3 3 -6z" />
    <glyph glyph-name="circumflex" unicode="&#x2c6;" horiz-adv-x="340" 
d="M247 694l-77 -114c-3 -4 -4 -6 -7 -6h-6c-4 0 -6 3 -4 6l80 122c2 3 5 6 9 6h7c4 0 7 -2 9 -5l81 -123c2 -3 2 -6 -2 -6h-4c-3 0 -6 1 -10 6z" />
    <glyph glyph-name="caron" unicode="&#x2c7;" horiz-adv-x="340" 
d="M170 702l76 -114l77 114c3 5 6 6 8 6h6c4 0 6 -3 3 -6l-81 -123c-2 -3 -4 -5 -8 -5h-6c-4 0 -8 3 -10 6l-81 122c-2 3 -1 6 3 6h5c3 0 6 -2 8 -6z" />
    <glyph glyph-name="tilde" unicode="&#x2dc;" horiz-adv-x="434" 
d="M230 675c-30 0 -40 -15 -38 -68v-10c0 -4 -2 -6 -6 -6h-4c-4 0 -6 2 -6 6v10c0 65 16 83 52 83c14 0 33 -8 49 -24l44 -43c9 -9 22 -17 34 -17c30 0 38 13 38 68v10c0 4 2 6 6 6h4c4 0 6 -2 6 -6v-10c0 -65 -17 -83 -52 -83c-14 0 -32 8 -49 24l-44 42
c-10 9 -22 18 -34 18z" />
    <glyph glyph-name="dieresis" unicode="&#xa8;" horiz-adv-x="275" 
d="M183 694l1 -100c-1 -4 -3 -6 -7 -6h-4c-4 0 -5 2 -5 6l-1 100c1 4 3 6 7 6h4c4 0 5 -2 5 -6zM262 694l1 -100c-1 -4 -3 -6 -7 -6h-4c-4 0 -5 2 -5 6l-1 100c1 4 3 6 7 6h4c4 0 5 -2 5 -6z" />
    <glyph glyph-name="macron" unicode="&#xaf;" horiz-adv-x="425" 
d="M154 634h268c4 0 6 -2 6 -5l1 -4c0 -4 -3 -6 -7 -6h-268c-4 0 -6 2 -6 6l-1 3c0 4 3 6 7 6z" />
    <glyph glyph-name="breve" unicode="&#x2d8;" horiz-adv-x="383" 
d="M182 682l2 -26c0 -11 0 -14 1 -18c5 -41 24 -62 86 -62c77 0 85 39 84 94l-1 12c0 5 2 6 7 6h4c4 0 5 -3 5 -6l1 -12c1 -65 -10 -109 -100 -109c-70 0 -96 26 -102 77c-1 6 -1 7 -1 18l-2 26c0 4 3 6 7 6h4c3 0 5 -1 5 -6z" />
    <glyph glyph-name="ring" unicode="&#x2da;" horiz-adv-x="292" 
d="M275 631l1 -11c-1 -35 -24 -59 -87 -59c-54 0 -80 27 -83 57c-1 4 -2 13 -2 21v12c-1 35 21 61 86 61c53 0 80 -28 84 -60c0 -6 1 -12 1 -21zM260 620l-1 11c0 10 -1 14 -1 20c-3 25 -22 46 -68 46c-52 0 -70 -20 -70 -46v-12c0 -8 1 -17 2 -20c2 -22 20 -43 67 -43
c50 0 70 18 71 44z" />
    <glyph glyph-name="hungarumlaut" unicode="&#x2dd;" horiz-adv-x="334" 
d="M324 702l-84 -124c-2 -3 -5 -4 -7 -4h-4c-4 0 -5 3 -3 6l80 122c2 3 5 6 9 6h6c5 0 5 -3 3 -6zM248 702l-69 -122c-3 -4 -5 -6 -8 -6h-4c-4 0 -4 4 -3 6l66 122c2 3 4 6 8 6h6c5 0 6 -3 4 -6z" />
    <glyph glyph-name="dotaccent" unicode="&#x2d9;" horiz-adv-x="232" 
d="M202 674v-75c1 -4 -2 -6 -5 -6h-4c-4 0 -7 1 -7 6v75c0 3 1 6 5 6h5c4 0 5 -2 6 -6z" />
    <glyph glyph-name="commaaccent" horiz-adv-x="253" 
d="M109 56v25c-1 4 2 6 6 6h4c4 0 5 -2 6 -6v-25c0 -44 -17 -75 -33 -105c-2 -3 -4 -5 -8 -3l-4 2c-2 1 -5 3 -2 8c19 38 30 59 31 98z" />
    <glyph glyph-name="cedilla" unicode="&#xb8;" horiz-adv-x="119" 
d="M52 -56h42c30 0 72 -16 78 -65c9 -74 -43 -90 -78 -90h-120c-4 0 -5 2 -6 6v4c-1 4 2 6 6 6h120c25 0 68 12 61 72c-5 40 -39 51 -61 51h-53c-5 0 -9 3 -7 8l19 65c1 4 3 5 6 4l4 -1c5 -1 4 -5 3 -8z" />
    <glyph glyph-name="ogonek" unicode="&#x2db;" horiz-adv-x="221" 
d="M164 -139h-18c-53 0 -83 19 -88 61c-4 29 13 68 69 92c3 1 7 3 10 0l5 -4c3 -3 3 -6 0 -7c-58 -19 -71 -58 -68 -82c3 -29 26 -45 70 -45h18c4 0 6 -2 7 -6v-3c1 -4 -1 -6 -5 -6z" />
    <glyph glyph-name="acute.case" horiz-adv-x="250" 
d="M173 872l-84 -125c-1 -1 -1 -3 -5 -3h-7c-3 0 -5 2 -3 5l83 125c2 2 2 4 6 4h7c5 0 6 -3 3 -6z" />
    <glyph glyph-name="macron.case" horiz-adv-x="250" 
d="M-8 807h267c4 0 6 -2 6 -5l1 -4c0 -4 -3 -6 -7 -6h-267c-4 0 -6 2 -6 6l-1 3c0 4 3 6 7 6z" />
    <glyph glyph-name="breve.case" horiz-adv-x="250" 
d="M32 872l2 -26c0 -10 0 -14 1 -18c5 -41 24 -62 86 -62c77 0 85 39 84 94l-1 12c0 5 2 6 7 6h4c4 0 5 -3 5 -6l1 -12c1 -65 -10 -109 -100 -109c-70 0 -96 26 -102 77c-1 6 -1 7 -1 18l-2 26c0 4 3 6 7 6h4c3 0 5 -1 5 -6z" />
    <glyph glyph-name="caron.case" horiz-adv-x="250" 
d="M39 872l76 -114l77 114c3 5 6 6 8 6h6c4 0 6 -3 3 -6l-81 -123c-2 -3 -4 -5 -8 -5h-6c-4 0 -8 3 -10 6l-81 122c-2 3 -1 6 3 6h5c3 0 6 -2 8 -6z" />
    <glyph glyph-name="ring.case" horiz-adv-x="250" 
d="M210 798l1 -11c-1 -35 -24 -59 -87 -59c-54 0 -80 27 -83 57c-1 4 -2 13 -2 21v12c-1 35 21 61 86 61c53 0 80 -28 84 -60c0 -6 1 -12 1 -21zM195 787l-1 11c0 10 -1 14 -1 20c-3 25 -22 46 -68 46c-52 0 -70 -20 -70 -46v-12c0 -8 1 -17 2 -20c2 -22 20 -43 67 -43
c50 0 70 18 71 44z" />
    <glyph glyph-name="circumflex.case" horiz-adv-x="250" 
d="M132 864l-77 -114c-3 -4 -4 -6 -7 -6h-6c-4 0 -6 3 -4 6l80 122c2 3 5 6 9 6h7c4 0 7 -2 9 -5l81 -123c2 -3 2 -6 -2 -6h-4c-3 0 -6 1 -10 6z" />
    <glyph glyph-name="tilde.case" horiz-adv-x="250" 
d="M62 848c-30 0 -40 -15 -38 -68v-10c0 -4 -2 -6 -6 -6h-4c-4 0 -6 2 -6 6v10c0 65 16 83 52 83c14 0 33 -8 49 -24l44 -43c9 -9 22 -17 34 -17c30 0 38 13 38 68v10c0 4 2 6 6 6h4c4 0 6 -2 6 -6v-10c0 -65 -17 -83 -52 -83c-14 0 -32 8 -49 24l-44 42
c-10 9 -22 18 -34 18z" />
    <glyph glyph-name="dieresis.case" horiz-adv-x="250" 
d="M92 860l1 -100c-1 -4 -3 -6 -7 -6h-4c-4 0 -5 2 -5 6l-1 100c1 4 3 6 7 6h4c4 0 5 -2 5 -6zM171 860l1 -100c-1 -4 -3 -6 -7 -6h-4c-4 0 -5 2 -5 6l-1 100c1 4 3 6 7 6h4c4 0 5 -2 5 -6z" />
    <glyph glyph-name="dotaccent.case" horiz-adv-x="250" 
d="M133 838v-75c1 -4 -2 -6 -5 -6h-4c-4 0 -7 1 -7 6v75c0 3 1 6 5 6h5c4 0 5 -2 6 -6z" />
    <glyph glyph-name="grave.case" horiz-adv-x="250" 
d="M159 747l-84 125c-1 2 -2 6 3 6h6c4 0 7 -2 8 -4l81 -125c2 -3 2 -5 -1 -5h-5c-4 0 -6 1 -8 3z" />
    <glyph glyph-name="hungarumlaut.case" horiz-adv-x="250" 
d="M204 872l-83 -124c-2 -3 -5 -4 -7 -4h-5c-4 0 -5 3 -3 6l80 122c2 3 5 6 9 6h6c5 0 5 -3 3 -6zM127 872l-68 -122c-3 -4 -5 -6 -8 -6h-4c-4 0 -4 4 -3 6l66 122c2 3 4 6 8 6h5c5 0 6 -3 4 -6z" />
    <glyph glyph-name="comma" unicode="," horiz-adv-x="196" 
d="M90 26v55c1 4 3 6 7 6h4c4 0 6 -2 5 -6v-55c1 -45 -16 -78 -62 -97c-3 -1 -5 -1 -7 2l-3 4c-2 4 0 6 3 8c42 21 53 46 53 83z" />
    <glyph glyph-name="semicolon" unicode=";" horiz-adv-x="253" 
d="M188 484v-75c0 -4 -2 -6 -6 -6h-4c-4 0 -6 2 -6 6v75c-1 4 2 6 6 6h4c4 0 5 -2 6 -6zM172 26v55c1 5 2 6 5 6h5c4 0 6 -3 6 -6v-55c-1 -45 -17 -78 -62 -97c-3 -1 -5 -1 -6 1l-4 5c-1 2 -2 6 3 8c41 21 53 46 53 83z" />
    <glyph glyph-name="colon" unicode=":" horiz-adv-x="196" 
d="M135 81v-75c0 -4 -2 -6 -6 -6h-4c-4 0 -6 2 -6 6v75c-1 4 2 6 6 6h4c3 0 6 -2 6 -6zM135 484v-75c1 -4 -2 -6 -6 -6h-4c-4 0 -5 2 -6 6v75c0 4 2 6 6 6h4c4 0 6 -2 6 -6z" />
    <glyph glyph-name="period" unicode="." horiz-adv-x="196" 
d="M111 81v-75c1 -4 -2 -6 -5 -6h-4c-4 0 -7 1 -7 6v75c0 3 1 6 5 6h5c4 0 5 -2 6 -6z" />
    <glyph glyph-name="ellipsis" unicode="&#x2026;" horiz-adv-x="691" 
d="M111 81v-75c1 -4 -2 -6 -5 -6h-4c-4 0 -7 1 -7 6v75c0 3 1 6 5 6h5c4 0 5 -2 6 -6zM606 81v-75c1 -4 -2 -6 -5 -6h-4c-4 0 -7 1 -7 6v75c0 3 1 6 5 6h5c4 0 5 -2 6 -6zM359 81v-75c1 -4 -2 -6 -5 -6h-4c-4 0 -7 1 -7 6v75c0 3 1 6 5 6h5c4 0 5 -2 6 -6z" />
    <glyph glyph-name="exclam" unicode="!" horiz-adv-x="234" 
d="M168 390l-2 -239c-1 -4 -3 -6 -7 -6h-2c-4 0 -5 2 -5 6l-2 239l-1 284c1 4 3 6 7 6h6c4 0 5 -2 5 -6zM167 81v-75c-1 -4 -2 -6 -7 -6h-3c-4 0 -7 2 -6 6v75c1 4 3 6 7 6h4c4 0 5 -3 5 -6z" />
    <glyph glyph-name="exclamdown" unicode="&#xa1;" horiz-adv-x="234" 
d="M125 100l2 239c1 4 3 6 7 6h2c4 0 5 -2 5 -6l2 -239l1 -284c-1 -4 -3 -6 -7 -6h-6c-4 0 -5 2 -5 6zM126 409v75c1 4 2 6 7 6h3c4 0 7 -2 6 -6v-75c-1 -4 -3 -6 -7 -6h-4c-4 0 -5 3 -5 6z" />
    <glyph glyph-name="question" unicode="?" horiz-adv-x="569" 
d="M317 151l1 87c0 62 50 91 68 100l50 26c18 9 62 37 62 92v101c0 7 0 13 -1 20c-7 56 -46 96 -172 96c-139 0 -172 -50 -172 -116v-54c0 -5 -2 -6 -6 -6h-4c-5 0 -6 3 -6 6v54c1 76 35 131 188 131c135 0 180 -45 188 -109c1 -7 1 -15 1 -22v-101c-1 -67 -50 -96 -74 -108
l-50 -26c-18 -9 -57 -35 -56 -84l-1 -87c0 -4 -2 -6 -6 -6h-4c-5 0 -5 3 -6 6zM333 81v-75c0 -4 -2 -6 -6 -6h-4c-4 0 -6 2 -6 6v74c-1 4 2 7 6 7h4c4 0 5 -2 6 -6z" />
    <glyph glyph-name="questiondown" unicode="&#xbf;" horiz-adv-x="569" 
d="M310 339l-1 -87c0 -62 -50 -91 -68 -100l-50 -26c-18 -9 -62 -37 -62 -92v-101c0 -7 0 -13 1 -20c7 -56 46 -96 172 -96c139 0 172 50 172 116v54c0 5 2 6 6 6h4c5 0 6 -3 6 -6v-54c-1 -76 -35 -131 -188 -131c-135 0 -180 45 -188 109c-1 7 -1 15 -1 22v101
c1 67 50 96 74 108l50 26c18 9 57 35 56 84l1 87c0 4 2 6 6 6h4c5 0 5 -3 6 -6zM294 409v75c0 4 2 6 6 6h4c4 0 6 -2 6 -6v-74c1 -4 -2 -7 -6 -7h-4c-4 0 -5 2 -6 6z" />
    <glyph glyph-name="quotesingle" unicode="'" horiz-adv-x="210" 
d="M185 674l-3 -178c1 -3 -1 -6 -5 -6h-2c-4 0 -6 2 -7 6l-1 178c-1 4 2 6 6 6h6c4 0 6 -2 6 -6z" />
    <glyph glyph-name="quotedbl" unicode="&#x22;" horiz-adv-x="315" 
d="M185 674l-3 -178c1 -3 -1 -6 -5 -6h-2c-4 0 -6 2 -7 6l-1 178c-1 4 2 6 6 6h6c4 0 6 -2 6 -6zM290 674l-3 -178c1 -3 -1 -6 -5 -6h-2c-4 0 -6 2 -7 6l-1 178c-1 4 2 6 6 6h6c4 0 6 -2 6 -6z" />
    <glyph glyph-name="quoteleft" unicode="&#x2018;" horiz-adv-x="196" 
d="M175 610v-55c-1 -4 -3 -6 -7 -6h-4c-4 0 -6 2 -5 6v55c-1 45 16 78 62 97c3 1 5 1 7 -2l3 -4c2 -4 0 -6 -3 -8c-42 -21 -53 -46 -53 -83z" />
    <glyph glyph-name="quoteright" unicode="&#x2019;" horiz-adv-x="196" 
d="M170 647v55c1 4 3 6 7 6h4c4 0 6 -2 5 -6v-55c1 -45 -16 -78 -62 -97c-3 -1 -5 -1 -7 2l-3 4c-2 4 0 6 3 8c42 21 53 46 53 83z" />
    <glyph glyph-name="quotedblleft" unicode="&#x201c;" horiz-adv-x="302" 
d="M281 610v-55c-1 -4 -3 -6 -7 -6h-4c-4 0 -6 2 -5 6v55c-1 45 16 78 62 97c3 1 5 1 7 -2l3 -4c2 -4 0 -6 -3 -8c-42 -21 -53 -46 -53 -83zM175 610v-55c-1 -4 -3 -6 -7 -6h-4c-4 0 -6 2 -5 6v55c-1 45 16 78 62 97c3 1 5 1 7 -2l3 -4c2 -4 0 -6 -3 -8
c-42 -21 -53 -46 -53 -83z" />
    <glyph glyph-name="quotedblright" unicode="&#x201d;" horiz-adv-x="302" 
d="M276 647v55c1 4 3 6 7 6h4c4 0 6 -2 5 -6v-55c1 -45 -16 -78 -62 -97c-3 -1 -5 -1 -7 2l-3 4c-2 4 0 6 3 8c42 21 53 46 53 83zM170 647v55c1 4 3 6 7 6h4c4 0 6 -2 5 -6v-55c1 -45 -16 -78 -62 -97c-3 -1 -5 -1 -7 2l-3 4c-2 4 0 6 3 8c42 21 53 46 53 83z" />
    <glyph glyph-name="quotesinglbase" unicode="&#x201a;" horiz-adv-x="196" 
d="M90 26v55c1 4 3 6 7 6h4c4 0 6 -2 5 -6v-55c1 -45 -16 -78 -62 -97c-3 -1 -5 -1 -7 2l-3 4c-2 4 0 6 3 8c42 21 53 46 53 83z" />
    <glyph glyph-name="quotedblbase" unicode="&#x201e;" horiz-adv-x="302" 
d="M196 26v55c1 4 3 6 7 6h4c4 0 6 -2 5 -6v-55c1 -45 -16 -78 -62 -97c-3 -1 -5 -1 -7 2l-3 4c-2 4 0 6 3 8c42 21 53 46 53 83zM90 26v55c1 4 3 6 7 6h4c4 0 6 -2 5 -6v-55c1 -45 -16 -78 -62 -97c-3 -1 -5 -1 -7 2l-3 4c-2 4 0 6 3 8c42 21 53 46 53 83z" />
    <glyph glyph-name="guilsinglleft" unicode="&#x2039;" horiz-adv-x="418" 
d="M136 245l176 -133c4 -3 6 -5 6 -8v-9c0 -3 -3 -4 -6 -2l-187 144c-4 3 -5 6 -5 8v1c-1 3 3 7 5 9l187 144c2 2 6 2 6 -2v-8c0 -3 -2 -6 -6 -9z" />
    <glyph glyph-name="guilsinglright" unicode="&#x203a;" horiz-adv-x="418" 
d="M321 246l-176 133c-4 3 -6 5 -6 8v9c0 3 3 4 6 2l187 -144c4 -3 5 -6 5 -8l1 -1c0 -3 -4 -7 -6 -9l-187 -144c-2 -2 -6 -2 -6 2v8c0 3 2 6 6 9z" />
    <glyph glyph-name="guillemotleft" unicode="&#xab;" horiz-adv-x="603" 
d="M321 245l176 -133c4 -3 6 -5 6 -8v-9c0 -3 -3 -4 -6 -2l-187 144c-4 3 -5 6 -5 8v1c-1 3 3 7 5 9l187 144c2 2 6 2 6 -2v-8c0 -3 -2 -6 -6 -9zM136 245l176 -133c4 -3 6 -5 6 -8v-9c0 -3 -3 -4 -6 -2l-187 144c-4 3 -5 6 -5 8v1c-1 3 3 7 5 9l187 144c2 2 6 2 6 -2v-8
c0 -3 -2 -6 -6 -9z" />
    <glyph glyph-name="guillemotright" unicode="&#xbb;" horiz-adv-x="603" 
d="M506 253l-176 133c-4 3 -6 5 -6 8v9c0 3 3 4 6 2l187 -144c4 -3 5 -6 5 -8l1 -1c0 -3 -4 -7 -6 -9l-187 -144c-2 -2 -6 -2 -6 2v8c0 3 2 6 6 9zM321 253l-176 133c-4 3 -6 5 -6 8v9c0 3 3 4 6 2l187 -144c4 -3 5 -6 5 -8l1 -1c0 -3 -4 -7 -6 -9l-187 -144
c-2 -2 -6 -2 -6 2v8c0 3 2 6 6 9z" />
    <glyph glyph-name="slash" unicode="/" horiz-adv-x="371" 
d="M342 693l-230 -835c-2 -4 -5 -6 -9 -6h-5c-4 0 -4 3 -3 6l230 835c1 3 4 6 8 6h5c4 0 6 -2 4 -6z" />
    <glyph glyph-name="bar" unicode="|" horiz-adv-x="232" 
d="M82 693l111 -898c0 -4 -2 -6 -6 -6h-4c-4 0 -6 2 -6 6l-111 898c0 4 2 6 6 6h4c4 0 6 -2 6 -6z" />
    <glyph glyph-name="hyphen" unicode="-" horiz-adv-x="473" 
d="M135 297h269c4 0 6 -2 6 -6l1 -3c0 -4 -2 -6 -6 -6h-269c-4 0 -6 2 -6 6l-1 3c0 4 2 6 6 6z" />
    <glyph glyph-name="uni00AD" unicode="&#xad;" horiz-adv-x="473" 
d="M135 297h269c4 0 6 -2 6 -6l1 -3c0 -4 -2 -6 -6 -6h-269c-4 0 -6 2 -6 6l-1 3c0 4 2 6 6 6z" />
    <glyph glyph-name="endash" unicode="&#x2013;" horiz-adv-x="557" 
d="M135 297h353c4 0 6 -2 6 -6l1 -3c0 -4 -2 -6 -6 -6h-353c-4 0 -6 2 -6 6l-1 3c0 4 2 6 6 6z" />
    <glyph glyph-name="emdash" unicode="&#x2014;" horiz-adv-x="865" 
d="M135 297h661c4 0 6 -2 6 -6l1 -3c0 -4 -2 -6 -6 -6h-661c-4 0 -6 2 -6 6l-1 3c0 4 2 6 6 6z" />
    <glyph glyph-name="bullet" unicode="&#x2022;" horiz-adv-x="232" 
d="M153 312l1 -115c-1 -4 -3 -6 -7 -6h-4c-4 0 -5 2 -5 6l-1 115c1 4 3 6 7 6h4c4 0 5 -3 5 -6z" />
    <glyph glyph-name="periodcentered" unicode="&#xb7;" horiz-adv-x="196" 
d="M136 292v-75c1 -4 -2 -6 -5 -6h-4c-4 0 -7 1 -7 6v75c0 3 1 6 5 6h5c4 0 5 -2 6 -6z" />
    <glyph glyph-name="parenleft" unicode="(" horiz-adv-x="352" 
d="M137 -106v702c0 65 32 112 163 112h3c4 0 5 -2 5 -6l1 -3c0 -4 -2 -6 -6 -6h-3c-118 0 -146 -42 -147 -97v-695c-1 -6 0 -17 0 -21c6 -48 41 -83 148 -83h3c4 0 4 -3 4 -6l1 -3c0 -4 -2 -6 -6 -6h-3c-115 0 -155 38 -162 94c-1 5 -2 12 -1 18z" />
    <glyph glyph-name="parenright" unicode=")" horiz-adv-x="352" 
d="M272 596v-702c0 -65 -32 -112 -163 -112h-3c-4 0 -5 2 -5 6l-1 3c0 4 2 6 6 6h3c117 0 146 42 147 97v695c0 11 0 16 -1 23c-5 47 -42 81 -147 81h-3c-4 0 -4 3 -4 6l-1 3c0 4 2 6 6 6h3c115 0 155 -38 162 -94c1 -3 2 -12 1 -18z" />
    <glyph glyph-name="bracketleft" unicode="[" horiz-adv-x="342" 
d="M137 -205v898c1 5 4 6 7 6h149c4 0 5 -2 5 -6l1 -3c0 -4 -2 -6 -6 -6h-140v-880h140c4 0 5 -2 5 -6l1 -3c0 -4 -2 -6 -6 -6h-150c-3 0 -6 1 -6 6z" />
    <glyph glyph-name="bracketright" unicode="]" horiz-adv-x="342" 
d="M262 693v-898c-1 -5 -4 -6 -7 -6h-149c-4 0 -5 2 -5 6l-1 3c0 4 2 6 6 6h140v880h-140c-4 0 -5 2 -5 6l-1 3c0 4 2 6 6 6h150c3 0 6 -1 6 -6z" />
    <glyph glyph-name="braceleft" unicode="{" horiz-adv-x="446" 
d="M230 353v243c0 65 32 112 163 112h3c4 0 5 -3 5 -6l1 -3c0 -4 -2 -6 -6 -6h-3c-118 0 -146 -42 -147 -97v-243c0 -61 -31 -94 -98 -105c60 -10 91 -42 97 -88c1 -8 1 -21 1 -30v-229c-1 -5 0 -17 0 -21c6 -48 41 -83 148 -83h3c4 0 4 -3 4 -6l1 -3c0 -4 -2 -6 -6 -6h-3
c-114 0 -155 39 -162 94c-1 6 -2 20 -1 26v228c0 9 1 17 -1 30c-6 47 -40 81 -134 81h-1c-4 0 -5 2 -6 6v3c-1 4 1 6 5 6h2c104 0 135 42 135 97z" />
    <glyph glyph-name="braceright" unicode="}" horiz-adv-x="446" 
d="M272 588v-227c0 -6 1 -19 1 -24c6 -47 40 -81 134 -81h1c4 0 5 -2 6 -6v-4c1 -4 -2 -5 -6 -5h-1c-104 0 -135 -42 -135 -97v-250c0 -65 -34 -112 -163 -112h-3c-4 0 -5 2 -5 6l-1 3c0 4 3 6 7 6h3c117 0 145 42 146 97v250c-1 61 31 93 98 104c-60 10 -91 43 -97 88
c0 6 -1 20 -1 26v226c1 7 0 18 0 23c-6 47 -41 82 -147 82h-3c-4 0 -5 2 -5 6l-1 3c0 4 2 6 6 6h3c114 0 155 -39 162 -94c1 -6 1 -17 1 -26z" />
    <glyph glyph-name="asterisk" unicode="*" horiz-adv-x="484" 
d="M307 407c-4 0 -6 2 -6 6l3 137l-116 -77c-4 -2 -7 0 -8 2l-3 3c-1 2 -1 6 2 8l119 73l-119 74c-3 2 -3 5 -2 7l1 3c1 2 5 5 9 2l116 -76l-1 136c-1 4 2 6 6 6h3c3 0 6 -2 6 -6l-3 -137l116 78c3 3 7 2 9 -2l2 -3c3 -3 2 -6 -2 -8l-118 -74l118 -73c4 -2 3 -6 2 -8v-2
c-1 -2 -5 -5 -10 -2l-116 76l1 -137c1 -4 -2 -6 -6 -6h-3z" />
    <glyph glyph-name="dagger" unicode="&#x2020;" horiz-adv-x="496" 
d="M298 693l1 -687c-1 -4 -3 -6 -7 -6h-4c-3 0 -6 2 -5 6l-1 687c1 4 3 6 7 6h4c4 0 6 -2 5 -6zM154 490h104c4 0 6 -2 7 -6v-3c1 -4 -1 -6 -5 -6h-104c-4 0 -6 2 -7 6v3c-1 4 1 6 5 6zM318 490h104c4 0 6 -2 7 -6v-3c1 -4 -1 -6 -5 -6h-104c-4 0 -6 2 -7 6v3c-1 4 1 6 5 6z
" />
    <glyph glyph-name="daggerdbl" unicode="&#x2021;" horiz-adv-x="496" 
d="M299 693l1 -687c-1 -4 -3 -6 -7 -6h-4c-3 0 -6 2 -5 6l-1 687c1 4 3 6 7 6h4c4 0 6 -2 5 -6zM150 484c-1 4 1 6 5 6h104c4 0 6 -2 7 -6v-3c1 -4 -1 -6 -5 -6h-104c-4 0 -6 2 -7 6v3zM430 484v-3c1 -4 -1 -6 -5 -6h-104c-4 0 -6 2 -7 6v3c-1 4 1 6 5 6h104c4 0 6 -2 7 -6z
M149 220c0 4 2 6 6 6h104c4 0 6 -2 6 -6l1 -3c0 -4 -1 -6 -5 -6h-104c-4 0 -7 2 -7 6zM429 220l1 -3c0 -4 -1 -6 -5 -6h-104c-4 0 -7 2 -7 6l-1 3c0 4 2 6 6 6h104c4 0 6 -2 6 -6z" />
    <glyph glyph-name="section" unicode="&#xa7;" horiz-adv-x="546" 
d="M460 146c0 -4 -2 -6 -6 -6h-4c-4 0 -5 2 -6 6v106c0 8 0 16 -1 26c-6 48 -55 65 -71 70l-141 40c-22 6 -87 23 -94 82c-1 8 -2 18 -2 26l1 80c0 65 34 112 165 112c115 0 157 -39 163 -94c1 -7 2 -18 2 -26v-8c-1 -5 -3 -6 -7 -6h-4c-3 0 -6 2 -6 7l1 7c0 7 0 15 -1 23
c-6 47 -42 82 -148 82c-117 0 -149 -42 -149 -97l-1 -80c0 -8 1 -17 1 -23c6 -48 64 -64 83 -69l141 -40c23 -7 76 -29 83 -84c0 -4 2 -14 2 -21zM140 211l1 113c0 4 2 6 6 6h4c4 0 5 -2 6 -6v-106c0 -8 0 -16 1 -26c6 -48 55 -65 71 -70l141 -40c22 -6 87 -23 94 -82
c1 -8 2 -18 2 -26l-1 -80c0 -65 -34 -112 -165 -112c-115 0 -157 39 -163 94c-1 7 -2 18 -2 26v8c1 5 3 6 7 6h4c3 0 6 -2 6 -7l-1 -7c0 -7 0 -15 1 -23c6 -47 42 -82 148 -82c117 0 149 42 149 97l1 80c0 8 -1 17 -1 23c-6 48 -64 64 -83 69l-141 40c-23 7 -76 29 -83 84
c0 4 -2 14 -2 21z" />
    <glyph glyph-name="paragraph" unicode="&#xb6;" horiz-adv-x="603" 
d="M406 675v-880c0 -4 -2 -6 -6 -6h-4c-4 0 -5 2 -6 6l1 487h-63c-135 0 -184 45 -192 111c-1 9 -2 22 -2 29l1 127c1 76 38 131 193 131h73c3 0 5 -1 5 -5zM522 674l-1 -879c0 -5 -2 -6 -6 -6h-4c-4 0 -6 2 -6 7l1 878c0 4 2 6 6 6h4c4 0 5 -3 6 -6z" />
    <glyph glyph-name="asciicircum" unicode="^" horiz-adv-x="540" 
d="M487 325l-198 337l-116 -337c-2 -4 -3 -6 -6 -6h-6c-4 0 -5 3 -4 6l121 349c2 4 2 6 6 6h4c3 0 6 -2 8 -6l207 -349c1 -3 2 -6 -2 -6h-6c-3 0 -6 2 -8 6z" />
    <glyph glyph-name="asciitilde" unicode="~" horiz-adv-x="471" 
d="M174 310c-31 0 -38 -13 -31 -68l1 -10c0 -4 -1 -6 -5 -6h-4c-4 0 -7 2 -7 6l-1 10c-8 65 10 83 45 83c14 0 32 -8 53 -20l85 -50c12 -7 30 -14 42 -14c31 0 36 13 29 68l-1 10c0 4 1 6 5 6h4c4 0 7 -2 7 -6l1 -10c8 -65 -8 -83 -43 -83c-14 0 -38 10 -57 21l-85 50
c-10 5 -26 13 -38 13z" />
    <glyph glyph-name="brokenbar" unicode="&#xa6;" horiz-adv-x="208" 
d="M72 674l43 -354c0 -4 -1 -6 -5 -6h-4c-4 0 -7 2 -7 6l-43 354c-1 4 1 6 5 6h4c4 0 6 -2 7 -6zM136 149l43 -354c1 -4 -1 -6 -5 -6h-4c-4 0 -6 2 -7 6l-43 354c0 4 1 6 5 6h4c4 0 7 -2 7 -6z" />
    <glyph glyph-name="backslash" unicode="\" horiz-adv-x="371" 
d="M324 -142l-230 835c0 3 0 6 5 6h3c4 0 7 -1 8 -6l230 -834c1 -4 -1 -7 -5 -7h-4c-4 0 -6 2 -7 6z" />
    <glyph glyph-name="underscore" unicode="_" horiz-adv-x="413" 
d="M15 -94h353c4 0 6 -2 6 -6l1 -3c0 -4 -2 -6 -6 -6h-353c-4 0 -6 2 -6 6l-1 3c0 4 2 6 6 6z" />
    <glyph glyph-name="at" unicode="@" horiz-adv-x="764" 
d="M602 -96h-191c-199 0 -265 48 -273 116c-1 12 -1 29 -1 38l1 411c0 76 57 131 274 131c199 0 265 -48 273 -116c1 -5 0 -12 1 -22l-1 -323c0 -65 -20 -106 -82 -106c-43 0 -74 24 -81 66c-28 -23 -88 -66 -164 -66c-71 0 -104 32 -109 78c-2 11 -2 21 0 33l21 202
c7 65 34 113 130 113c70 0 122 -40 149 -64l7 50c0 4 2 6 6 6h2c3 0 6 -2 6 -6l-32 -306c-1 -11 -1 -22 0 -31c5 -37 28 -60 66 -60c47 0 65 36 65 91l1 323c0 7 0 15 -1 19c-7 60 -71 104 -257 104c-199 0 -258 -50 -258 -116l-1 -418c0 -8 -1 -16 1 -28
c7 -63 70 -104 257 -104h191c4 0 6 -3 6 -5l1 -5c0 -3 -3 -5 -7 -5zM286 346l-21 -202c-1 -10 -2 -19 -1 -28c5 -40 35 -68 96 -68c73 0 139 49 161 67l1 24l24 238c-20 20 -69 67 -147 67c-82 0 -108 -43 -113 -98z" />
    <glyph glyph-name="copyright" unicode="&#xa9;" horiz-adv-x="684" 
d="M588 557v-434c0 -76 -42 -131 -234 -131s-234 55 -234 131v434c0 76 42 131 234 131s234 -55 234 -131zM572 123v434c0 66 -41 116 -218 116s-218 -50 -218 -116v-434c0 -66 41 -116 218 -116s218 50 218 116zM354 553c107 0 122 -47 122 -112v-21c0 -4 -2 -6 -6 -6h-4
c-4 0 -6 2 -6 6v21c0 55 -9 97 -106 97c-98 0 -106 -42 -106 -97v-203c0 -55 8 -97 106 -97c97 0 106 42 106 97v29c0 4 2 6 6 6h4c4 0 6 -2 6 -6v-29c0 -65 -15 -112 -122 -112s-122 47 -122 112v203c0 65 15 112 122 112z" />
    <glyph glyph-name="registered" unicode="&#xae;" horiz-adv-x="602" 
d="M531 574l21 -173c6 -48 -12 -114 -178 -114c-165 0 -202 66 -208 114l-21 173c-6 48 15 114 180 114c166 0 200 -66 206 -114zM537 400l-21 175c-5 40 -38 98 -189 98c-150 0 -171 -58 -166 -98l21 -175c5 -40 40 -98 190 -98c151 0 170 58 165 98zM443 520
c3 -26 -8 -54 -52 -62l58 -102c1 -2 -1 -4 -4 -4h-8c-4 0 -5 2 -6 4l-56 99h-89l13 -99c0 -2 -1 -4 -4 -4h-8c-3 0 -4 2 -4 4l-31 252c-1 3 0 5 4 5h85c70 0 94 -34 98 -65zM343 599h-74l16 -130h74c57 0 70 28 67 53l-3 24c-3 25 -23 53 -80 53z" />
    <glyph glyph-name="trademark" unicode="&#x2122;" horiz-adv-x="871" 
d="M789 675v-398c0 -3 0 -5 -4 -5h-6c-3 0 -6 2 -6 5v365c-1 -1 -6 -18 -9 -24l-127 -279c-1 -3 -3 -5 -7 -5h-7c-3 0 -5 2 -7 5l-129 281l-8 22v-365c0 -3 -1 -5 -4 -5h-6c-3 0 -5 2 -5 5v398c0 3 1 5 4 5h5c3 0 5 -3 6 -6l139 -301c3 -6 6 -15 8 -22c0 1 4 12 9 22
l136 302c2 3 4 5 6 5h7c4 0 5 -2 5 -5zM139 680h268c3 0 6 -1 6 -5l1 -5c0 -3 -3 -4 -6 -4h-127v-389c0 -3 -1 -5 -4 -5h-6c-3 0 -6 2 -6 5v389h-124c-4 0 -6 1 -6 4l-1 5c0 4 1 5 5 5z" />
    <glyph glyph-name="currency" unicode="&#xa4;" horiz-adv-x="521" 
d="M75 293h93l-1 96h-93c-4 0 -5 2 -5 6l-1 3c0 4 3 6 7 6h93v153c0 76 37 131 190 131c135 0 181 -45 189 -110c1 -7 2 -14 2 -21l-1 -54c1 -4 -1 -6 -5 -6h-4c-4 0 -6 2 -7 6l1 54c0 6 -1 13 -1 19c-7 56 -48 97 -174 97c-139 0 -174 -50 -174 -116v-153h170
c4 0 6 -2 6 -6l1 -3c0 -4 -3 -6 -7 -6h-171l1 -96h170c4 0 6 -2 6 -6v-3c1 -4 -1 -6 -5 -6h-171v-155c0 -7 1 -13 2 -20c6 -56 46 -96 171 -96c140 0 176 50 176 116v65c0 4 1 6 5 6h4c4 0 7 -2 7 -6v-65c0 -76 -38 -131 -191 -131c-134 0 -181 44 -189 108
c-1 7 -1 15 -1 23v155h-92c-4 0 -6 2 -7 6v3c0 4 2 6 6 6z" />
    <glyph glyph-name="Euro" unicode="&#x20ac;" horiz-adv-x="521" 
d="M75 293h93l-1 96h-93c-4 0 -5 2 -5 6l-1 3c0 4 3 6 7 6h93v153c0 76 37 131 190 131c135 0 181 -45 189 -110c1 -7 2 -14 2 -21l-1 -54c1 -4 -1 -6 -5 -6h-4c-4 0 -6 2 -7 6l1 54c0 6 -1 13 -1 19c-7 56 -48 97 -174 97c-139 0 -174 -50 -174 -116v-153h170
c4 0 6 -2 6 -6l1 -3c0 -4 -3 -6 -7 -6h-171l1 -96h170c4 0 6 -2 6 -6v-3c1 -4 -1 -6 -5 -6h-171v-155c0 -7 1 -13 2 -20c6 -56 46 -96 171 -96c140 0 176 50 176 116v65c0 4 1 6 5 6h4c4 0 7 -2 7 -6v-65c0 -76 -38 -131 -191 -131c-134 0 -181 44 -189 108
c-1 7 -1 15 -1 23v155h-92c-4 0 -6 2 -7 6v3c0 4 2 6 6 6z" />
    <glyph glyph-name="dollar" unicode="$" horiz-adv-x="522" 
d="M457 458v29c0 9 0 14 -1 20c-4 36 -43 71 -142 71c-102 0 -142 -36 -142 -83l1 -42v-14c4 -31 34 -53 67 -62l163 -46c42 -12 73 -35 77 -71c1 -8 1 -15 1 -15l1 -61c0 -55 -48 -97 -161 -98l1 -80c0 -3 -2 -6 -6 -6h-3c-4 0 -6 2 -6 6l-1 80c-100 2 -148 39 -154 87
c-1 5 -1 14 -1 15v27c-1 4 2 5 6 5h5c1 0 5 0 5 -5v-26s0 -8 1 -13c5 -46 52 -75 147 -75c104 0 150 36 151 84l-1 59v14c-5 35 -37 49 -70 58l-162 47c-32 9 -72 36 -77 75v14v43c2 54 41 95 151 97v82c1 4 3 6 7 6h3c3 0 6 -2 5 -6v-82c97 -2 144 -38 150 -84
c1 -8 1 -10 1 -20v-30c0 -3 -1 -5 -5 -5h-5c-3 0 -6 2 -6 5z" />
    <glyph glyph-name="cent" unicode="&#xa2;" horiz-adv-x="516" 
d="M306 674l1 -82c107 -2 144 -40 151 -93c1 -6 2 -13 1 -19v-21c0 -4 -1 -6 -5 -6h-4c-4 0 -7 2 -7 6v21c1 6 0 11 -1 16c-5 47 -40 81 -145 81c-117 0 -145 -42 -146 -97v-282c0 -6 0 -11 1 -17c6 -46 40 -80 145 -80c117 0 145 42 146 97v29c0 4 3 6 7 6h4c4 0 5 -2 5 -6
v-29c-1 -63 -30 -110 -152 -112v-80c-1 -4 -2 -6 -6 -6h-4c-4 0 -6 2 -6 6v80c-109 1 -148 39 -155 93c0 6 -1 12 -1 19v282c0 64 31 110 156 112l-1 82c1 4 3 6 7 6h4c4 0 5 -2 5 -6z" />
    <glyph glyph-name="sterling" unicode="&#xa3;" horiz-adv-x="640" 
d="M220 353h192c4 0 6 -2 6 -6l1 -3c0 -4 -3 -6 -7 -6h-192v-323h234c56 0 131 19 116 137v3c-1 4 1 6 5 6h3c4 0 6 -2 7 -6v-3c16 -130 -66 -152 -131 -152h-311c-4 0 -6 2 -6 6v3c-1 4 2 6 6 6h61v323h-61c-4 0 -5 2 -5 6l-1 3c0 4 2 6 6 6h61v214c0 76 22 121 175 121
c131 0 167 -34 175 -94c1 -8 1 -17 1 -27v-24c0 -4 -2 -6 -6 -6h-4c-5 0 -6 4 -6 7v23c0 9 0 18 -1 26c-6 50 -39 80 -159 80c-139 0 -159 -40 -159 -106v-214z" />
    <glyph glyph-name="florin" unicode="&#x192;" horiz-adv-x="531" 
d="M502 693h-4c-117 0 -152 -42 -159 -97l-25 -196h117c4 0 6 -3 6 -6l1 -3c0 -4 -2 -6 -6 -6h-120l-60 -491c-8 -65 -49 -112 -176 -112h-3c-3 0 -4 2 -4 6l-1 3c0 4 2 6 6 6h4c117 0 151 42 158 97l61 491h-114c-4 0 -6 2 -6 6l-1 3c0 4 2 6 6 6h117l24 196
c8 64 46 112 176 112h3c4 0 5 -2 5 -6l1 -3c0 -4 -2 -6 -6 -6z" />
    <glyph glyph-name="yen" unicode="&#xa5;" horiz-adv-x="493" 
d="M112 306h159l-53 96h-105c-4 0 -6 2 -7 6v3c-1 4 2 6 6 6h97l-143 257c-2 5 1 6 5 6h5c4 0 5 -2 7 -6l192 -344c3 -6 9 -17 12 -24h1c1 2 7 16 12 24l189 344c2 4 5 6 9 6h6c4 0 7 -1 3 -6l-143 -257h98c4 0 6 -2 7 -6v-3c1 -4 -2 -6 -6 -6h-107l-53 -96h159
c4 0 6 -2 6 -6l1 -3c0 -4 -2 -6 -6 -6h-167v-285c0 -4 -2 -6 -6 -6h-4c-4 0 -6 2 -6 6v285h-167c-4 0 -6 2 -6 6l-1 3c0 4 2 6 6 6z" />
    <glyph glyph-name="ordfeminine" unicode="&#xaa;" horiz-adv-x="347" 
d="M328 392l-2 30c-18 -14 -55 -38 -108 -38c-50 0 -76 23 -80 57v19v161c0 39 23 67 81 67c51 0 90 -24 108 -38l1 26c1 5 2 7 5 7h2c4 0 5 -3 5 -5v-286c0 -2 -1 -3 -4 -3h-4c-2 0 -4 1 -4 3zM151 621v-154c0 -12 0 -15 1 -24c3 -29 21 -46 66 -46c58 0 95 29 109 41
l-1 196c-14 12 -52 41 -108 41c-48 0 -67 -21 -67 -54z" />
    <glyph glyph-name="ordmasculine" unicode="&#xba;" horiz-adv-x="346" 
d="M137 469v151c0 40 21 68 101 68c69 0 97 -23 101 -58c0 -3 1 -13 0 -19v-159c0 -40 -21 -68 -101 -68c-69 0 -97 23 -101 58c-1 5 0 20 0 27zM325 453v158c1 6 0 15 0 18c-3 27 -25 47 -87 47c-68 0 -87 -24 -87 -56v-150c0 -8 -1 -21 0 -26c3 -28 25 -48 87 -48
c68 0 87 24 87 57z" />
    <glyph glyph-name="degree" unicode="&#xb0;" horiz-adv-x="379" 
d="M140 516l-1 90c1 47 25 80 119 80c55 0 109 -15 115 -70c1 -6 2 -14 2 -20v-88c-1 -47 -25 -80 -118 -80c-80 0 -112 27 -117 68c-1 4 -1 15 0 20zM359 508v88c0 5 -1 13 -1 17c-6 45 -45 59 -101 59c-81 0 -102 -29 -102 -66l1 -91c0 -7 -1 -14 0 -18
c4 -32 30 -55 102 -55c79 0 100 28 101 66z" />
    <glyph glyph-name="numbersign" unicode="#" horiz-adv-x="631" 
d="M142 269h92l39 140h-94c-4 0 -5 2 -6 6v3c-1 4 2 6 6 6h98l30 112c2 4 5 6 9 6h5c4 0 4 -3 3 -6l-30 -112h178l30 112c2 4 5 6 9 6h5c4 0 4 -3 3 -6l-30 -112h80c4 0 5 -2 6 -6v-3c1 -4 -2 -6 -6 -6h-84l-39 -140h86c4 0 6 -2 6 -6v-3c1 -4 -2 -6 -6 -6h-90l-30 -109
c-1 -3 -3 -6 -7 -6h-6c-4 0 -5 3 -4 6l30 109h-178l-30 -109c-2 -4 -3 -6 -7 -6h-6c-4 0 -5 3 -4 6l30 109h-88c-4 0 -5 2 -6 6v3c0 4 2 6 6 6zM290 409l-39 -140h178l39 140h-178z" />
    <glyph glyph-name="zero" unicode="0" horiz-adv-x="447" 
d="M181 -4c-81 0 -135 19 -135 148v405c0 95 19 151 135 151h87c81 0 135 -19 135 -148v-405c0 -95 -19 -151 -135 -151h-87zM256 684h-52c-114 0 -142 -32 -142 -131v-404c0 -118 47 -137 131 -137h52c114 0 142 32 142 131v404c0 118 -47 137 -131 137z" />
    <glyph glyph-name="one" unicode="1" horiz-adv-x="385" 
d="M10 545l187 157c2 2 11 1 11 -5l-1 -682h161c4 0 6 -2 6 -6l1 -3c0 -4 -2 -6 -6 -6h-337c-4 0 -5 2 -5 6l-1 3c0 4 1 6 5 6h160l1 664l-176 -146c-2 -1 -6 -3 -8 1c-4 6 -1 9 2 11z" />
    <glyph glyph-name="two" unicode="2" horiz-adv-x="428" 
d="M42 497c-4 0 -6 2 -6 6v46c0 95 19 151 135 151h87c81 0 135 -22 135 -151c1 -243 -333 -298 -333 -533l333 -1c4 0 5 -2 6 -6v-3c0 -4 -2 -6 -6 -6h-345c-4 0 -6 2 -6 6c0 262 335 309 335 541c0 118 -47 137 -131 137h-52c-114 0 -142 -32 -142 -131v-50
c0 -4 -2 -6 -6 -6h-4z" />
    <glyph glyph-name="three" unicode="3" horiz-adv-x="441" 
d="M45 249h4c4 0 6 -2 6 -6v-101c0 -99 28 -131 142 -131h62c84 0 131 19 131 137v102c0 74 -39 110 -158 110h-50c-4 0 -6 2 -7 6v3c-1 4 2 6 6 6h46c139 0 158 44 158 110v67c0 118 -47 137 -131 137h-52c-114 0 -142 -32 -142 -131v-50c0 -4 -2 -6 -6 -6h-4
c-4 0 -6 2 -6 6v46c0 95 19 151 135 151h87c81 0 135 -19 135 -148v-72c-1 -62 -15 -102 -95 -117c71 -13 100 -45 100 -118v-107c0 -129 -54 -148 -135 -148h-97c-116 0 -135 56 -135 151v97c0 4 2 6 6 6z" />
    <glyph glyph-name="four" unicode="4" horiz-adv-x="444" 
d="M23 243c-5 0 -5 2 -5 7s1 8 2 10l283 436c1 3 4 5 7 5c5 0 8 -3 8 -6c0 -1 0 -3 -1 -4l-279 -433h330l-1 316c1 4 3 6 7 6h4c2 0 5 -2 5 -5v-1v-316h36c4 0 6 -4 6 -8c0 -3 -2 -7 -6 -7h-36l1 -237c0 -4 -2 -6 -6 -6h-4c-4 0 -6 3 -6 6l-1 237h-344z" />
    <glyph glyph-name="five" unicode="5" horiz-adv-x="434" 
d="M396 148c0 -129 -54 -148 -135 -148h-87c-116 0 -135 56 -135 151v93c0 4 2 6 6 6h4c4 0 6 -2 6 -6v-97c0 -99 28 -131 142 -131h52c84 0 131 19 131 137v109c0 118 -47 138 -131 138h-182c-4 0 -6 2 -7 6l21 268c1 4 2 6 6 6h279c4 0 6 -2 6 -6v-3c1 -4 -1 -6 -5 -6
h-270l-21 -250h185c76 0 135 -19 135 -148v-119z" />
    <glyph glyph-name="six" unicode="6" horiz-adv-x="445" 
d="M256 689h-52c-114 0 -142 -32 -142 -131v-209c11 40 52 67 119 67h87c81 0 135 -19 135 -148v-121c0 -95 -19 -151 -135 -151h-87c-81 0 -135 19 -135 148v121v289c0 95 19 151 135 151h87c81 0 135 -19 135 -148v-50c0 -5 -4 -7 -8 -7s-8 2 -8 7v45
c0 118 -47 137 -131 137zM256 400h-52c-109 0 -142 -42 -142 -117v-134c0 -118 47 -137 131 -137h52c114 0 142 32 142 131v120c0 118 -47 137 -131 137z" />
    <glyph glyph-name="seven" unicode="7" horiz-adv-x="443" 
d="M32 700h389c4 0 5 -1 5 -5l1 -2c0 -3 -2 -7 -2 -9l-267 -678c-2 -4 -4 -6 -8 -6h-6c-5 0 -7 2 -5 6l269 679h-375c-4 0 -7 2 -7 6l-1 3c0 4 3 6 7 6z" />
    <glyph glyph-name="eight" unicode="8" horiz-adv-x="436" 
d="M59 574c0 112 59 131 135 131h47c81 0 135 -25 135 -128v-46c0 -73 -19 -109 -80 -120c70 -8 100 -47 100 -143v-121c0 -95 -19 -151 -135 -151h-87c-81 0 -135 19 -135 148v121c0 97 33 137 100 145c-55 9 -80 48 -80 118v46zM249 400h-55c-92 -1 -139 -20 -139 -138
v-113c0 -118 47 -137 131 -137h52c114 0 142 32 142 131v120c0 118 -47 137 -131 137zM229 689h-12c-94 0 -142 -18 -142 -118v-38c0 -93 47 -116 131 -118h29c83 0 125 26 125 112v45c0 98 -47 117 -131 117z" />
    <glyph glyph-name="nine" unicode="9" horiz-adv-x="445" 
d="M193 12h52c114 0 142 32 142 131v209c-11 -40 -52 -67 -119 -67h-87c-81 0 -135 19 -135 148v121c0 95 19 151 135 151h87c81 0 135 -19 135 -148v-121v-289c0 -95 -19 -151 -135 -151h-87c-81 0 -135 19 -135 148v50c0 5 4 7 8 7s8 -2 8 -7v-45c0 -118 47 -137 131 -137
zM193 301h52c109 0 142 42 142 117v134c0 118 -47 137 -131 137h-52c-114 0 -142 -32 -142 -131v-120c0 -118 47 -137 131 -137z" />
    <glyph glyph-name="onesuperior" unicode="&#xb9;" horiz-adv-x="376" 
d="M133 653l116 34c2 1 4 -2 4 -3v-392h106c3 0 4 -2 5 -4v-4c0 -4 -1 -5 -4 -5h-227c-3 0 -5 2 -5 5v3c-1 4 2 5 5 5h106l-1 379l-103 -31c-3 -1 -6 -1 -6 3l-1 4c0 3 1 5 5 6z" />
    <glyph glyph-name="twosuperior" unicode="&#xb2;" horiz-adv-x="362" 
d="M145 288h200c3 0 4 -1 5 -5v-3c1 -4 -1 -5 -4 -5h-210c-2 0 -3 1 -4 5l1 118c0 39 41 52 56 55l103 26c11 3 43 15 43 47v72v21c-4 33 -25 56 -97 56c-80 0 -96 -29 -95 -68v-31c-1 -4 -1 -5 -5 -5h-5c-2 0 -5 1 -5 5v32c-1 46 18 80 109 80c81 0 106 -27 111 -66
c1 -6 1 -13 1 -23v-73c0 -40 -34 -55 -52 -59l-103 -25c-10 -3 -48 -14 -48 -45z" />
    <glyph glyph-name="threesuperior" unicode="&#xb3;" horiz-adv-x="361" 
d="M183 502h55c82 0 94 25 93 65l-1 36v20c-4 32 -25 53 -92 53c-76 0 -93 -27 -93 -66v-8c0 -3 -2 -4 -5 -4h-5c-4 0 -4 2 -4 4l-1 9c1 46 21 78 109 78c75 0 101 -25 106 -63v-23l1 -37c1 -38 -10 -60 -56 -70c42 -8 54 -27 57 -53c1 -6 1 -15 1 -26l1 -68
c0 -46 -22 -78 -111 -78c-77 0 -105 26 -110 64c0 2 -1 7 0 14l-1 9c0 2 1 4 5 4h5c4 0 5 -2 5 -4v-8c0 -6 1 -11 1 -13c4 -32 26 -53 96 -53c77 0 94 27 94 66v67c0 10 0 19 -1 24c-3 30 -22 49 -91 49h-58c-3 0 -5 1 -5 4l-1 3c0 4 3 5 6 5z" />
    <glyph glyph-name="fraction" unicode="&#x2044;" horiz-adv-x="428" 
d="M407 674l-288 -668c-2 -4 -4 -6 -8 -6h-6c-4 0 -4 3 -3 6l288 668c3 4 5 6 9 6h5c4 0 5 -3 3 -6z" />
    <glyph glyph-name="onequarter" unicode="&#xbc;" horiz-adv-x="784" 
d="M643 403l-95 -247h192v247c-1 3 2 5 5 5h4c5 0 6 -3 6 -5v-398c-1 -4 -2 -5 -6 -5h-5c-3 0 -4 2 -4 5v139h-204c-3 0 -5 1 -5 4v2c0 2 1 5 2 7l95 246c1 4 3 5 6 5h6c3 0 3 -2 3 -5zM577 725l-211 -769c-1 -3 -3 -5 -6 -5h-5c-4 0 -4 3 -3 5l211 769c1 3 4 4 6 4h6
c2 0 3 -1 2 -4zM144 653l116 34c3 1 4 -2 4 -3v-392h106c3 0 5 -2 5 -4v-4c1 -4 -1 -5 -4 -5h-227c-3 0 -4 2 -5 5v3c0 4 2 5 5 5h106v379l-103 -31c-3 -1 -6 -1 -7 3v4c-1 3 0 5 4 6z" />
    <glyph glyph-name="onehalf" unicode="&#xbd;" horiz-adv-x="810" 
d="M575 725l-211 -769c-1 -3 -3 -5 -6 -5h-5c-4 0 -4 3 -3 5l211 769c1 3 4 4 6 4h6c2 0 3 -1 2 -4zM606 13h200c3 0 4 -1 4 -5l1 -3c0 -4 -2 -5 -5 -5h-210c-2 0 -3 1 -3 5v118c0 39 42 52 56 55l103 26c12 3 43 15 43 47l1 72c-1 10 0 16 -1 21c-4 33 -25 56 -97 56
c-80 0 -95 -29 -95 -68v-31c0 -4 -1 -5 -5 -5h-5c-2 0 -4 1 -5 5v32c0 46 19 80 110 80c81 0 106 -27 111 -66v-23v-73c0 -40 -34 -55 -51 -59l-103 -25c-11 -3 -49 -14 -49 -45v-109zM144 653l116 34c3 1 4 -2 4 -3v-392h106c3 0 5 -2 5 -4v-4c1 -4 -1 -5 -4 -5h-227
c-3 0 -4 2 -5 5v3c0 4 2 5 5 5h106v379l-103 -31c-3 -1 -6 -1 -7 3v4c-1 3 0 5 4 6z" />
    <glyph glyph-name="threequarters" unicode="&#xbe;" horiz-adv-x="778" 
d="M637 403l-95 -247h192v247c-1 3 2 5 5 5h4c5 0 6 -3 6 -5v-398c-1 -4 -2 -5 -6 -5h-5c-3 0 -4 2 -4 5v139h-204c-3 0 -5 1 -5 4v2c0 2 1 5 2 7l95 246c1 4 3 5 6 5h6c3 0 3 -2 3 -5zM566 725l-211 -769c-1 -3 -3 -5 -6 -5h-5c-4 0 -4 3 -3 5l211 769c1 3 4 4 6 4h6
c2 0 3 -1 2 -4zM195 502h55c82 0 94 25 93 65l-1 36v20c-4 32 -25 53 -92 53c-76 0 -93 -27 -94 -66v-8c1 -3 -1 -4 -4 -4h-5c-4 0 -4 2 -5 4v9c1 46 21 78 109 78c75 0 101 -25 105 -63c1 -5 1 -13 1 -23l1 -37c0 -38 -10 -60 -57 -70c42 -8 55 -27 58 -53
c1 -6 1 -15 1 -26v-68c1 -46 -21 -78 -110 -78c-77 0 -105 26 -110 64c0 2 -1 7 -1 14v9c0 2 1 4 5 4h5c4 0 5 -2 5 -4v-8c0 -6 1 -11 1 -13c4 -32 25 -53 95 -53c77 0 95 27 95 66v67c0 10 0 19 -1 24c-4 30 -22 49 -91 49h-58c-3 0 -5 1 -5 4l-1 3c0 4 3 5 6 5z" />
    <glyph glyph-name="percent" unicode="%" horiz-adv-x="697" 
d="M136 495v111c-1 47 25 80 118 80c80 0 111 -27 116 -67c1 -4 1 -12 1 -21v-110c0 -47 -24 -80 -117 -80c-81 0 -112 27 -117 67c0 2 -1 14 -1 20zM355 488v111c0 7 0 14 -1 17c-3 32 -29 56 -100 56c-80 0 -103 -29 -102 -66v-116c0 -2 0 -7 1 -13c3 -32 29 -55 101 -55
c78 0 102 28 101 66zM625 72v111v17c-4 32 -30 56 -101 56c-80 0 -103 -29 -102 -66v-116c0 -2 0 -7 1 -13c4 -32 29 -55 101 -55c78 0 102 28 101 66zM406 79v111c-1 47 25 80 118 80c80 0 111 -27 116 -67c1 -4 1 -12 1 -21v-110c0 -47 -24 -80 -117 -80
c-81 0 -112 27 -117 67c0 2 -1 14 -1 20zM540 674l-289 -668c-1 -4 -3 -6 -7 -6h-6c-4 0 -4 3 -4 6l289 668c3 4 5 6 9 6h5c4 0 5 -3 3 -6z" />
    <glyph glyph-name="perthousand" unicode="&#x2030;" horiz-adv-x="988" 
d="M136 495v111c-1 47 25 80 118 80c80 0 111 -27 116 -67c1 -4 1 -12 1 -21v-110c0 -47 -24 -80 -117 -80c-81 0 -112 27 -117 67c0 2 -1 14 -1 20zM355 488v111c0 7 0 14 -1 17c-3 32 -29 56 -100 56c-80 0 -103 -29 -102 -66v-116c0 -2 0 -7 1 -13c3 -32 29 -55 101 -55
c78 0 102 28 101 66zM625 72v111v17c-4 32 -30 56 -101 56c-80 0 -103 -29 -102 -66v-116c0 -2 0 -7 1 -13c4 -32 29 -55 101 -55c78 0 102 28 101 66zM406 79v111c-1 47 25 80 118 80c80 0 111 -27 116 -67c1 -4 1 -12 1 -21v-110c0 -47 -24 -80 -117 -80
c-81 0 -112 27 -117 67c0 2 -1 14 -1 20zM916 72v111v17c-4 32 -30 56 -101 56c-80 0 -103 -29 -102 -66v-116c0 -2 0 -7 1 -13c4 -32 29 -55 101 -55c78 0 102 28 101 66zM697 79v111c-1 47 25 80 118 80c80 0 111 -27 116 -67c1 -4 1 -12 1 -21v-110
c0 -47 -24 -80 -117 -80c-81 0 -112 27 -117 67c0 2 -1 14 -1 20zM540 674l-289 -668c-1 -4 -3 -6 -7 -6h-6c-4 0 -4 3 -4 6l289 668c3 4 5 6 9 6h5c4 0 5 -3 3 -6z" />
    <glyph glyph-name="plus" unicode="+" horiz-adv-x="595" 
d="M354 144l-24 188h-187c-4 0 -6 2 -6 6l-1 3c0 4 2 6 6 6h187l-24 188c0 4 2 6 6 6h3c4 0 6 -2 6 -6l24 -188h189c4 0 6 -2 6 -6l1 -3c0 -4 -2 -6 -6 -6h-189l24 -188c0 -4 -2 -6 -6 -6h-3c-4 0 -6 2 -6 6z" />
    <glyph glyph-name="minus" unicode="&#x2212;" horiz-adv-x="594" 
d="M142 347h390c4 0 6 -2 6 -6l1 -3c0 -4 -2 -6 -6 -6h-390c-4 0 -6 2 -6 6l-1 3c0 4 2 6 6 6z" />
    <glyph glyph-name="plusminus" unicode="&#xb1;" horiz-adv-x="595" 
d="M320 223l-19 149h-187c-4 0 -6 2 -6 6l-1 3c0 4 2 6 6 6h187l-18 147c-1 4 1 6 5 6h3c4 0 6 -2 7 -6l18 -147h189c4 0 6 -2 6 -6l1 -3c0 -4 -2 -6 -6 -6h-189l19 -149c0 -4 -2 -6 -6 -6h-3c-4 0 -6 2 -6 6zM141 153h391c4 0 7 -2 7 -6v-3c1 -4 -1 -6 -5 -6h-391
c-4 0 -6 2 -7 6v3c0 4 1 6 5 6z" />
    <glyph glyph-name="multiply" unicode="&#xd7;" horiz-adv-x="546" 
d="M415 166l-114 163l-151 -94c-3 -2 -7 -1 -9 3l-1 2c-3 4 -2 6 1 8l150 94l-114 163c-2 3 -2 7 1 8l3 1c3 1 6 2 8 -2l114 -163l153 95c2 2 6 1 8 -2l1 -3c2 -3 3 -6 -1 -8l-151 -95l114 -162c2 -4 2 -7 -2 -9l-2 -1c-4 -2 -6 -1 -8 2z" />
    <glyph glyph-name="divide" unicode="&#xf7;" horiz-adv-x="595" 
d="M141 347h392c2 0 6 -1 6 -5l1 -4c0 -3 0 -6 -5 -6h-391c-4 0 -7 2 -7 6l-1 3c0 4 2 6 5 6zM360 220l10 -75c0 -4 -2 -6 -6 -6h-4c-4 0 -6 2 -6 6l-10 75c0 4 2 6 6 6h4c4 0 6 -2 6 -6zM321 536l10 -75c0 -4 -2 -6 -6 -6h-4c-4 0 -6 2 -6 6l-10 75c0 4 2 6 6 6h4
c4 0 6 -2 6 -6z" />
    <glyph glyph-name="equal" unicode="=" horiz-adv-x="594" 
d="M122 425h390c4 0 6 -2 7 -6v-3c1 -4 -1 -6 -5 -6h-390c-4 0 -6 2 -7 6v3c-1 4 1 6 5 6zM141 270h390c4 0 6 -2 7 -6v-3c1 -4 -1 -6 -5 -6h-390c-4 0 -6 2 -7 6v3c-1 4 1 6 5 6z" />
    <glyph glyph-name="notequal" unicode="&#x2260;" horiz-adv-x="594" 
d="M122 425h219l23 80c1 3 4 6 8 6h3c4 0 6 -2 4 -6l-22 -80h155c4 0 6 -2 7 -6v-3c1 -4 -1 -6 -5 -6h-161l-40 -140h218c4 0 6 -2 7 -6v-3c1 -4 -1 -6 -5 -6h-224l-22 -80c-2 -4 -5 -6 -9 -6h-3c-4 0 -4 3 -3 6l22 80h-151c-4 0 -6 2 -7 6v3c-1 4 1 6 5 6h157l39 140h-213
c-4 0 -6 2 -7 6v3c-1 4 1 6 5 6z" />
    <glyph glyph-name="approxequal" unicode="&#x2248;" horiz-adv-x="471" 
d="M166 426c-31 0 -38 -13 -32 -68l2 -10c0 -4 -2 -6 -6 -6h-4c-4 0 -6 2 -6 6l-2 10c-8 65 11 83 46 83c14 0 32 -8 53 -20l85 -50c12 -7 30 -14 42 -14c31 0 36 13 29 68l-1 10c-1 4 1 6 5 6h4c4 0 6 -2 7 -6l1 -10c8 -65 -9 -83 -44 -83c-14 0 -37 10 -56 21l-85 50
c-10 5 -26 13 -38 13zM182 292c-31 0 -38 -13 -31 -68l1 -10c1 -4 -1 -6 -5 -6h-4c-4 0 -6 2 -7 6l-1 10c-8 65 11 83 46 83c14 0 32 -8 52 -20l85 -50c12 -7 30 -14 42 -14c31 0 36 13 30 68l-2 10c0 4 2 6 6 6h4c4 0 6 -2 6 -6l2 -10c8 -65 -9 -83 -44 -83
c-14 0 -37 10 -57 21l-85 50c-10 5 -26 13 -38 13z" />
    <glyph glyph-name="less" unicode="&#x3c;" horiz-adv-x="553" 
d="M472 498l-317 -157l356 -157c4 -2 6 -4 7 -7v-6c1 -4 -2 -4 -5 -3l-369 164c-5 2 -7 3 -7 7l-1 4c0 3 2 5 5 7l329 164c3 1 6 1 7 -3v-6c1 -3 -1 -5 -5 -7z" />
    <glyph glyph-name="greater" unicode="&#x3e;" horiz-adv-x="553" 
d="M459 341l-357 157c-4 2 -6 4 -7 7v6c-1 4 2 4 5 3l369 -164c5 -2 7 -4 7 -7l1 -4c0 -4 -2 -5 -5 -7l-329 -164c-3 -1 -6 -1 -7 3v6c-1 3 1 5 5 7z" />
    <glyph glyph-name="lessequal" unicode="&#x2264;" horiz-adv-x="553" 
d="M447 528l-320 -137l354 -137c4 -2 6 -4 7 -7v-6c1 -4 -2 -4 -5 -3l-367 144c-4 2 -6 3 -7 7v4c-1 3 1 5 5 7l331 144c3 1 6 1 7 -3v-6c1 -3 -1 -5 -5 -7zM144 163h348c4 0 6 -2 7 -6v-3c1 -4 -1 -6 -5 -6h-348c-4 0 -6 2 -7 6v3c-1 4 1 6 5 6z" />
    <glyph glyph-name="greaterequal" unicode="&#x2265;" horiz-adv-x="553" 
d="M451 391l-354 137c-4 2 -6 4 -7 7v6c-1 4 2 4 5 3l367 -144c4 -2 6 -4 7 -7v-4c1 -4 -1 -5 -5 -7l-331 -144c-3 -1 -6 -1 -7 3v6c-1 3 1 5 5 7zM142 163h348c4 0 6 -2 7 -6v-3c1 -4 -1 -6 -5 -6h-348c-4 0 -6 2 -7 6v3c-1 4 1 6 5 6z" />
    <glyph glyph-name="mu" unicode="&#x3bc;" 
d="M416 6l-2 49c-27 -24 -85 -63 -173 -63c-63 0 -102 21 -121 55l2 -252c0 -4 -1 -6 -5 -6h-4c-4 0 -7 2 -7 6v689c1 4 2 6 6 6h4c3 0 7 -1 6 -6v-362c-1 -14 0 -27 0 -31c6 -49 43 -84 119 -84c92 0 150 46 174 66l-1 411c0 4 2 6 6 6h4c3 0 7 -1 6 -6v-478
c0 -4 -1 -6 -5 -6h-2c-4 0 -7 2 -7 6z" />
    <glyph glyph-name="logicalnot" unicode="&#xac;" horiz-adv-x="360" 
d="M78 309c-7 56 32 102 88 102s108 -46 115 -102c6 -56 -34 -101 -90 -101s-107 45 -113 101z" />
    <glyph glyph-name="Delta" unicode="&#x394;" horiz-adv-x="360" 
d="M95 403h146c14 0 21 -6 23 -20l17 -146c2 -14 -3 -20 -17 -20h-146c-14 0 -21 6 -23 20l-17 146c-2 14 3 20 17 20z" />
    <glyph glyph-name="Omega" unicode="&#x3a9;" horiz-adv-x="360" 
d="M70 309c-8 60 35 110 95 110s116 -50 124 -110c7 -60 -37 -109 -97 -109s-115 49 -122 109zM86 309c6 -52 52 -93 104 -93s89 41 83 93c-7 52 -54 94 -106 94s-88 -42 -81 -94z" />
    <glyph glyph-name="pi" unicode="&#x3c0;" horiz-adv-x="360" 
d="M55 415h221c14 0 17 -16 10 -28l-82 -167c-6 -11 -20 -11 -28 0l-124 167c-8 12 -11 28 3 28z" />
    <glyph glyph-name="infinity" unicode="&#x221e;" horiz-adv-x="360" 
d="M54 330l90 103c6 7 12 10 19 10c6 0 13 -3 21 -10l116 -103c8 -7 12 -14 12 -20c1 -7 -1 -13 -7 -20l-90 -103c-7 -7 -13 -11 -19 -11c-7 0 -14 4 -21 11l-116 103c-8 7 -13 13 -14 20c0 6 3 13 9 20zM158 422l-92 -104c-2 -3 -3 -5 -3 -8c1 -3 2 -6 5 -8l117 -104
c3 -3 6 -4 9 -4s5 1 7 4l91 104c2 2 4 5 3 8c0 3 -2 5 -5 8l-116 104c-4 2 -6 4 -9 4s-6 -2 -7 -4z" />
    <glyph glyph-name="partialdiff" unicode="&#x2202;" horiz-adv-x="360" 
d="M101 201l-27 221c-2 14 14 15 27 7l180 -103c12 -7 13 -21 3 -28l-154 -103c-11 -7 -27 -8 -29 6z" />
    <glyph glyph-name="integral" unicode="&#x222b;" horiz-adv-x="360" 
d="M34 309c-10 81 46 147 127 147s155 -66 165 -147s-49 -145 -130 -145s-152 64 -162 145z" />
    <glyph glyph-name="radical" unicode="&#x221a;" horiz-adv-x="360" 
d="M94 411h146c20 0 29 -8 32 -28l17 -146c3 -20 -4 -28 -24 -28h-146c-20 0 -29 8 -32 28l-17 146c-3 20 4 28 24 28zM242 395h-146c-8 0 -11 -4 -10 -12l17 -146c1 -8 6 -12 14 -12h146c8 0 11 4 10 12l-17 146c-1 8 -6 12 -14 12z" />
    <glyph glyph-name="summation" unicode="&#x2211;" horiz-adv-x="360" 
d="M258 422l27 -221c2 -14 -14 -13 -27 -6l-180 103c-12 7 -13 21 -3 28l154 103c11 8 27 7 29 -7z" />
    <glyph glyph-name="product" unicode="&#x220f;" horiz-adv-x="360" 
d="M303 209h-221c-14 0 -17 16 -10 28l82 167c6 11 20 11 28 0l124 -167c8 -12 11 -28 -3 -28z" />
    <glyph glyph-name="lozenge" unicode="&#x25ca;" horiz-adv-x="360" 
d="M61 324l90 103c4 5 8 7 13 7c4 0 9 -2 15 -7l116 -103c5 -5 8 -10 8 -14c1 -5 0 -9 -5 -14l-90 -103c-5 -5 -9 -8 -13 -8c-5 0 -10 3 -15 8l-116 103c-5 5 -9 9 -10 14c0 4 2 9 7 14z" />
    <glyph glyph-name="afii61289" unicode="&#x2113;" horiz-adv-x="486" 
d="M200 112v156c-81 -42 -147 -65 -150 -66c-2 -1 -4 -1 -7 2l-2 4c-2 3 -2 6 2 8c2 1 74 25 157 70l1 263c1 76 20 131 125 131c89 0 123 -43 130 -98c1 -10 1 -22 2 -33c2 -116 -128 -212 -242 -273v-164c0 -6 1 -11 1 -16c6 -47 41 -81 146 -81h83c4 0 6 -2 6 -6l1 -3
c0 -4 -2 -6 -6 -6h-83c-113 0 -155 38 -162 93c-1 6 -2 13 -2 19zM217 549l-1 -255c108 60 228 149 226 255c-1 11 -1 20 -2 30c-6 50 -35 86 -114 86c-94 0 -109 -50 -109 -116z" />
    <glyph glyph-name="estimated" unicode="&#x212e;" horiz-adv-x="833" 
d="M798 340c1 -9 -4 -16 -14 -16h-611l21 -165c69 -90 177 -152 296 -152c114 0 185 49 237 114c3 3 5 5 9 5c2 0 5 -2 5 -5c1 -6 -2 -9 -5 -14c-51 -70 -142 -115 -244 -115c-192 0 -367 156 -390 348c-24 192 113 348 305 348c189 0 367 -156 391 -348zM409 672
c-118 0 -212 -63 -259 -153l22 -180h557l-22 176c-70 92 -180 157 -298 157z" />
    <glyph glyph-name="uni2206" unicode="&#x2206;" horiz-adv-x="360" 
d="M95 403h146c14 0 21 -6 23 -20l17 -146c2 -14 -3 -20 -17 -20h-146c-14 0 -21 6 -23 20l-17 146c-2 14 3 20 17 20z" />
    <glyph glyph-name="uni2126" unicode="&#x2126;" horiz-adv-x="360" 
d="M70 309c-8 60 35 110 95 110s116 -50 124 -110c7 -60 -37 -109 -97 -109s-115 49 -122 109zM86 309c6 -52 52 -93 104 -93s89 41 83 93c-7 52 -54 94 -106 94s-88 -42 -81 -94z" />
    <glyph glyph-name="uni00B5" unicode="&#xb5;" 
d="M416 6l-2 49c-27 -24 -85 -63 -173 -63c-63 0 -102 21 -121 55l2 -252c0 -4 -1 -6 -5 -6h-4c-4 0 -7 2 -7 6v689c1 4 2 6 6 6h4c3 0 7 -1 6 -6v-362c-1 -14 0 -27 0 -31c6 -49 43 -84 119 -84c92 0 150 46 174 66l-1 411c0 4 2 6 6 6h4c3 0 7 -1 6 -6v-478
c0 -4 -1 -6 -5 -6h-2c-4 0 -7 2 -7 6z" />
    <glyph glyph-name="uni10D0" unicode="&#x10d0;" horiz-adv-x="377" 
d="M134 694c0 -148 204 -233 204 -411c0 0 0 -6 -1 -146c-1 -104 -17 -142 -132 -142h-39c-86 0 -132 15 -132 110v138c0 5 4 8 8 8s8 -3 8 -8v-105c0 -105 16 -127 120 -127h31c89 0 120 21 120 120v151c0 172 -204 256 -204 411c0 1 5 7 8 7c4 0 9 -2 9 -6z" />
    <glyph glyph-name="uni10D1" unicode="&#x10d1;" horiz-adv-x="390" 
d="M96 694c0 5 4 8 7 8c4 0 8 -3 8 -7c0 -105 113 -39 113 -173v-22c120 0 126 -46 126 -136v-230c0 -119 -17 -139 -123 -139h-64c-91 0 -124 14 -124 139v247c0 93 28 119 150 119h19v23c0 125 -112 54 -112 171zM55 371v-241c3 -102 21 -120 126 -120h24
c114 0 130 14 130 127v227c0 112 -23 121 -131 121h-19c-116 0 -130 -26 -130 -114z" />
    <glyph glyph-name="uni10D2" unicode="&#x10d2;" horiz-adv-x="396" 
d="M167 705c110 0 112 -66 112 -138v-71c61 -6 79 -45 79 -124v-229c0 -124 -27 -148 -125 -148h-68c-115 0 -125 49 -125 140v244c0 103 42 121 133 121h31c21 0 50 -1 59 -2v60c0 103 -17 131 -96 131c-84 0 -94 -27 -94 -108v-5c0 -4 -4 -6 -8 -6s-8 2 -8 6v14
c0 77 16 115 110 115zM56 366v-43v-189c0 -97 24 -122 117 -122h52c100 0 117 26 117 127v224c0 104 -23 122 -129 122h-28c-98 0 -129 -14 -129 -119z" />
    <glyph glyph-name="uni10D3" unicode="&#x10d3;" horiz-adv-x="390" 
d="M160 706h77c103 0 120 -55 120 -146v-235c0 -89 -19 -125 -152 -125h-13c-106 0 -123 16 -136 41v-94c0 -120 29 -131 119 -131h176c3 0 6 -3 6 -8s-3 -8 -6 -8h-184c-97 0 -127 21 -127 139v426c0 112 27 140 120 141zM56 562v-226c0 -97 10 -120 136 -120h13
c136 0 136 43 136 129v214c0 113 -38 131 -118 131h-49c-83 0 -118 -6 -118 -128z" />
    <glyph glyph-name="uni10D4" unicode="&#x10d4;" horiz-adv-x="391" 
d="M166 705h48c118 0 139 -33 139 -126v-455c0 -86 -22 -129 -113 -129h-76c-110 0 -128 24 -128 137v110c0 5 4 8 8 8s8 -3 8 -8v-103c0 -108 16 -128 112 -128h63c91 0 110 33 110 122v442c0 99 -29 114 -128 114h-38c-79 0 -109 -22 -109 -133v-48c0 -6 -4 -8 -8 -8
s-8 2 -8 8v59c0 100 22 138 120 138z" />
    <glyph glyph-name="uni10D5" unicode="&#x10d5;" horiz-adv-x="390" 
d="M161 705h69c97 -1 126 -42 126 -104v-77c0 -68 -15 -102 -61 -114c56 -15 61 -65 61 -115v-166c0 -111 -36 -134 -125 -134h-77c-94 0 -124 29 -124 123v126c0 4 4 7 8 7s8 -3 8 -7v-105c0 -98 13 -129 123 -129h53c75 0 118 4 118 128v137c0 103 -19 127 -106 127h-45
c-5 0 -7 4 -7 8s2 8 7 8h43c71 0 108 14 108 102v76c0 64 -33 94 -128 94h-34c-97 0 -122 -22 -122 -129v-55c0 -4 -4 -6 -8 -6c-3 0 -7 2 -7 6v80c0 76 29 119 120 119z" />
    <glyph glyph-name="uni10D6" unicode="&#x10d6;" horiz-adv-x="406" 
d="M123 705h25c78 -1 110 -24 110 -121c0 -35 -11 -69 -23 -84c123 0 138 -36 138 -135v-226c0 -116 -10 -144 -133 -144h-52c-128 0 -133 44 -133 154v222c0 55 10 81 29 102c-52 14 -70 53 -70 102v24c0 79 38 106 109 106zM30 599v-22c0 -83 52 -91 70 -93
c19 9 39 16 115 16c9 9 27 28 27 84c0 71 -13 106 -93 106h-27c-56 0 -92 -22 -92 -91zM71 356v-213c0 -120 24 -132 134 -132h18c107 0 134 5 134 114v240c0 90 -17 119 -128 119h-30c-110 0 -128 -28 -128 -128z" />
    <glyph glyph-name="uni10D7" unicode="&#x10d7;" horiz-adv-x="599" 
d="M154 705h61c58 0 97 -26 104 -74c12 49 47 74 110 74c98 0 131 -26 131 -131v-565c0 -6 -4 -8 -8 -8s-8 2 -8 8v560c0 90 -17 120 -113 120c-71 0 -104 -21 -104 -124v-450c0 -72 -21 -120 -119 -120h-60c-90 0 -110 53 -110 120v469c0 85 32 121 116 121zM54 564v-428
c0 -92 18 -125 111 -125h31c97 0 115 39 115 121v435c0 103 -39 122 -108 122h-41c-78 0 -108 -27 -108 -125z" />
    <glyph glyph-name="uni10D8" unicode="&#x10d8;" horiz-adv-x="384" 
d="M158 704h67c121 0 121 -64 121 -148v-548c0 -6 -4 -8 -8 -8s-8 2 -8 8v555c0 108 -27 125 -125 125h-27c-91 0 -125 -8 -125 -132v-548c0 -6 -4 -8 -8 -8s-8 2 -8 8v555c0 98 16 141 121 141z" />
    <glyph glyph-name="uni10D9" unicode="&#x10d9;" horiz-adv-x="380" 
d="M319 622v71c0 5 4 8 8 8s8 -3 8 -7v-77c0 -84 -18 -112 -61 -125c42 -4 71 -42 71 -90v-265c0 -115 -26 -142 -123 -142h-71c-104 0 -123 35 -123 139v110c0 4 4 7 8 7s8 -3 8 -8v-104c0 -105 19 -128 124 -128h29c97 0 132 7 132 122v251c0 70 -27 100 -110 100h-92
c-4 0 -6 4 -6 7c0 4 2 8 6 8h93c81 0 99 32 99 123z" />
    <glyph glyph-name="uni10DA" unicode="&#x10da;" horiz-adv-x="390" 
d="M157 705h76c93 0 120 -27 120 -145v-357c0 -3 -3 -6 -8 -6s-8 3 -8 6v366c0 117 -39 121 -117 121h-48c-85 0 -118 -11 -118 -128v-421c0 -109 25 -125 121 -125h172c4 0 7 -4 7 -8s-3 -8 -7 -8h-182c-112 0 -127 38 -127 138v427c0 113 28 140 119 140z" />
    <glyph glyph-name="uni10DB" unicode="&#x10db;" horiz-adv-x="388" 
d="M159 705h75c107 0 118 -52 118 -149v-435c0 -99 -30 -126 -124 -126h-64c-99 0 -124 31 -124 137v250c0 91 24 118 139 118h34c89 0 111 -17 124 -44v119c0 104 -43 114 -118 114h-51c-78 0 -112 -6 -112 -95v-7c0 -3 -3 -5 -8 -5s-8 2 -8 5v12c0 84 34 106 119 106z
M56 367v-230c0 -119 34 -126 131 -126h19c105 0 131 14 131 133v225c0 101 -29 116 -128 116h-26c-114 0 -127 -25 -127 -118z" />
    <glyph glyph-name="uni10DC" unicode="&#x10dc;" horiz-adv-x="385" 
d="M157 700h177c4 0 6 -3 6 -7s-2 -8 -6 -8h-180c-89 0 -101 -35 -101 -126v-106c23 47 83 47 140 47c128 0 157 -19 157 -134v-229c0 -112 -23 -142 -127 -142h-59c-118 0 -127 50 -127 135v449c0 95 32 121 120 121zM53 365v-228c0 -105 22 -126 130 -126h20
c104 0 131 13 131 125v231c0 99 -28 117 -125 117h-31c-125 0 -125 -41 -125 -119z" />
    <glyph glyph-name="uni10DD" unicode="&#x10dd;" horiz-adv-x="557" 
d="M159 705c78 0 107 -21 120 -73c11 55 54 73 110 73c88 0 131 -12 131 -130v-568c0 -5 -4 -7 -9 -7c-4 0 -8 2 -8 7v559c0 109 -25 123 -108 123h-5c-76 0 -103 -24 -103 -120v-362c0 -5 -4 -8 -9 -8c-3 0 -7 3 -7 8v359c0 102 -28 123 -103 123c-73 0 -113 -7 -113 -112
v-570c0 -5 -4 -7 -8 -7s-8 2 -8 7v575c0 91 34 123 120 123z" />
    <glyph glyph-name="uni10DE" unicode="&#x10de;" horiz-adv-x="375" 
d="M141 694c0 -123 199 -87 199 -223v-15c0 -72 -20 -107 -62 -117c47 -17 72 -55 72 -123v-92c0 -86 -25 -129 -133 -129h-54c-101 0 -134 16 -134 140v109c0 5 4 8 8 8s8 -3 8 -8v-108c0 -121 37 -125 135 -125h20c88 0 134 12 134 114v91c0 56 -23 114 -102 114h-86
c-5 0 -8 4 -8 8s3 8 8 8h58c83 0 119 13 119 114v11c0 119 -199 91 -199 223c0 4 4 7 8 7c5 0 9 -3 9 -7z" />
    <glyph glyph-name="uni10DF" unicode="&#x10df;" horiz-adv-x="408" 
d="M368 701v-565c0 -99 -14 -141 -126 -141h-66c-117 0 -126 49 -126 141v107c0 5 4 8 8 8s8 -3 8 -8v-105c0 -104 21 -127 128 -127h31c101 0 127 15 127 127v548l-155 -47v-120c0 -113 -70 -132 -162 -132c-4 0 -7 4 -7 8s3 8 7 8c99 0 146 23 146 120v111
c-89 -26 -90 -26 -90 -26c-4 0 -7 4 -7 8c0 3 2 6 6 7l259 78h19z" />
    <glyph glyph-name="uni10E0" unicode="&#x10e0;" horiz-adv-x="558" 
d="M183 700h289c4 0 6 -3 6 -8c0 -4 -2 -8 -5 -8h-282c-83 0 -135 -32 -135 -135v-93c17 37 54 44 110 44c84 0 101 -31 113 -71c8 40 46 71 114 71c83 0 125 -25 125 -123v-369c0 -6 -4 -8 -8 -8s-8 2 -8 8v361c0 75 -17 116 -109 116c-104 0 -106 -71 -106 -118v-209
c0 -6 -4 -8 -8 -8s-8 2 -8 8v203c0 116 -44 123 -112 123c-83 0 -103 -37 -103 -113v-362c0 -6 -4 -9 -8 -9s-8 3 -8 9v548c0 93 48 143 143 143z" />
    <glyph glyph-name="uni10E1" unicode="&#x10e1;" horiz-adv-x="378" 
d="M38 135v560c0 5 4 8 8 8s8 -3 8 -8v-554c0 -112 21 -130 133 -130h7c101 0 133 14 133 130v341c0 6 4 8 8 8s8 -3 8 -8v-364c0 -88 -29 -123 -122 -123h-61c-117 0 -122 52 -122 140z" />
    <glyph glyph-name="uni10E2" unicode="&#x10e2;" horiz-adv-x="496" 
d="M175 -4c-81 0 -135 19 -135 148v401c0 88 19 151 135 151h69c0 3 -1 5 -1 8v8c0 3 4 4 8 4s8 -1 8 -4v-8c0 -3 -1 -5 -1 -8h64c81 0 135 -24 135 -148v-401c0 -95 -19 -151 -135 -151h-147zM56 549v-400c0 -118 47 -137 131 -137h112c114 0 142 32 142 131v400
c0 118 -47 139 -131 139l-53 2c1 -10 2 -33 2 -43v-283c0 -6 -4 -8 -8 -8s-8 2 -8 8v283c0 10 1 33 2 43l-47 -2c-114 0 -142 -35 -142 -133z" />
    <glyph glyph-name="uni10E3" unicode="&#x10e3;" horiz-adv-x="439" 
d="M19 701h16c71 0 120 -9 133 -70c15 54 58 73 111 73c94 0 120 -34 120 -122v-427c0 -136 -13 -160 -137 -160h-75c-91 0 -136 15 -136 122v125c0 5 4 8 8 8s8 -3 8 -8v-100c0 -115 24 -131 133 -131h49c127 0 134 27 134 126v432c0 98 -24 119 -104 119
c-56 0 -104 -17 -104 -123v-135c0 -4 -4 -6 -8 -6s-8 2 -8 6v135c0 104 -31 120 -115 120h-25c-5 0 -8 4 -8 8s3 8 8 8z" />
    <glyph glyph-name="uni10E4" unicode="&#x10e4;" horiz-adv-x="559" 
d="M369 11c101 0 137 25 137 137v141c0 45 -17 86 -77 86h-42c-5 0 -7 3 -7 8c0 4 2 7 7 7h42c60 0 76 46 76 117v74c0 101 -47 105 -102 105h-9c-27 0 -103 -1 -103 -105v-166c0 -80 -26 -115 -141 -115c-84 0 -126 34 -126 118v165c0 105 66 121 134 121
c67 0 114 -24 125 -75c10 44 51 75 117 75c88 0 123 -38 123 -112v-80c0 -100 -33 -122 -60 -127c49 -9 60 -51 60 -99v-140c0 -99 -25 -151 -137 -151h-106c-117 0 -136 59 -136 151v47c0 5 4 8 8 8s8 -3 8 -8v-45c0 -104 31 -137 138 -137h71zM40 431
c0 -94 44 -115 110 -115c90 0 125 16 125 109v155c0 102 -67 108 -121 108c-32 0 -114 -2 -114 -107v-150z" />
    <glyph glyph-name="uni10E5" unicode="&#x10e5;" horiz-adv-x="389" 
d="M334 508v185c0 5 4 8 8 8s8 -3 8 -8v-567c0 -64 -4 -131 -124 -131h-82c-96 0 -111 45 -111 139v108c0 5 4 8 8 8s8 -3 8 -8v-104c0 -122 34 -127 133 -127h20c112 0 132 25 132 131v313c0 66 -54 99 -104 99h-42c-69 0 -109 -12 -109 -117v-66c0 -4 -4 -5 -8 -5
s-8 1 -8 5v72c0 108 48 127 125 127h31c68 -1 106 -33 115 -62z" />
    <glyph glyph-name="uni10E6" unicode="&#x10e6;" horiz-adv-x="535" 
d="M152 705c75 0 104 -23 116 -64c15 55 78 64 104 64c109 0 124 -44 124 -121v-376c0 -6 -4 -8 -8 -8s-8 2 -8 8v368c0 89 -23 113 -107 113c-82 0 -98 -42 -98 -124v-159c0 -5 -4 -7 -8 -7s-7 2 -7 7v168c0 99 -27 115 -107 115c-59 0 -98 -7 -98 -122v-409
c0 -115 45 -142 143 -142h200c5 0 8 -4 8 -8s-3 -8 -8 -8h-209c-94 0 -150 32 -150 140v425c0 105 24 140 113 140z" />
    <glyph glyph-name="uni10E7" unicode="&#x10e7;" horiz-adv-x="391" 
d="M210 11c101 0 127 15 127 127v169c-17 -45 -85 -47 -134 -47h-16c-114 0 -150 14 -150 121v312c0 4 4 7 8 7s8 -3 8 -7v-294c0 -101 14 -123 135 -123h14c115 0 135 22 135 115v302c0 5 4 8 8 8s8 -3 9 -8v-557c0 -99 -15 -141 -127 -141h-66c-117 0 -126 49 -126 141v27
c0 5 4 8 8 8s8 -3 8 -8v-25c0 -104 21 -127 128 -127h31z" />
    <glyph glyph-name="uni10E8" unicode="&#x10e8;" horiz-adv-x="396" 
d="M185 560c0 -5 -4 -7 -8 -7s-8 2 -8 7v27c0 81 -37 96 -102 96h-25c-5 0 -8 4 -8 8s3 7 8 8h16c71 0 104 -11 119 -61c11 48 46 66 85 66c83 0 94 -40 94 -128v-438c0 -106 -12 -143 -122 -143h-74c-100 0 -122 38 -122 128v252c0 109 41 123 155 123h7
c101 0 124 -13 140 -45v110c0 111 -19 124 -76 124c-44 0 -79 -19 -79 -100v-27zM54 361v-236c0 -91 20 -114 117 -114h51c96 0 118 16 118 127v225c0 101 -23 119 -135 119h-17c-111 0 -131 -20 -134 -121z" />
    <glyph glyph-name="uni10E9" unicode="&#x10e9;" horiz-adv-x="391" 
d="M178 705h18c113 0 129 -57 129 -152c0 -65 -10 -149 -103 -227c105 -2 133 -20 133 -127v-191c0 -6 -4 -8 -8 -8s-8 2 -8 8v187c0 96 -15 115 -135 115h-13c-99 0 -135 -19 -135 -112v-191c0 -5 -4 -7 -8 -7s-8 2 -8 7v573c0 94 37 125 138 125zM56 558v-287
c11 34 49 55 131 55h12c77 64 110 128 110 230c0 87 -14 133 -118 133h-7c-100 0 -128 -23 -128 -131z" />
    <glyph glyph-name="uni10EA" unicode="&#x10ea;" horiz-adv-x="397" 
d="M40 134v560c0 5 4 8 7 8c5 0 9 -3 9 -9v-557c0 -118 38 -125 136 -125h13c100 0 136 8 136 127v218c0 92 -12 127 -117 127h-17c-5 0 -8 4 -8 7c0 4 3 8 8 8h17c93 0 116 23 116 119v76c0 5 4 8 8 8s8 -3 8 -8v-96c0 -57 -17 -97 -70 -106c64 -15 71 -61 71 -128v-228
c0 -116 -33 -140 -121 -140h-73c-117 0 -123 60 -123 139z" />
    <glyph glyph-name="uni10EB" unicode="&#x10eb;" horiz-adv-x="389" 
d="M333 457v235c0 5 4 7 8 7s8 -2 8 -7v-560c0 -100 -8 -137 -119 -137h-74c-110 0 -119 46 -119 137v249c0 103 34 119 137 119h38c90 0 107 -17 121 -43zM53 367v-63v-173c0 -95 17 -120 124 -120h26c120 0 130 17 130 132v225c0 115 -42 116 -132 116h-15
c-109 0 -133 -12 -133 -117z" />
    <glyph glyph-name="uni10EC" unicode="&#x10ec;" horiz-adv-x="402" 
d="M214 560v27c0 81 -27 96 -79 96c-57 0 -76 -9 -76 -120v-111c16 32 39 45 140 45h7c114 0 155 -14 155 -123v-251c0 -90 -22 -128 -122 -128h-74c-110 0 -122 37 -122 143v438c0 88 11 124 94 124c39 0 74 -14 85 -62c15 50 48 61 119 61h16c5 -1 7 -4 7 -8s-2 -8 -7 -8
h-25c-65 0 -102 -15 -102 -96v-27c0 -5 -4 -7 -8 -7s-8 2 -8 7zM345 139v221c0 101 -23 121 -134 121h-17c-112 0 -135 -18 -135 -119v-224c0 -111 22 -127 118 -127h51c97 0 117 23 117 114v14z" />
    <glyph glyph-name="uni10ED" unicode="&#x10ed;" horiz-adv-x="420" 
d="M195 11c101 0 127 15 127 127v111h-152c-92 0 -124 34 -124 133c0 91 45 117 125 117h151v193c0 6 4 9 8 9s9 -4 9 -9v-193h57c5 0 7 -4 7 -8s-2 -7 -7 -7h-57v-220h57c5 0 7 -3 7 -7s-2 -8 -7 -8h-57v-113c0 -99 -15 -141 -127 -141h-63c-117 0 -126 49 -126 141v27
c0 5 4 8 8 8s8 -3 8 -8v-25c0 -104 21 -127 128 -127h28zM63 383c0 -93 23 -119 122 -119h137v220h-137c-84 0 -122 -20 -122 -101z" />
    <glyph glyph-name="uni10EE" unicode="&#x10ee;" horiz-adv-x="389" 
d="M56 692v-235c14 26 31 43 121 43h38c103 0 137 -16 137 -119v-249c0 -91 -9 -137 -119 -137h-74c-111 0 -119 37 -119 137v560c0 5 4 7 8 7s8 -2 8 -7zM336 304v63c0 105 -24 117 -133 117h-15c-89 0 -132 -1 -132 -109v-232c0 -115 9 -132 130 -132h26
c107 0 124 25 124 120v173z" />
    <glyph glyph-name="uni10EF" unicode="&#x10ef;" horiz-adv-x="386" 
d="M175 500v194c0 5 4 8 8 8s8 -3 8 -8v-194h128c4 0 7 -4 7 -8s-3 -8 -7 -8h-128v-136h43c96 0 117 -58 117 -113v-106c0 -111 -36 -134 -125 -134h-67c-94 0 -124 29 -124 123v126c0 4 4 7 8 7s8 -3 8 -7v-105c0 -98 13 -129 123 -129h43c75 0 118 4 118 128v77
c0 85 -28 117 -106 117h-40c-8 0 -14 3 -14 11v141h-120c-5 0 -7 4 -7 8s2 8 7 8h120z" />
    <glyph glyph-name="uni10F0" unicode="&#x10f0;" horiz-adv-x="390" 
d="M187 450c-5 0 -8 4 -8 8s3 8 8 8h20c79 0 128 10 128 78c0 119 -225 38 -225 149c0 5 4 7 8 7s8 -2 8 -7c0 -93 226 -14 226 -150c0 -59 -36 -78 -69 -84c52 -6 72 -44 72 -106c0 -79 -43 -91 -69 -96c29 -7 67 -19 67 -93v-66c0 -93 -42 -103 -128 -103h-66
c-125 0 -129 52 -129 141v57c0 5 4 7 8 7s8 -2 8 -6v-54c0 -91 12 -129 120 -129h52c82 0 119 11 119 86v63c0 69 -38 90 -119 90h-31c-5 0 -8 4 -8 8s3 8 8 8h18c97 0 133 6 133 87c0 76 -22 97 -109 97h-42z" />
    </font>
</defs>
</svg>
